<svg width="126" height="82" viewBox="0 0 126 82" fill="none" xmlns="http://www.w3.org/2000/svg">
<path d="M126 15.6774C126 22.9837 121.919 29.2717 116.059 32.0818C110.13 29.2717 106 22.9837 106 15.6774C106 10.3327 110.477 6 116 6C121.523 6 126 10.3327 126 15.6774Z" fill="#FF63AE"/>
<path fill-rule="evenodd" clip-rule="evenodd" d="M110 16C110 12.6863 112.686 10 116 10C119.314 10 122 12.6863 122 16V20.1884C122 20.6554 121.823 21.0818 121.533 21.4029C121.344 21.6118 121.087 21.6774 120.852 21.6428C120.624 21.6093 120.414 21.484 120.266 21.3064L119.589 20.4946C119.456 20.3347 119.211 20.3347 119.077 20.4946L118.435 21.2655C118.035 21.7452 117.298 21.7452 116.898 21.2655L116.256 20.4946C116.123 20.3347 115.877 20.3347 115.744 20.4946L115.102 21.2655C114.702 21.7452 113.965 21.7452 113.565 21.2655L112.923 20.4946C112.789 20.3347 112.544 20.3347 112.411 20.4946L111.734 21.3064C111.586 21.484 111.376 21.6093 111.148 21.6428C110.913 21.6774 110.656 21.6118 110.467 21.4029C110.177 21.0818 110 20.6554 110 20.1884V16ZM115.069 15.069C115.199 14.9389 115.199 14.7278 115.069 14.5976C114.939 14.4675 114.728 14.4675 114.598 14.5976L113.833 15.3619L113.069 14.5976C112.939 14.4675 112.728 14.4675 112.598 14.5976C112.467 14.7278 112.467 14.9389 112.598 15.069L113.362 15.8333L112.598 16.5976C112.467 16.7278 112.467 16.9389 112.598 17.069C112.728 17.1992 112.939 17.1992 113.069 17.069L113.833 16.3047L114.598 17.069C114.728 17.1992 114.939 17.1992 115.069 17.069C115.199 16.9389 115.199 16.7278 115.069 16.5976L114.305 15.8333L115.069 15.069ZM119.402 15.069C119.533 14.9389 119.533 14.7278 119.402 14.5976C119.272 14.4675 119.061 14.4675 118.931 14.5976L118.167 15.3619L117.402 14.5976C117.272 14.4675 117.061 14.4675 116.931 14.5976C116.801 14.7278 116.801 14.9389 116.931 15.069L117.695 15.8333L116.931 16.5976C116.801 16.7278 116.801 16.9389 116.931 17.069C117.061 17.1992 117.272 17.1992 117.402 17.069L118.167 16.3047L118.931 17.069C119.061 17.1992 119.272 17.1992 119.402 17.069C119.533 16.9389 119.533 16.7278 119.402 16.5976L118.638 15.8333L119.402 15.069Z" fill="white"/>
<path d="M103 65C103 72.5498 98.9189 79.0474 93.0592 81.9512C87.1297 79.0474 83 72.5498 83 65C83 59.4772 87.4772 55 93 55C98.5228 55 103 59.4772 103 65Z" fill="#315EFF"/>
<path d="M91.334 59.333C90.9658 59.333 90.6673 59.6315 90.6673 59.9997C90.6673 60.3679 90.9658 60.6663 91.334 60.6663C91.7022 60.6663 92.0007 60.3679 92.0007 59.9997C92.0007 59.6315 91.7022 59.333 91.334 59.333Z" fill="white"/>
<path d="M87.334 63.333C87.334 62.9648 87.6325 62.6663 88.0007 62.6663C88.3688 62.6663 88.6673 62.9648 88.6673 63.333C88.6673 63.7012 88.3688 63.9997 88.0007 63.9997C87.6325 63.9997 87.334 63.7012 87.334 63.333Z" fill="white"/>
<path d="M93.0007 63.333C92.0802 63.333 91.334 64.0792 91.334 64.9997C91.334 65.9201 92.0802 66.6663 93.0007 66.6663C93.9211 66.6663 94.6673 65.9201 94.6673 64.9997C94.6673 64.0792 93.9211 63.333 93.0007 63.333Z" fill="white"/>
<path d="M94.0007 59.9997C94.0007 59.6315 94.2991 59.333 94.6673 59.333C95.0355 59.333 95.334 59.6315 95.334 59.9997C95.334 60.3679 95.0355 60.6663 94.6673 60.6663C94.2991 60.6663 94.0007 60.3679 94.0007 59.9997Z" fill="white"/>
<path d="M98.0007 62.6663C97.6325 62.6663 97.334 62.9648 97.334 63.333C97.334 63.7012 97.6325 63.9997 98.0007 63.9997C98.3688 63.9997 98.6673 63.7012 98.6673 63.333C98.6673 62.9648 98.3688 62.6663 98.0007 62.6663Z" fill="white"/>
<path d="M97.334 66.6663C97.334 66.2982 97.6325 65.9997 98.0007 65.9997C98.3688 65.9997 98.6673 66.2982 98.6673 66.6663C98.6673 67.0345 98.3688 67.333 98.0007 67.333C97.6325 67.333 97.334 67.0345 97.334 66.6663Z" fill="white"/>
<path d="M94.6673 69.333C94.2991 69.333 94.0007 69.6315 94.0007 69.9997C94.0007 70.3679 94.2991 70.6663 94.6673 70.6663C95.0355 70.6663 95.334 70.3679 95.334 69.9997C95.334 69.6315 95.0355 69.333 94.6673 69.333Z" fill="white"/>
<path d="M90.6673 69.9997C90.6673 69.6315 90.9658 69.333 91.334 69.333C91.7022 69.333 92.0007 69.6315 92.0007 69.9997C92.0007 70.3679 91.7022 70.6663 91.334 70.6663C90.9658 70.6663 90.6673 70.3679 90.6673 69.9997Z" fill="white"/>
<path d="M88.0007 65.9997C87.6325 65.9997 87.334 66.2982 87.334 66.6663C87.334 67.0345 87.6325 67.333 88.0007 67.333C88.3688 67.333 88.6673 67.0345 88.6673 66.6663C88.6673 66.2982 88.3688 65.9997 88.0007 65.9997Z" fill="white"/>
<path d="M88.6673 68.9997C88.6673 68.8156 88.8166 68.6663 89.0007 68.6663C89.1847 68.6663 89.334 68.8156 89.334 68.9997C89.334 69.1838 89.1847 69.333 89.0007 69.333C88.8166 69.333 88.6673 69.1838 88.6673 68.9997Z" fill="white"/>
<path d="M97.0007 60.6663C96.8166 60.6663 96.6673 60.8156 96.6673 60.9997C96.6673 61.1838 96.8166 61.333 97.0007 61.333C97.1847 61.333 97.334 61.1838 97.334 60.9997C97.334 60.8156 97.1847 60.6663 97.0007 60.6663Z" fill="white"/>
<path d="M96.6673 68.9997C96.6673 68.8156 96.8166 68.6663 97.0007 68.6663C97.1847 68.6663 97.334 68.8156 97.334 68.9997C97.334 69.1838 97.1847 69.333 97.0007 69.333C96.8166 69.333 96.6673 69.1838 96.6673 68.9997Z" fill="white"/>
<path d="M89.0007 60.6663C88.8166 60.6663 88.6673 60.8156 88.6673 60.9997C88.6673 61.1838 88.8166 61.333 89.0007 61.333C89.1847 61.333 89.334 61.1838 89.334 60.9997C89.334 60.8156 89.1847 60.6663 89.0007 60.6663Z" fill="white"/>
<path d="M92.0007 61.6663C92.0007 61.1141 92.4484 60.6663 93.0007 60.6663C93.5529 60.6663 94.0007 61.1141 94.0007 61.6663C94.0007 62.2186 93.5529 62.6663 93.0007 62.6663C92.4484 62.6663 92.0007 62.2186 92.0007 61.6663Z" fill="white"/>
<path d="M88.6673 64.9997C88.6673 64.4474 89.115 63.9997 89.6673 63.9997C90.2196 63.9997 90.6673 64.4474 90.6673 64.9997C90.6673 65.552 90.2196 65.9997 89.6673 65.9997C89.115 65.9997 88.6673 65.552 88.6673 64.9997Z" fill="white"/>
<path d="M95.334 64.9997C95.334 64.4474 95.7817 63.9997 96.334 63.9997C96.8863 63.9997 97.334 64.4474 97.334 64.9997C97.334 65.552 96.8863 65.9997 96.334 65.9997C95.7817 65.9997 95.334 65.552 95.334 64.9997Z" fill="white"/>
<path d="M92.0007 68.333C92.0007 67.7807 92.4484 67.333 93.0007 67.333C93.5529 67.333 94.0007 67.7807 94.0007 68.333C94.0007 68.8853 93.5529 69.333 93.0007 69.333C92.4484 69.333 92.0007 68.8853 92.0007 68.333Z" fill="white"/>
<path d="M91.0721 61.5976C91.2022 61.7278 91.2022 61.9389 91.0721 62.069L90.8068 62.3343L91.0721 62.5996C91.2022 62.7298 91.2022 62.9408 91.0721 63.071C90.9419 63.2012 90.7308 63.2012 90.6007 63.071L90.3354 62.8057L90.0697 63.0714C89.9395 63.2016 89.7285 63.2016 89.5983 63.0714C89.4681 62.9413 89.4681 62.7302 89.5983 62.6L89.864 62.3343L89.5983 62.0686C89.4681 61.9384 89.4681 61.7274 89.5983 61.5972C89.7285 61.467 89.9395 61.467 90.0697 61.5972L90.3354 61.8629L90.6007 61.5976C90.7308 61.4675 90.9419 61.4675 91.0721 61.5976Z" fill="white"/>
<path d="M96.4054 61.5976C96.5356 61.7278 96.5356 61.9389 96.4054 62.069L96.1401 62.3343L96.4054 62.5996C96.5356 62.7298 96.5356 62.9408 96.4054 63.071C96.2752 63.2012 96.0642 63.2012 95.934 63.071L95.6687 62.8057L95.403 63.0714C95.2728 63.2016 95.0618 63.2016 94.9316 63.0714C94.8014 62.9413 94.8014 62.7302 94.9316 62.6L95.1973 62.3343L94.9316 62.0686C94.8014 61.9384 94.8014 61.7274 94.9316 61.5972C95.0618 61.467 95.2728 61.467 95.403 61.5972L95.6687 61.8629L95.934 61.5976C96.0642 61.4675 96.2752 61.4675 96.4054 61.5976Z" fill="white"/>
<path d="M96.4054 66.931C96.5356 67.0611 96.5356 67.2722 96.4054 67.4024L96.1401 67.6676L96.4054 67.9329C96.5356 68.0631 96.5356 68.2742 96.4054 68.4043C96.2752 68.5345 96.0642 68.5345 95.934 68.4043L95.6687 68.1391L95.403 68.4048C95.2728 68.5349 95.0618 68.5349 94.9316 68.4048C94.8014 68.2746 94.8014 68.0635 94.9316 67.9334L95.1973 67.6676L94.9316 67.4019C94.8014 67.2717 94.8014 67.0607 94.9316 66.9305C95.0618 66.8003 95.2728 66.8003 95.403 66.9305L95.6687 67.1962L95.934 66.931C96.0642 66.8008 96.2752 66.8008 96.4054 66.931Z" fill="white"/>
<path d="M91.0721 66.931C91.2022 67.0611 91.2022 67.2722 91.0721 67.4024L90.8068 67.6676L91.0721 67.9329C91.2022 68.0631 91.2022 68.2742 91.0721 68.4043C90.9419 68.5345 90.7308 68.5345 90.6007 68.4043L90.3354 68.1391L90.0697 68.4048C89.9395 68.5349 89.7285 68.5349 89.5983 68.4048C89.4681 68.2746 89.4681 68.0635 89.5983 67.9334L89.864 67.6676L89.5983 67.4019C89.4681 67.2717 89.4681 67.0607 89.5983 66.9305C89.7285 66.8003 89.9395 66.8003 90.0697 66.9305L90.3354 67.1962L90.6007 66.931C90.7308 66.8008 90.9419 66.8008 91.0721 66.931Z" fill="white"/>
<path d="M20 10C20 17.5498 15.9189 24.0474 10.0592 26.9512C4.12966 24.0474 0 17.5498 0 10C0 4.47715 4.47715 0 10 0C15.5228 0 20 4.47715 20 10Z" fill="#AC3EFF"/>
<path fill-rule="evenodd" clip-rule="evenodd" d="M7.78728 4.64539C7.90048 4.32746 8.03818 4.08048 8.20645 3.91571C8.36553 3.75995 8.56178 3.66699 8.83298 3.66699C9.06718 3.66699 9.21133 3.75815 9.31112 3.90681C9.42263 4.07295 9.49236 4.33565 9.49236 4.68033C9.49236 5.45119 9.17245 6.15994 8.83467 6.69C8.66737 6.95254 8.49989 7.16464 8.37473 7.31051C8.31228 7.3833 8.26072 7.4392 8.22547 7.47621C8.20786 7.49471 8.19435 7.50846 8.18563 7.51722L8.17624 7.52656L8.17426 7.5285C8.07661 7.62284 8.04593 7.76699 8.09674 7.89294C8.1476 8.01901 8.26992 8.10156 8.40587 8.10156L16.3477 8.10156C16.7059 8.10156 16.9982 8.39318 16.9982 8.75555V8.87901C16.9982 9.07271 16.8096 9.40954 16.3331 9.40954L11.8079 9.40954C11.6238 9.40954 11.4746 9.55878 11.4746 9.74288C11.4746 9.92697 11.6238 10.0762 11.8079 10.0762L15.3315 10.0762C15.6895 10.0762 15.982 10.368 15.982 10.7302V10.8537C15.982 11.216 15.6896 11.5076 15.3315 11.5076H11.6664C11.4823 11.5076 11.3331 11.6569 11.3331 11.841C11.3331 12.0251 11.4823 12.1743 11.6664 12.1743L13.2203 12.1745C13.3839 12.2934 13.4901 12.4867 13.4901 12.7048V12.8283C13.4901 13.1906 13.1977 13.4823 12.8396 13.4823H11.316C11.1319 13.4823 10.9827 13.6315 10.9827 13.8156C10.9827 13.9997 11.1319 14.149 11.316 14.149H12.2361C12.4 14.2679 12.5063 14.4612 12.5063 14.6797C12.5063 15.0419 12.214 15.3337 11.8556 15.3337L5.63554 15.3337C4.73414 15.3337 4.00127 14.5999 4.00127 13.6923V11.4066C4.00127 11.331 4.00094 11.258 4.00061 11.1871L4.00061 11.1871C3.99837 10.7017 3.99659 10.3168 4.10688 9.91269C4.229 9.46514 4.49787 8.97326 5.12868 8.3401C5.29299 8.1752 5.44649 8.02325 5.59029 7.88091L5.5903 7.8809C6.07701 7.39909 6.45261 7.02728 6.76036 6.63556C7.17194 6.11166 7.46451 5.5526 7.78728 4.64539Z" fill="white"/>
<path d="M15.334 7C15.334 6.72386 15.5578 6.5 15.834 6.5V6.5C16.1101 6.5 16.334 6.72386 16.334 7V7.5H15.334V7Z" fill="white"/>
<path d="M56 48C56 55.5498 51.9189 62.0474 46.0592 64.9512C40.1297 62.0474 36 55.5498 36 48C36 42.4772 40.4772 38 46 38C51.5228 38 56 42.4772 56 48Z" fill="#315EFF"/>
<path d="M44.334 42.333C43.9658 42.333 43.6673 42.6315 43.6673 42.9997C43.6673 43.3679 43.9658 43.6663 44.334 43.6663C44.7022 43.6663 45.0007 43.3679 45.0007 42.9997C45.0007 42.6315 44.7022 42.333 44.334 42.333Z" fill="white"/>
<path d="M40.334 46.333C40.334 45.9648 40.6325 45.6663 41.0007 45.6663C41.3688 45.6663 41.6673 45.9648 41.6673 46.333C41.6673 46.7012 41.3688 46.9997 41.0007 46.9997C40.6325 46.9997 40.334 46.7012 40.334 46.333Z" fill="white"/>
<path d="M46.0007 46.333C45.0802 46.333 44.334 47.0792 44.334 47.9997C44.334 48.9201 45.0802 49.6663 46.0007 49.6663C46.9211 49.6663 47.6673 48.9201 47.6673 47.9997C47.6673 47.0792 46.9211 46.333 46.0007 46.333Z" fill="white"/>
<path d="M47.0007 42.9997C47.0007 42.6315 47.2991 42.333 47.6673 42.333C48.0355 42.333 48.334 42.6315 48.334 42.9997C48.334 43.3679 48.0355 43.6663 47.6673 43.6663C47.2991 43.6663 47.0007 43.3679 47.0007 42.9997Z" fill="white"/>
<path d="M51.0007 45.6663C50.6325 45.6663 50.334 45.9648 50.334 46.333C50.334 46.7012 50.6325 46.9997 51.0007 46.9997C51.3688 46.9997 51.6673 46.7012 51.6673 46.333C51.6673 45.9648 51.3688 45.6663 51.0007 45.6663Z" fill="white"/>
<path d="M50.334 49.6663C50.334 49.2982 50.6325 48.9997 51.0007 48.9997C51.3688 48.9997 51.6673 49.2982 51.6673 49.6663C51.6673 50.0345 51.3688 50.333 51.0007 50.333C50.6325 50.333 50.334 50.0345 50.334 49.6663Z" fill="white"/>
<path d="M47.6673 52.333C47.2991 52.333 47.0007 52.6315 47.0007 52.9997C47.0007 53.3679 47.2991 53.6663 47.6673 53.6663C48.0355 53.6663 48.334 53.3679 48.334 52.9997C48.334 52.6315 48.0355 52.333 47.6673 52.333Z" fill="white"/>
<path d="M43.6673 52.9997C43.6673 52.6315 43.9658 52.333 44.334 52.333C44.7022 52.333 45.0007 52.6315 45.0007 52.9997C45.0007 53.3679 44.7022 53.6663 44.334 53.6663C43.9658 53.6663 43.6673 53.3679 43.6673 52.9997Z" fill="white"/>
<path d="M41.0007 48.9997C40.6325 48.9997 40.334 49.2982 40.334 49.6663C40.334 50.0345 40.6325 50.333 41.0007 50.333C41.3688 50.333 41.6673 50.0345 41.6673 49.6663C41.6673 49.2982 41.3688 48.9997 41.0007 48.9997Z" fill="white"/>
<path d="M41.6673 51.9997C41.6673 51.8156 41.8166 51.6663 42.0007 51.6663C42.1847 51.6663 42.334 51.8156 42.334 51.9997C42.334 52.1838 42.1847 52.333 42.0007 52.333C41.8166 52.333 41.6673 52.1838 41.6673 51.9997Z" fill="white"/>
<path d="M50.0007 43.6663C49.8166 43.6663 49.6673 43.8156 49.6673 43.9997C49.6673 44.1838 49.8166 44.333 50.0007 44.333C50.1847 44.333 50.334 44.1838 50.334 43.9997C50.334 43.8156 50.1847 43.6663 50.0007 43.6663Z" fill="white"/>
<path d="M49.6673 51.9997C49.6673 51.8156 49.8166 51.6663 50.0007 51.6663C50.1847 51.6663 50.334 51.8156 50.334 51.9997C50.334 52.1838 50.1847 52.333 50.0007 52.333C49.8166 52.333 49.6673 52.1838 49.6673 51.9997Z" fill="white"/>
<path d="M42.0007 43.6663C41.8166 43.6663 41.6673 43.8156 41.6673 43.9997C41.6673 44.1838 41.8166 44.333 42.0007 44.333C42.1847 44.333 42.334 44.1838 42.334 43.9997C42.334 43.8156 42.1847 43.6663 42.0007 43.6663Z" fill="white"/>
<path d="M45.0007 44.6663C45.0007 44.1141 45.4484 43.6663 46.0007 43.6663C46.5529 43.6663 47.0007 44.1141 47.0007 44.6663C47.0007 45.2186 46.5529 45.6663 46.0007 45.6663C45.4484 45.6663 45.0007 45.2186 45.0007 44.6663Z" fill="white"/>
<path d="M41.6673 47.9997C41.6673 47.4474 42.115 46.9997 42.6673 46.9997C43.2196 46.9997 43.6673 47.4474 43.6673 47.9997C43.6673 48.552 43.2196 48.9997 42.6673 48.9997C42.115 48.9997 41.6673 48.552 41.6673 47.9997Z" fill="white"/>
<path d="M48.334 47.9997C48.334 47.4474 48.7817 46.9997 49.334 46.9997C49.8863 46.9997 50.334 47.4474 50.334 47.9997C50.334 48.552 49.8863 48.9997 49.334 48.9997C48.7817 48.9997 48.334 48.552 48.334 47.9997Z" fill="white"/>
<path d="M45.0007 51.333C45.0007 50.7807 45.4484 50.333 46.0007 50.333C46.5529 50.333 47.0007 50.7807 47.0007 51.333C47.0007 51.8853 46.5529 52.333 46.0007 52.333C45.4484 52.333 45.0007 51.8853 45.0007 51.333Z" fill="white"/>
<path d="M44.0721 44.5976C44.2022 44.7278 44.2022 44.9389 44.0721 45.069L43.8068 45.3343L44.0721 45.5996C44.2022 45.7298 44.2022 45.9408 44.0721 46.071C43.9419 46.2012 43.7308 46.2012 43.6007 46.071L43.3354 45.8057L43.0697 46.0714C42.9395 46.2016 42.7285 46.2016 42.5983 46.0714C42.4681 45.9413 42.4681 45.7302 42.5983 45.6L42.864 45.3343L42.5983 45.0686C42.4681 44.9384 42.4681 44.7274 42.5983 44.5972C42.7285 44.467 42.9395 44.467 43.0697 44.5972L43.3354 44.8629L43.6007 44.5976C43.7308 44.4675 43.9419 44.4675 44.0721 44.5976Z" fill="white"/>
<path d="M49.4054 44.5976C49.5356 44.7278 49.5356 44.9389 49.4054 45.069L49.1401 45.3343L49.4054 45.5996C49.5356 45.7298 49.5356 45.9408 49.4054 46.071C49.2752 46.2012 49.0642 46.2012 48.934 46.071L48.6687 45.8057L48.403 46.0714C48.2728 46.2016 48.0618 46.2016 47.9316 46.0714C47.8014 45.9413 47.8014 45.7302 47.9316 45.6L48.1973 45.3343L47.9316 45.0686C47.8014 44.9384 47.8014 44.7274 47.9316 44.5972C48.0618 44.467 48.2728 44.467 48.403 44.5972L48.6687 44.8629L48.934 44.5976C49.0642 44.4675 49.2752 44.4675 49.4054 44.5976Z" fill="white"/>
<path d="M49.4054 49.931C49.5356 50.0611 49.5356 50.2722 49.4054 50.4024L49.1401 50.6676L49.4054 50.9329C49.5356 51.0631 49.5356 51.2742 49.4054 51.4043C49.2752 51.5345 49.0642 51.5345 48.934 51.4043L48.6687 51.1391L48.403 51.4048C48.2728 51.5349 48.0618 51.5349 47.9316 51.4048C47.8014 51.2746 47.8014 51.0635 47.9316 50.9334L48.1973 50.6676L47.9316 50.4019C47.8014 50.2717 47.8014 50.0607 47.9316 49.9305C48.0618 49.8003 48.2728 49.8003 48.403 49.9305L48.6687 50.1962L48.934 49.931C49.0642 49.8008 49.2752 49.8008 49.4054 49.931Z" fill="white"/>
<path d="M44.0721 49.931C44.2022 50.0611 44.2022 50.2722 44.0721 50.4024L43.8068 50.6676L44.0721 50.9329C44.2022 51.0631 44.2022 51.2742 44.0721 51.4043C43.9419 51.5345 43.7308 51.5345 43.6007 51.4043L43.3354 51.1391L43.0697 51.4048C42.9395 51.5349 42.7285 51.5349 42.5983 51.4048C42.4681 51.2746 42.4681 51.0635 42.5983 50.9334L42.864 50.6676L42.5983 50.4019C42.4681 50.2717 42.4681 50.0607 42.5983 49.9305C42.7285 49.8003 42.9395 49.8003 43.0697 49.9305L43.3354 50.1962L43.6007 49.931C43.7308 49.8008 43.9419 49.8008 44.0721 49.931Z" fill="white"/>
</svg>
