<svg width="313" height="327" viewBox="0 0 313 327" fill="none" xmlns="http://www.w3.org/2000/svg">
<path d="M102.646 183.418C81.4921 190.199 60.4288 204.936 43.2632 225.905C42.7443 226.539 43.4744 227.439 44.2151 227.089C61.3096 219.011 80.8501 216.395 99.9311 219.994" stroke="url(#paint0_linear_4573_9520)" stroke-width="2" stroke-linecap="round"/>
<path d="M170.526 222.61C175.23 244.32 172.999 269.93 163.422 295.281C163.133 296.047 161.989 295.865 161.921 295.048C160.37 276.205 152.865 257.975 140.208 243.249" stroke="url(#paint1_linear_4573_9520)" stroke-width="2" stroke-linecap="round"/>
<path d="M66.2979 324.915L66.1845 325.111L90.168 283.57" stroke="url(#paint2_linear_4573_9520)" stroke-width="2" stroke-linecap="round"/>
<path d="M59.3217 298.924L59.2173 299.105L81.2969 260.861" stroke="url(#paint3_linear_4573_9520)" stroke-width="2" stroke-linecap="round"/>
<path d="M92.2904 317.959L92.186 318.14L114.266 279.896" stroke="url(#paint4_linear_4573_9520)" stroke-width="2" stroke-linecap="round"/>
<path d="M229.587 154.8C244.592 128.81 249.945 99.9231 246.751 72.3563C245.151 58.5483 241.233 45.3724 235.478 32.7645C235.344 32.4709 235.039 32.2945 234.718 32.3254C221.065 33.6394 207.663 37.0751 195.025 42.4921C169.383 53.4825 146.883 72.6287 131.797 98.7594C120.647 118.071 112.523 138.525 107.268 159.783C99.228 192.307 98.1226 226.324 102.957 261.409C102.945 261.433 102.97 261.46 102.996 261.449C135.643 248.148 164.657 229.897 188.731 206.815C204.629 191.573 218.373 174.223 229.587 154.8Z" fill="url(#paint5_linear_4573_9520)" fill-opacity="0.2"/>
<path d="M102.957 261.409V261.409C102.945 261.433 102.97 261.46 102.996 261.449C135.643 248.148 164.657 229.897 188.731 206.815M102.957 261.409L139.669 197.835M102.957 261.409C98.1226 226.324 99.228 192.307 107.268 159.783M188.731 206.815C204.629 191.573 218.373 174.223 229.587 154.8C244.592 128.81 249.945 99.9231 246.751 72.3563M188.731 206.815L107.268 159.783M107.268 159.783C112.523 138.525 120.647 118.071 131.797 98.7594C146.883 72.6287 169.383 53.4825 195.025 42.4921M246.751 72.3563C245.151 58.5483 241.233 45.3724 235.478 32.7645C235.344 32.4709 235.039 32.2945 234.718 32.3254C221.065 33.6394 207.663 37.0751 195.025 42.4921M246.751 72.3563L195.025 42.4921" stroke="url(#paint6_linear_4573_9520)" stroke-width="2" stroke-linecap="round"/>
<rect x="166.941" y="78.7109" width="72.8987" height="35.7987" rx="6.6294" transform="rotate(30 166.941 78.7109)" fill="url(#paint7_linear_4573_9520)"/>
<path d="M161.899 107.902L165.791 110.149L168.679 105.148L171.321 106.673C175.009 108.802 178.576 107.947 180.505 104.604C182.417 101.294 181.467 97.7259 177.85 95.6374L171.197 91.7964L161.899 107.902ZM170.45 102.081L173.278 97.1815L175.197 98.2893C176.943 99.2972 177.334 100.781 176.471 102.275C175.613 103.762 174.114 104.196 172.368 103.188L170.45 102.081Z" fill="white"/>
<path d="M177.452 116.881L181.345 119.129L184.527 113.616L186.525 114.769L186.283 121.98L190.53 124.432L190.729 116.368C192.961 116.588 194.896 115.597 196.181 113.372C198.092 110.061 197.021 106.706 193.403 104.617L186.75 100.776L177.452 116.881ZM186.298 110.549L188.831 106.161L190.75 107.269C192.496 108.277 193.01 109.548 192.147 111.043C191.284 112.537 189.963 112.665 188.217 111.657L186.298 110.549Z" fill="white"/>
<path d="M213.071 126.709C216.145 121.386 214.482 116.493 210.157 113.996C205.816 111.49 200.771 112.509 197.698 117.833C194.637 123.134 196.263 128.036 200.604 130.542C204.929 133.039 209.998 132.033 213.071 126.709ZM209.092 124.412C207.272 127.565 204.902 128.473 202.575 127.129C200.255 125.79 199.848 123.279 201.669 120.126C203.489 116.973 205.867 116.07 208.186 117.409C210.514 118.753 210.913 121.259 209.092 124.412Z" fill="white"/>
<rect x="107.52" y="35" width="21.94" height="21.94" rx="10.97" stroke="url(#paint8_linear_4573_9520)" stroke-width="1.18407"/>
<rect x="27.6172" y="82.7324" width="10.97" height="10.97" rx="5.485" stroke="url(#paint9_linear_4573_9520)" stroke-width="1.18407"/>
<rect x="0.592033" y="192.258" width="26.7259" height="26.7259" rx="13.363" stroke="url(#paint10_linear_4573_9520)" stroke-width="1.18407"/>
<rect x="201.389" y="0.660392" width="8.57692" height="9.57692" rx="4.28846" stroke="url(#paint11_linear_4573_9520)" stroke-width="1.18407"/>
<path d="M110.303 76.1445L93.8086 92.6391" stroke="url(#paint12_linear_4573_9520)" stroke-width="1.18407" stroke-linecap="round" stroke-linejoin="round"/>
<rect x="270.32" y="226.197" width="13.0247" height="13.0247" rx="6.51236" stroke="url(#paint13_linear_4573_9520)" stroke-width="1.18407"/>
<rect x="218" y="311.641" width="10.97" height="10.97" rx="5.485" stroke="url(#paint14_linear_4573_9520)" stroke-width="1.18407"/>
<rect x="300.641" y="49" width="10.97" height="10.97" rx="5.485" stroke="url(#paint15_linear_4573_9520)" stroke-width="1.18407"/>
<rect x="173.547" y="284.832" width="4.73626" height="4.73626" rx="2.36813" stroke="url(#paint16_linear_4573_9520)" stroke-width="1.18407"/>
<rect x="282.797" y="253.477" width="17.8107" height="17.8107" rx="8.90533" stroke="url(#paint17_linear_4573_9520)" stroke-width="1.18407"/>
<path d="M281.451 79.2031L264.957 95.6976" stroke="url(#paint18_linear_4573_9520)" stroke-width="1.18407" stroke-linecap="round" stroke-linejoin="round"/>
<path d="M264.957 79.1969L281.451 95.6914" stroke="url(#paint19_linear_4573_9520)" stroke-width="1.18407" stroke-linecap="round" stroke-linejoin="round"/>
<path d="M281.451 166.963L264.957 183.457" stroke="url(#paint20_linear_4573_9520)" stroke-width="1.18407" stroke-linecap="round" stroke-linejoin="round"/>
<path d="M225.4 244.314L208.906 260.809" stroke="url(#paint21_linear_4573_9520)" stroke-width="1.18407" stroke-linecap="round" stroke-linejoin="round"/>
<defs>
<linearGradient id="paint0_linear_4573_9520" x1="116.448" y1="191.386" x2="38.9802" y2="196.386" gradientUnits="userSpaceOnUse">
<stop stop-color="#0BF2F6"/>
<stop offset="1" stop-color="#9200FF" stop-opacity="0"/>
</linearGradient>
<linearGradient id="paint1_linear_4573_9520" x1="156.724" y1="214.641" x2="191.128" y2="284.23" gradientUnits="userSpaceOnUse">
<stop stop-color="#0BF2F6"/>
<stop offset="1" stop-color="#9200FF" stop-opacity="0"/>
</linearGradient>
<linearGradient id="paint2_linear_4573_9520" x1="91.034" y1="284.07" x2="64.8017" y2="324.207" gradientUnits="userSpaceOnUse">
<stop stop-color="#0BF2F6"/>
<stop offset="1" stop-color="#9200FF" stop-opacity="0"/>
</linearGradient>
<linearGradient id="paint3_linear_4573_9520" x1="82.1629" y1="261.361" x2="58.1695" y2="298.426" gradientUnits="userSpaceOnUse">
<stop stop-color="#0BF2F6"/>
<stop offset="1" stop-color="#9200FF" stop-opacity="0"/>
</linearGradient>
<linearGradient id="paint4_linear_4573_9520" x1="115.132" y1="280.396" x2="91.1382" y2="317.462" gradientUnits="userSpaceOnUse">
<stop stop-color="#0BF2F6"/>
<stop offset="1" stop-color="#9200FF" stop-opacity="0"/>
</linearGradient>
<linearGradient id="paint5_linear_4573_9520" x1="284.058" y1="60.4521" x2="78.1798" y2="35.4199" gradientUnits="userSpaceOnUse">
<stop stop-color="#0BF2F6"/>
<stop offset="1" stop-color="#9200FF" stop-opacity="0"/>
</linearGradient>
<linearGradient id="paint6_linear_4573_9520" x1="284.058" y1="60.4521" x2="78.1798" y2="35.4199" gradientUnits="userSpaceOnUse">
<stop stop-color="#0BF2F6"/>
<stop offset="1" stop-color="#9200FF" stop-opacity="0"/>
</linearGradient>
<linearGradient id="paint7_linear_4573_9520" x1="239.84" y1="78.7109" x2="211.512" y2="136.397" gradientUnits="userSpaceOnUse">
<stop stop-color="#0BF2F6"/>
<stop offset="1" stop-color="#9200FF"/>
</linearGradient>
<linearGradient id="paint8_linear_4573_9520" x1="129.46" y1="35" x2="107.52" y2="56.94" gradientUnits="userSpaceOnUse">
<stop stop-color="#0BF2F6"/>
<stop offset="1" stop-color="#9200FF" stop-opacity="0"/>
</linearGradient>
<linearGradient id="paint9_linear_4573_9520" x1="38.5872" y1="82.7324" x2="27.6172" y2="93.7024" gradientUnits="userSpaceOnUse">
<stop stop-color="#0BF2F6"/>
<stop offset="1" stop-color="#9200FF" stop-opacity="0"/>
</linearGradient>
<linearGradient id="paint10_linear_4573_9520" x1="27.91" y1="191.666" x2="0" y2="219.576" gradientUnits="userSpaceOnUse">
<stop stop-color="#0BF2F6"/>
<stop offset="1" stop-color="#9200FF" stop-opacity="0"/>
</linearGradient>
<linearGradient id="paint11_linear_4573_9520" x1="210.558" y1="0.0683594" x2="199.848" y2="9.78311" gradientUnits="userSpaceOnUse">
<stop stop-color="#0BF2F6"/>
<stop offset="1" stop-color="#9200FF" stop-opacity="0"/>
</linearGradient>
<linearGradient id="paint12_linear_4573_9520" x1="110.303" y1="76.1445" x2="93.8082" y2="92.6386" gradientUnits="userSpaceOnUse">
<stop stop-color="#0BF2F6"/>
<stop offset="1" stop-color="#9200FF" stop-opacity="0"/>
</linearGradient>
<linearGradient id="paint13_linear_4573_9520" x1="283.345" y1="226.197" x2="270.32" y2="239.222" gradientUnits="userSpaceOnUse">
<stop stop-color="#0BF2F6"/>
<stop offset="1" stop-color="#9200FF" stop-opacity="0"/>
</linearGradient>
<linearGradient id="paint14_linear_4573_9520" x1="228.97" y1="311.641" x2="218" y2="322.611" gradientUnits="userSpaceOnUse">
<stop stop-color="#0BF2F6"/>
<stop offset="1" stop-color="#9200FF" stop-opacity="0"/>
</linearGradient>
<linearGradient id="paint15_linear_4573_9520" x1="311.611" y1="49" x2="300.641" y2="59.97" gradientUnits="userSpaceOnUse">
<stop stop-color="#0BF2F6"/>
<stop offset="1" stop-color="#9200FF" stop-opacity="0"/>
</linearGradient>
<linearGradient id="paint16_linear_4573_9520" x1="178.283" y1="284.832" x2="173.547" y2="289.568" gradientUnits="userSpaceOnUse">
<stop stop-color="#0BF2F6"/>
<stop offset="1" stop-color="#9200FF" stop-opacity="0"/>
</linearGradient>
<linearGradient id="paint17_linear_4573_9520" x1="300.608" y1="253.477" x2="282.797" y2="271.287" gradientUnits="userSpaceOnUse">
<stop stop-color="#0BF2F6"/>
<stop offset="1" stop-color="#9200FF" stop-opacity="0"/>
</linearGradient>
<linearGradient id="paint18_linear_4573_9520" x1="281.451" y1="79.2031" x2="264.957" y2="95.6972" gradientUnits="userSpaceOnUse">
<stop stop-color="#0BF2F6"/>
<stop offset="1" stop-color="#9200FF" stop-opacity="0"/>
</linearGradient>
<linearGradient id="paint19_linear_4573_9520" x1="264.957" y1="79.1969" x2="281.452" y2="95.691" gradientUnits="userSpaceOnUse">
<stop stop-color="#0BF2F6"/>
<stop offset="1" stop-color="#9200FF" stop-opacity="0"/>
</linearGradient>
<linearGradient id="paint20_linear_4573_9520" x1="281.451" y1="166.963" x2="264.957" y2="183.457" gradientUnits="userSpaceOnUse">
<stop stop-color="#0BF2F6"/>
<stop offset="1" stop-color="#9200FF" stop-opacity="0"/>
</linearGradient>
<linearGradient id="paint21_linear_4573_9520" x1="225.4" y1="244.314" x2="208.906" y2="260.809" gradientUnits="userSpaceOnUse">
<stop stop-color="#0BF2F6"/>
<stop offset="1" stop-color="#9200FF" stop-opacity="0"/>
</linearGradient>
</defs>
</svg>
