<svg width="252" height="140" viewBox="0 0 252 140" fill="none" xmlns="http://www.w3.org/2000/svg">
<g clip-path="url(#clip0_3216_251)">
<path opacity="0.33" d="M198.979 106.217C198.979 104.207 197.349 102.577 195.339 102.577H182.902C181.937 102.577 181.011 102.961 180.328 103.643L52.7928 231.179C50.4988 233.472 52.1228 237.393 55.3668 237.393H80.2398C81.2048 237.393 82.1308 237.01 82.8138 236.327L197.913 121.228C198.596 120.545 198.979 119.619 198.979 118.654V106.217Z" fill="url(#paint0_linear_3216_251)"/>
<path opacity="0.33" d="M140.362 54.9294C140.362 52.9189 138.732 51.2891 136.722 51.2891H124.285C123.32 51.2891 122.394 51.6726 121.711 52.3553L-5.82497 179.891C-8.11817 182.184 -6.49396 186.105 -3.25086 186.105H21.6222C22.5877 186.105 23.5136 185.722 24.1963 185.039L139.296 69.94C139.978 69.2573 140.362 68.3314 140.362 67.3659V54.9294Z" fill="url(#paint1_linear_3216_251)"/>
<path opacity="0.33" d="M74.4197 84.237C74.4197 82.2265 72.7907 80.5967 70.7797 80.5967H58.3427C57.3777 80.5967 56.4517 80.9802 55.7687 81.6629L1.50323 135.929C-0.790074 138.222 0.834123 142.143 4.07732 142.143H28.9503C29.9158 142.143 30.8417 141.76 31.5244 141.077L73.3537 99.2476C74.0367 98.5649 74.4197 97.639 74.4197 96.6735V84.237Z" fill="url(#paint2_linear_3216_251)"/>
<path opacity="0.33" d="M89.0747 69.5827C89.0747 67.5722 87.4447 65.9424 85.4337 65.9424H72.9977C72.0317 65.9424 71.1057 66.3259 70.4237 67.0086L16.1575 121.275C13.8642 123.568 15.4884 127.489 18.7316 127.489H43.6046C44.5697 127.489 45.4957 127.105 46.1787 126.423L88.0077 84.5933C88.6907 83.9106 89.0747 82.9847 89.0747 82.0192V69.5827Z" fill="url(#paint3_linear_3216_251)"/>
<path opacity="0.33" d="M103.727 54.9294C103.727 52.9189 102.097 51.2891 100.087 51.2891H87.6498C86.6848 51.2891 85.7588 51.6726 85.0758 52.3553L30.8099 106.621C28.5166 108.914 30.1408 112.836 33.384 112.836H58.2568C59.2228 112.836 60.1488 112.452 60.8308 111.769L102.661 69.94C103.343 69.2573 103.727 68.3314 103.727 67.3659V54.9294Z" fill="url(#paint4_linear_3216_251)"/>
<path opacity="0.33" d="M198.979 69.5827C198.979 67.5722 197.349 65.9424 195.339 65.9424H182.902C181.937 65.9424 181.011 66.3259 180.328 67.0086L52.7928 194.544C50.4988 196.837 52.1228 200.759 55.3668 200.759H80.2398C81.2048 200.759 82.1308 200.375 82.8138 199.692L197.913 84.5933C198.596 83.9106 198.979 82.9847 198.979 82.0192V69.5827Z" fill="url(#paint5_linear_3216_251)"/>
<path opacity="0.33" d="M228.286 3.64032C228.286 1.62983 226.657 0 224.646 0H212.21C211.244 0 210.318 0.383529 209.635 1.06622L-49.7859 260.487C-52.0791 262.781 -50.4549 266.702 -47.2118 266.702H-22.3387C-21.3732 266.702 -20.4473 266.318 -19.7646 265.635L227.22 18.6509C227.903 17.9683 228.286 17.0423 228.286 16.0769V3.64032Z" fill="url(#paint6_linear_3216_251)"/>
<path fill-rule="evenodd" clip-rule="evenodd" d="M140.364 45.4268L134.5 51.2894L128.637 45.4268L122.777 51.2861L128.641 57.1499L122.777 63.0126L128.637 68.8731L134.5 63.0081L140.364 68.8731L146.224 63.0126L140.36 57.1499L146.224 51.2861L140.364 45.4268Z" fill="white"/>
<path opacity="0.5" fill-rule="evenodd" clip-rule="evenodd" d="M144.028 41.7637L138.165 47.6264L132.301 41.7637L126.441 47.623L132.305 53.4868L126.441 59.3495L132.301 65.21L138.165 59.3451L144.028 65.21L149.888 59.3495L144.024 53.4868L149.888 47.623L144.028 41.7637Z" fill="white"/>
<path opacity="0.1" fill-rule="evenodd" clip-rule="evenodd" d="M147.693 38.1006L141.829 43.9633L135.965 38.1006L130.105 43.9599L135.969 49.8237L130.105 55.6864L135.965 61.5469L141.829 55.682L147.693 61.5469L153.552 55.6864L147.688 49.8237L153.552 43.9599L147.693 38.1006Z" fill="white"/>
<path opacity="0.05" fill-rule="evenodd" clip-rule="evenodd" d="M149.89 35.9023L144.026 41.765L138.162 35.9023L132.303 41.7617L138.167 47.6255L132.303 53.4882L138.162 59.3486L144.026 53.4837L149.89 59.3486L155.749 53.4882L149.885 47.6255L155.749 41.7617L149.89 35.9023Z" fill="white"/>
<g opacity="0.5">
<path d="M204.437 13.1646L189.459 28.1427C187.766 29.8351 187.767 32.579 189.459 34.2714L193.695 38.5076C195.388 40.2 198.131 40.2001 199.824 38.5076L214.802 23.5296C216.494 21.8372 216.494 19.0933 214.802 17.4008L210.566 13.1646C208.873 11.4722 206.129 11.4722 204.437 13.1646Z" fill="url(#paint7_linear_3216_251)"/>
</g>
<g opacity="0.15">
<path d="M200.035 17.5689L185.057 32.547C183.364 34.2394 183.364 36.9833 185.057 38.6757L189.293 42.9119C190.985 44.6043 193.729 44.6043 195.422 42.9119L210.4 27.9339C212.092 26.2415 212.092 23.4976 210.4 21.8052L206.163 17.5689C204.471 15.8765 201.727 15.8765 200.035 17.5689Z" fill="url(#paint8_linear_3216_251)"/>
</g>
<g opacity="0.05">
<path d="M195.63 21.9722L180.652 36.9503C178.96 38.6427 178.96 41.3866 180.652 43.079L184.888 47.3153C186.581 49.0077 189.325 49.0077 191.017 47.3152L205.995 32.3372C207.688 30.6448 207.688 27.9009 205.995 26.2085L201.759 21.9722C200.067 20.2798 197.323 20.2798 195.63 21.9722Z" fill="url(#paint9_linear_3216_251)"/>
</g>
<path d="M209.515 8.16709L194.543 23.1388C192.85 24.8312 192.85 27.5751 194.543 29.2675L198.776 33.5006C200.468 35.193 203.212 35.193 204.905 33.5006L219.876 18.529C221.569 16.8365 221.569 14.0926 219.876 12.4002L215.643 8.1671C213.951 6.47469 211.207 6.47468 209.515 8.16709Z" fill="url(#paint10_linear_3216_251)"/>
<path d="M202.487 31.2897L203.788 29.9887L202.116 28.3171L202.999 27.434C204.232 26.2013 204.271 24.7005 203.154 23.5835C202.048 22.4769 200.536 22.4743 199.327 23.6833L197.104 25.9069L202.487 31.2897ZM201.091 27.292L199.454 25.6546L200.095 25.0133C200.678 24.4298 201.307 24.4324 201.806 24.9318C202.303 25.4285 202.316 26.0672 201.732 26.6507L201.091 27.292Z" fill="white"/>
<path d="M207.684 26.0907L208.985 24.7897L207.143 22.9472L207.81 22.2796L210.636 23.1391L212.055 21.7198L208.888 20.7868C209.211 19.9273 209.024 19.0573 208.281 18.3135C207.174 17.207 205.734 17.2753 204.525 18.4843L202.301 20.7079L207.684 26.0907ZM206.118 21.9222L204.651 20.4556L205.292 19.8143C205.876 19.2308 206.433 19.1624 206.932 19.6618C207.432 20.1612 207.342 20.6974 206.759 21.2809L206.118 21.9222Z" fill="white"/>
<path d="M215.343 13.0489C213.563 11.2695 211.453 11.4088 210.007 12.8544C208.556 14.3052 208.425 16.4079 210.204 18.1873C211.976 19.9587 214.086 19.8352 215.537 18.3844C216.983 16.9388 217.122 14.8283 215.343 13.0489ZM214.013 14.3788C215.067 15.4328 215.175 16.4657 214.397 17.2437C213.621 18.019 212.586 17.9139 211.532 16.8599C210.478 15.806 210.373 14.7704 211.148 13.9951C211.926 13.2171 212.959 13.3249 214.013 14.3788Z" fill="white"/>
<path d="M196.072 71.6209C196.072 70.0898 194.831 68.8486 193.3 68.8486C191.769 68.8486 190.527 70.0898 190.527 71.6209C190.527 73.152 191.769 74.3932 193.3 74.3932C194.831 74.3932 196.072 73.152 196.072 71.6209Z" stroke="white" stroke-width="2.10567"/>
<path d="M183.355 67.7957C183.355 66.9506 182.67 66.2656 181.825 66.2656C180.98 66.2656 180.295 66.9506 180.295 67.7957C180.295 68.6407 180.98 69.3257 181.825 69.3257C182.67 69.3257 183.355 68.6407 183.355 67.7957Z" fill="white"/>
<path d="M189.475 58.6152H189.475C188.63 58.6152 187.945 59.3003 187.945 60.1453C187.945 60.9903 188.63 61.6753 189.475 61.6753H189.475C190.32 61.6753 191.005 60.9903 191.005 60.1453C191.005 59.3003 190.32 58.6152 189.475 58.6152Z" fill="white"/>
<path d="M197.126 58.6152H197.126C196.281 58.6152 195.596 59.3003 195.596 60.1453C195.596 60.9903 196.281 61.6753 197.126 61.6753H197.126C197.971 61.6753 198.656 60.9903 198.656 60.1453C198.656 59.3003 197.971 58.6152 197.126 58.6152Z" fill="white"/>
<path d="M204.776 66.2656H204.776C203.931 66.2656 203.246 66.9506 203.246 67.7957C203.246 68.6407 203.931 69.3257 204.776 69.3257H204.776C205.621 69.3257 206.306 68.6407 206.306 67.7957C206.306 66.9506 205.621 66.2656 204.776 66.2656Z" fill="white"/>
<path d="M204.776 73.916H204.776C203.931 73.916 203.246 74.601 203.246 75.4461C203.246 76.2911 203.931 76.9761 204.776 76.9761H204.776C205.621 76.9761 206.306 76.2911 206.306 75.4461C206.306 74.601 205.621 73.916 204.776 73.916Z" fill="white"/>
<path d="M197.126 81.5664H197.126C196.281 81.5664 195.596 82.2514 195.596 83.0965C195.596 83.9415 196.281 84.6265 197.126 84.6265H197.126C197.971 84.6265 198.656 83.9415 198.656 83.0965C198.656 82.2514 197.971 81.5664 197.126 81.5664Z" fill="white"/>
<path d="M189.475 81.5664H189.475C188.63 81.5664 187.945 82.2514 187.945 83.0965C187.945 83.9415 188.63 84.6265 189.475 84.6265H189.475C190.32 84.6265 191.005 83.9415 191.005 83.0965C191.005 82.2514 190.32 81.5664 189.475 81.5664Z" fill="white"/>
<path d="M183.355 75.4461C183.355 74.601 182.67 73.916 181.825 73.916C180.98 73.916 180.295 74.601 180.295 75.4461C180.295 76.2911 180.98 76.9761 181.825 76.9761C182.67 76.9761 183.355 76.2911 183.355 75.4461Z" fill="white"/>
<path d="M184.886 80.8011C184.886 80.3786 184.543 80.0361 184.12 80.0361C183.698 80.0361 183.355 80.3786 183.355 80.8011C183.355 81.2237 183.698 81.5662 184.12 81.5662C184.543 81.5662 184.886 81.2237 184.886 80.8011Z" fill="white"/>
<path d="M203.245 62.4408C203.245 62.0183 202.902 61.6758 202.48 61.6758C202.057 61.6758 201.715 62.0183 201.715 62.4408C201.715 62.8633 202.057 63.2058 202.48 63.2058C202.902 63.2058 203.245 62.8633 203.245 62.4408Z" fill="white"/>
<path d="M203.245 80.8011C203.245 80.3786 202.902 80.0361 202.48 80.0361C202.057 80.0361 201.715 80.3786 201.715 80.8011C201.715 81.2237 202.057 81.5662 202.48 81.5662C202.902 81.5662 203.245 81.2237 203.245 80.8011Z" fill="white"/>
<path d="M184.886 62.4408C184.886 62.0183 184.543 61.6758 184.12 61.6758C183.698 61.6758 183.355 62.0183 183.355 62.4408C183.355 62.8633 183.698 63.2058 184.12 63.2058C184.543 63.2058 184.886 62.8633 184.886 62.4408Z" fill="white"/>
<path d="M194.543 63.9707C194.543 63.2847 193.987 62.7285 193.301 62.7285C192.615 62.7285 192.059 63.2847 192.059 63.9707C192.059 64.6568 192.615 65.213 193.301 65.213C193.987 65.213 194.543 64.6568 194.543 63.9707Z" stroke="white" stroke-width="2.10567"/>
<path d="M186.893 71.6202C186.893 70.9341 186.336 70.3779 185.65 70.3779C184.964 70.3779 184.408 70.9341 184.408 71.6202C184.408 72.3062 184.964 72.8624 185.65 72.8624C186.336 72.8624 186.893 72.3062 186.893 71.6202Z" stroke="white" stroke-width="2.10567"/>
<path d="M202.193 71.6202C202.193 70.9341 201.637 70.3779 200.951 70.3779C200.265 70.3779 199.709 70.9341 199.709 71.6202C199.709 72.3062 200.265 72.8624 200.951 72.8624C201.637 72.8624 202.193 72.3062 202.193 71.6202Z" stroke="white" stroke-width="2.10567"/>
<path d="M194.543 79.2705C194.543 78.5845 193.987 78.0283 193.301 78.0283C192.615 78.0283 192.059 78.5845 192.059 79.2705C192.059 79.9566 192.615 80.5128 193.301 80.5128C193.987 80.5128 194.543 79.9566 194.543 79.2705Z" stroke="white" stroke-width="2.10567"/>
<path d="M188.334 64.3535L186.033 66.6541" stroke="white" stroke-width="2.10567" stroke-linecap="round" stroke-linejoin="round"/>
<path d="M186.033 64.3525L188.334 66.6531" stroke="white" stroke-width="2.10567" stroke-linecap="round" stroke-linejoin="round"/>
<path d="M200.574 64.3535L198.273 66.6541" stroke="white" stroke-width="2.10567" stroke-linecap="round" stroke-linejoin="round"/>
<path d="M198.273 64.3525L200.574 66.6531" stroke="white" stroke-width="2.10567" stroke-linecap="round" stroke-linejoin="round"/>
<path d="M200.574 76.5947L198.273 78.8953" stroke="white" stroke-width="2.10567" stroke-linecap="round" stroke-linejoin="round"/>
<path d="M198.273 76.5938L200.574 78.8942" stroke="white" stroke-width="2.10567" stroke-linecap="round" stroke-linejoin="round"/>
<path d="M188.334 76.5947L186.033 78.8953" stroke="white" stroke-width="2.10567" stroke-linecap="round" stroke-linejoin="round"/>
<path d="M186.033 76.5938L188.334 78.8942" stroke="white" stroke-width="2.10567" stroke-linecap="round" stroke-linejoin="round"/>
<path d="M211.561 71.8047C211.561 61.6187 203.303 53.3613 193.117 53.3613C182.931 53.3613 174.674 61.6187 174.674 71.8047C174.674 81.9907 182.931 90.2481 193.117 90.2481C203.303 90.2481 211.561 81.9907 211.561 71.8047Z" stroke="url(#paint11_linear_3216_251)" stroke-width="1.21344"/>
<path d="M183.117 20.7101C183.117 16.9611 180.078 13.9219 176.329 13.9219C172.58 13.9219 169.541 16.9611 169.541 20.7101C169.541 24.4591 172.58 27.4983 176.329 27.4983C180.078 27.4983 183.117 24.4591 183.117 20.7101Z" stroke="url(#paint12_linear_3216_251)" stroke-width="1.21344"/>
<path d="M250.998 54.6515C250.998 50.9025 247.959 47.8633 244.21 47.8633C240.461 47.8633 237.422 50.9025 237.422 54.6515C237.422 58.4005 240.461 61.4397 244.21 61.4397C247.959 61.4397 250.998 58.4005 250.998 54.6515Z" stroke="url(#paint13_linear_3216_251)" stroke-width="1.21344"/>
<path d="M214.364 121.995C214.364 119.769 212.56 117.965 210.335 117.965C208.109 117.965 206.305 119.769 206.305 121.995V121.995C206.305 124.22 208.109 126.025 210.335 126.025C212.56 126.025 214.364 124.22 214.364 121.995V121.995Z" stroke="url(#paint14_linear_3216_251)" stroke-width="1.21344"/>
<path d="M152.57 108.957H152.57C150.695 108.957 149.176 110.477 149.176 112.351V112.351C149.176 114.226 150.695 115.745 152.57 115.745H152.57C154.444 115.745 155.964 114.226 155.964 112.351V112.351C155.964 110.477 154.444 108.957 152.57 108.957Z" stroke="url(#paint15_linear_3216_251)" stroke-width="1.21344"/>
<path d="M237.423 30.8921C237.423 29.0176 235.903 27.498 234.029 27.498C232.154 27.498 230.635 29.0176 230.635 30.8921V30.8922C230.635 32.7667 232.154 34.2863 234.029 34.2863C235.903 34.2863 237.423 32.7667 237.423 30.8922V30.8921Z" stroke="url(#paint16_linear_3216_251)" stroke-width="1.21344"/>
<path d="M128.122 22.1002C128.122 20.2256 126.603 18.7061 124.728 18.7061C122.854 18.7061 121.334 20.2256 121.334 22.1002V22.1002C121.334 23.9747 122.854 25.4943 124.728 25.4943C126.603 25.4943 128.122 23.9747 128.122 22.1002V22.1002Z" stroke="url(#paint17_linear_3216_251)" stroke-width="1.21344"/>
<path d="M131.753 86.7207H131.753C126.465 86.7207 122.178 91.0078 122.178 96.2963V96.2963C122.178 101.585 126.465 105.872 131.753 105.872H131.753C137.042 105.872 141.329 101.585 141.329 96.2963V96.2963C141.329 91.0078 137.042 86.7207 131.753 86.7207Z" stroke="url(#paint18_linear_3216_251)" stroke-width="1.21344"/>
<path d="M232.076 71.4383C232.076 68.7385 229.887 66.5498 227.187 66.5498C224.487 66.5498 222.299 68.7385 222.299 71.4383C222.299 74.1382 224.487 76.3268 227.187 76.3268C229.887 76.3268 232.076 74.1382 232.076 71.4383Z" stroke="url(#paint19_linear_3216_251)" stroke-width="1.21344"/>
<path d="M171.261 39.3809L161.055 49.5876" stroke="url(#paint20_linear_3216_251)" stroke-width="1.21344" stroke-linecap="round" stroke-linejoin="round"/>
<path d="M225.568 39.3818L215.361 49.5886" stroke="url(#paint21_linear_3216_251)" stroke-width="1.21344" stroke-linecap="round" stroke-linejoin="round"/>
<path d="M215.361 39.3779L225.568 49.5847" stroke="url(#paint22_linear_3216_251)" stroke-width="1.21344" stroke-linecap="round" stroke-linejoin="round"/>
<path d="M225.568 93.6875L215.361 103.894" stroke="url(#paint23_linear_3216_251)" stroke-width="1.21344" stroke-linecap="round" stroke-linejoin="round"/>
<path d="M59.9785 65.8447L49.7715 76.0515" stroke="url(#paint24_linear_3216_251)" stroke-width="1.21344" stroke-linecap="round" stroke-linejoin="round"/>
<path d="M171.261 93.6865L161.055 103.893" stroke="url(#paint25_linear_3216_251)" stroke-width="1.21344" stroke-linecap="round" stroke-linejoin="round"/>
<path d="M161.055 93.6836L171.261 103.891" stroke="url(#paint26_linear_3216_251)" stroke-width="1.21344" stroke-linecap="round" stroke-linejoin="round"/>
</g>
<defs>
<linearGradient id="paint0_linear_3216_251" x1="198.979" y1="102.577" x2="64.1628" y2="237.393" gradientUnits="userSpaceOnUse">
<stop stop-color="#0BF2F6"/>
<stop offset="1" stop-color="#0BF2F6" stop-opacity="0"/>
</linearGradient>
<linearGradient id="paint1_linear_3216_251" x1="140.362" y1="51.2891" x2="5.54544" y2="186.105" gradientUnits="userSpaceOnUse">
<stop stop-color="#0BF2F6"/>
<stop offset="1" stop-color="#0BF2F6" stop-opacity="0"/>
</linearGradient>
<linearGradient id="paint2_linear_3216_251" x1="74.4197" y1="80.5967" x2="29.624" y2="142.005" gradientUnits="userSpaceOnUse">
<stop stop-color="#9200FF"/>
<stop offset="1" stop-color="#0BF2F6" stop-opacity="0"/>
</linearGradient>
<linearGradient id="paint3_linear_3216_251" x1="89.0747" y1="65.9424" x2="44.2787" y2="127.351" gradientUnits="userSpaceOnUse">
<stop stop-color="#9200FF"/>
<stop offset="1" stop-color="#0BF2F6" stop-opacity="0"/>
</linearGradient>
<linearGradient id="paint4_linear_3216_251" x1="103.727" y1="51.2891" x2="58.9308" y2="112.697" gradientUnits="userSpaceOnUse">
<stop stop-color="#9200FF"/>
<stop offset="1" stop-color="#0BF2F6" stop-opacity="0"/>
</linearGradient>
<linearGradient id="paint5_linear_3216_251" x1="198.979" y1="65.9424" x2="64.1628" y2="200.759" gradientUnits="userSpaceOnUse">
<stop offset="0.0260417" stop-color="#0BF2F6" stop-opacity="0"/>
<stop offset="0.0677083" stop-color="#0BF2F6"/>
<stop offset="1" stop-color="#0BF2F6" stop-opacity="0"/>
</linearGradient>
<linearGradient id="paint6_linear_3216_251" x1="228.286" y1="-1.3697e-05" x2="26.0908" y2="229.798" gradientUnits="userSpaceOnUse">
<stop stop-color="#9200FF"/>
<stop offset="1" stop-color="#0BF2F6" stop-opacity="0"/>
</linearGradient>
<linearGradient id="paint7_linear_3216_251" x1="207.501" y1="10.1006" x2="216.001" y2="35.0045" gradientUnits="userSpaceOnUse">
<stop stop-color="#0BF2F6"/>
<stop offset="1" stop-color="#9200FF"/>
</linearGradient>
<linearGradient id="paint8_linear_3216_251" x1="203.099" y1="14.5042" x2="211.599" y2="39.4089" gradientUnits="userSpaceOnUse">
<stop stop-color="#0BF2F6"/>
<stop offset="1" stop-color="#9200FF"/>
</linearGradient>
<linearGradient id="paint9_linear_3216_251" x1="198.694" y1="18.9082" x2="207.195" y2="43.8122" gradientUnits="userSpaceOnUse">
<stop stop-color="#0BF2F6"/>
<stop offset="1" stop-color="#9200FF"/>
</linearGradient>
<linearGradient id="paint10_linear_3216_251" x1="212.579" y1="5.10307" x2="221.076" y2="29.9999" gradientUnits="userSpaceOnUse">
<stop stop-color="#0BF2F6"/>
<stop offset="1" stop-color="#9200FF"/>
</linearGradient>
<linearGradient id="paint11_linear_3216_251" x1="212.168" y1="52.7546" x2="174.067" y2="90.8548" gradientUnits="userSpaceOnUse">
<stop stop-color="#0BF2F6"/>
<stop offset="1" stop-color="#9200FF" stop-opacity="0"/>
</linearGradient>
<linearGradient id="paint12_linear_3216_251" x1="183.117" y1="13.9219" x2="169.541" y2="27.4983" gradientUnits="userSpaceOnUse">
<stop stop-color="#0BF2F6"/>
<stop offset="1" stop-color="#9200FF" stop-opacity="0"/>
</linearGradient>
<linearGradient id="paint13_linear_3216_251" x1="250.998" y1="47.8633" x2="237.422" y2="61.4397" gradientUnits="userSpaceOnUse">
<stop stop-color="#0BF2F6"/>
<stop offset="1" stop-color="#9200FF" stop-opacity="0"/>
</linearGradient>
<linearGradient id="paint14_linear_3216_251" x1="214.364" y1="117.965" x2="206.305" y2="126.025" gradientUnits="userSpaceOnUse">
<stop stop-color="#0BF2F6"/>
<stop offset="1" stop-color="#9200FF" stop-opacity="0"/>
</linearGradient>
<linearGradient id="paint15_linear_3216_251" x1="155.964" y1="108.957" x2="149.176" y2="115.745" gradientUnits="userSpaceOnUse">
<stop stop-color="#0BF2F6"/>
<stop offset="1" stop-color="#9200FF" stop-opacity="0"/>
</linearGradient>
<linearGradient id="paint16_linear_3216_251" x1="237.423" y1="27.498" x2="230.635" y2="34.2863" gradientUnits="userSpaceOnUse">
<stop stop-color="#0BF2F6"/>
<stop offset="1" stop-color="#9200FF" stop-opacity="0"/>
</linearGradient>
<linearGradient id="paint17_linear_3216_251" x1="128.122" y1="18.7061" x2="121.334" y2="25.4943" gradientUnits="userSpaceOnUse">
<stop stop-color="#0BF2F6"/>
<stop offset="1" stop-color="#9200FF" stop-opacity="0"/>
</linearGradient>
<linearGradient id="paint18_linear_3216_251" x1="141.936" y1="86.114" x2="121.571" y2="106.479" gradientUnits="userSpaceOnUse">
<stop stop-color="#0BF2F6"/>
<stop offset="1" stop-color="#9200FF" stop-opacity="0"/>
</linearGradient>
<linearGradient id="paint19_linear_3216_251" x1="232.683" y1="65.9431" x2="221.692" y2="76.9335" gradientUnits="userSpaceOnUse">
<stop stop-color="#0BF2F6"/>
<stop offset="1" stop-color="#9200FF" stop-opacity="0"/>
</linearGradient>
<linearGradient id="paint20_linear_3216_251" x1="171.261" y1="39.3809" x2="161.054" y2="49.5874" gradientUnits="userSpaceOnUse">
<stop stop-color="#0BF2F6"/>
<stop offset="1" stop-color="#9200FF" stop-opacity="0"/>
</linearGradient>
<linearGradient id="paint21_linear_3216_251" x1="225.568" y1="39.3818" x2="215.361" y2="49.5883" gradientUnits="userSpaceOnUse">
<stop stop-color="#0BF2F6"/>
<stop offset="1" stop-color="#9200FF" stop-opacity="0"/>
</linearGradient>
<linearGradient id="paint22_linear_3216_251" x1="215.361" y1="39.3779" x2="225.568" y2="49.5844" gradientUnits="userSpaceOnUse">
<stop stop-color="#0BF2F6"/>
<stop offset="1" stop-color="#9200FF" stop-opacity="0"/>
</linearGradient>
<linearGradient id="paint23_linear_3216_251" x1="225.568" y1="93.6875" x2="215.361" y2="103.894" gradientUnits="userSpaceOnUse">
<stop stop-color="#0BF2F6"/>
<stop offset="1" stop-color="#9200FF" stop-opacity="0"/>
</linearGradient>
<linearGradient id="paint24_linear_3216_251" x1="59.9785" y1="65.8447" x2="49.7715" y2="76.0512" gradientUnits="userSpaceOnUse">
<stop stop-color="#0BF2F6"/>
<stop offset="1" stop-color="#9200FF" stop-opacity="0"/>
</linearGradient>
<linearGradient id="paint25_linear_3216_251" x1="171.261" y1="93.6865" x2="161.054" y2="103.893" gradientUnits="userSpaceOnUse">
<stop stop-color="#0BF2F6"/>
<stop offset="1" stop-color="#9200FF" stop-opacity="0"/>
</linearGradient>
<linearGradient id="paint26_linear_3216_251" x1="161.055" y1="93.6836" x2="171.261" y2="103.89" gradientUnits="userSpaceOnUse">
<stop stop-color="#0BF2F6"/>
<stop offset="1" stop-color="#9200FF" stop-opacity="0"/>
</linearGradient>
<clipPath id="clip0_3216_251">
<rect width="252" height="140" fill="white"/>
</clipPath>
</defs>
</svg>
