<svg width="101" height="36" viewBox="0 0 101 36" fill="none" xmlns="http://www.w3.org/2000/svg">
<path d="M0 2.5C0 1.11929 1.11929 0 2.5 0H98.2037C99.5844 0 100.704 1.11929 100.704 2.5V33.5C100.704 34.8807 99.5844 36 98.2037 36H2.5C1.11929 36 0 34.8807 0 33.5V2.5Z" fill="#ACFF35"/>
<rect x="33" y="4" width="1" height="28" rx="0.5" fill="black"/>
<path d="M46.049 6.77344H44.4936C44.4652 6.57221 44.4072 6.39347 44.3196 6.23722C44.232 6.0786 44.1196 5.94366 43.9822 5.83239C43.8449 5.72112 43.6863 5.63589 43.5064 5.5767C43.3288 5.51752 43.1359 5.48793 42.9276 5.48793C42.5511 5.48793 42.2232 5.58144 41.9439 5.76847C41.6645 5.95312 41.4479 6.22301 41.294 6.57812C41.1402 6.93087 41.0632 7.35937 41.0632 7.86364C41.0632 8.3821 41.1402 8.81771 41.294 9.17045C41.4503 9.5232 41.6681 9.78954 41.9474 9.96946C42.2268 10.1494 42.55 10.2393 42.9169 10.2393C43.1229 10.2393 43.3134 10.2121 43.4886 10.1577C43.6662 10.1032 43.8236 10.0239 43.9609 9.91974C44.0982 9.81321 44.2119 9.68419 44.3018 9.53267C44.3942 9.38116 44.4581 9.20833 44.4936 9.0142L46.049 9.02131C46.0088 9.35511 45.9081 9.67708 45.7472 9.98722C45.5885 10.295 45.3743 10.5708 45.1044 10.8146C44.8369 11.0561 44.5173 11.2479 44.1456 11.3899C43.7763 11.5296 43.3584 11.5994 42.892 11.5994C42.2434 11.5994 41.6634 11.4527 41.152 11.1591C40.643 10.8655 40.2405 10.4406 39.9446 9.88423C39.651 9.32789 39.5043 8.65436 39.5043 7.86364C39.5043 7.07055 39.6534 6.39583 39.9517 5.83949C40.25 5.28314 40.6548 4.85937 41.1662 4.56818C41.6776 4.27462 42.2528 4.12784 42.892 4.12784C43.3134 4.12784 43.7041 4.18703 44.0639 4.3054C44.4261 4.42377 44.7469 4.59659 45.0263 4.82386C45.3056 5.04877 45.5329 5.32457 45.7081 5.65128C45.8857 5.97798 45.9993 6.35204 46.049 6.77344ZM49.5877 11.6065C49.0361 11.6065 48.5591 11.4893 48.1566 11.255C47.7565 11.0182 47.4476 10.6892 47.2298 10.2678C47.012 9.84399 46.9031 9.35275 46.9031 8.79403C46.9031 8.23059 47.012 7.73816 47.2298 7.31676C47.4476 6.89299 47.7565 6.56392 48.1566 6.32955C48.5591 6.0928 49.0361 5.97443 49.5877 5.97443C50.1393 5.97443 50.6152 6.0928 51.0153 6.32955C51.4177 6.56392 51.7279 6.89299 51.9457 7.31676C52.1635 7.73816 52.2724 8.23059 52.2724 8.79403C52.2724 9.35275 52.1635 9.84399 51.9457 10.2678C51.7279 10.6892 51.4177 11.0182 51.0153 11.255C50.6152 11.4893 50.1393 11.6065 49.5877 11.6065ZM49.5948 10.4347C49.8458 10.4347 50.0553 10.3636 50.2234 10.2216C50.3915 10.0772 50.5181 9.88068 50.6033 9.6321C50.6909 9.38352 50.7347 9.10062 50.7347 8.78338C50.7347 8.46615 50.6909 8.18324 50.6033 7.93466C50.5181 7.68608 50.3915 7.48958 50.2234 7.34517C50.0553 7.20076 49.8458 7.12855 49.5948 7.12855C49.3415 7.12855 49.1284 7.20076 48.9556 7.34517C48.7852 7.48958 48.6561 7.68608 48.5685 7.93466C48.4833 8.18324 48.4407 8.46615 48.4407 8.78338C48.4407 9.10062 48.4833 9.38352 48.5685 9.6321C48.6561 9.88068 48.7852 10.0772 48.9556 10.2216C49.1284 10.3636 49.3415 10.4347 49.5948 10.4347ZM53.256 11.5V6.04545H54.6978V7.00781H54.7617C54.8754 6.68821 55.0647 6.43608 55.3299 6.25142C55.5951 6.06676 55.9123 5.97443 56.2816 5.97443C56.6557 5.97443 56.9741 6.06795 57.2369 6.25497C57.4996 6.43963 57.6748 6.69058 57.7624 7.00781H57.8192C57.9305 6.69531 58.1317 6.44555 58.4229 6.25852C58.7165 6.06913 59.0633 5.97443 59.4634 5.97443C59.9724 5.97443 60.3855 6.1366 60.7028 6.46094C61.0224 6.78291 61.1822 7.23982 61.1822 7.83168V11.5H59.6729V8.12997C59.6729 7.82694 59.5924 7.59967 59.4315 7.44815C59.2705 7.29664 59.0692 7.22088 58.8278 7.22088C58.5531 7.22088 58.3389 7.30848 58.185 7.48366C58.0311 7.65649 57.9542 7.88494 57.9542 8.16903V11.5H56.4876V8.09801C56.4876 7.83049 56.4106 7.61742 56.2567 7.45881C56.1052 7.30019 55.9052 7.22088 55.6566 7.22088C55.4885 7.22088 55.337 7.26349 55.2021 7.34872C55.0695 7.43158 54.9641 7.54877 54.886 7.70028C54.8079 7.84943 54.7688 8.02462 54.7688 8.22585V11.5H53.256ZM62.3771 11.5V6.04545H63.8189V7.00781H63.8828C63.9964 6.68821 64.1858 6.43608 64.451 6.25142C64.7161 6.06676 65.0334 5.97443 65.4027 5.97443C65.7768 5.97443 66.0952 6.06795 66.358 6.25497C66.6207 6.43963 66.7959 6.69058 66.8835 7.00781H66.9403C67.0516 6.69531 67.2528 6.44555 67.544 6.25852C67.8376 6.06913 68.1844 5.97443 68.5845 5.97443C69.0935 5.97443 69.5066 6.1366 69.8239 6.46094C70.1435 6.78291 70.3033 7.23982 70.3033 7.83168V11.5H68.794V8.12997C68.794 7.82694 68.7135 7.59967 68.5526 7.44815C68.3916 7.29664 68.1903 7.22088 67.9489 7.22088C67.6742 7.22088 67.46 7.30848 67.3061 7.48366C67.1522 7.65649 67.0753 7.88494 67.0753 8.16903V11.5H65.6087V8.09801C65.6087 7.83049 65.5317 7.61742 65.3778 7.45881C65.2263 7.30019 65.0263 7.22088 64.7777 7.22088C64.6096 7.22088 64.4581 7.26349 64.3232 7.34872C64.1906 7.43158 64.0852 7.54877 64.0071 7.70028C63.929 7.84943 63.8899 8.02462 63.8899 8.22585V11.5H62.3771ZM74.9961 9.17756V6.04545H76.5089V11.5H75.0565V10.5092H74.9996C74.8765 10.8288 74.6718 11.0857 74.3853 11.2798C74.1012 11.474 73.7544 11.571 73.3448 11.571C72.9802 11.571 72.6594 11.4882 72.3825 11.3224C72.1055 11.1567 71.8888 10.9212 71.7326 10.6158C71.5787 10.3104 71.5006 9.9446 71.4982 9.51847V6.04545H73.011V9.24858C73.0134 9.57055 73.0998 9.82505 73.2702 10.0121C73.4407 10.1991 73.6692 10.2926 73.9556 10.2926C74.1379 10.2926 74.3084 10.2512 74.467 10.1683C74.6256 10.0831 74.7534 9.95762 74.8505 9.7919C74.9499 9.62618 74.9985 9.4214 74.9961 9.17756ZM79.2317 8.34659V11.5H77.7189V6.04545H79.1607V7.00781H79.2246C79.3453 6.69058 79.5478 6.43963 79.8319 6.25497C80.1159 6.06795 80.4604 5.97443 80.8652 5.97443C81.244 5.97443 81.5743 6.05729 81.856 6.22301C82.1377 6.38873 82.3567 6.62547 82.513 6.93324C82.6692 7.23864 82.7473 7.60322 82.7473 8.02699V11.5H81.2346V8.29688C81.2369 7.96307 81.1517 7.70265 80.9789 7.51562C80.806 7.32623 80.5681 7.23153 80.2651 7.23153C80.0615 7.23153 79.8816 7.27533 79.7253 7.36293C79.5714 7.45052 79.4507 7.57836 79.3631 7.74645C79.2779 7.91217 79.2341 8.11222 79.2317 8.34659ZM83.9396 11.5V6.04545H85.4524V11.5H83.9396ZM84.6996 5.34233C84.4747 5.34233 84.2817 5.26776 84.1207 5.11861C83.9621 4.96709 83.8828 4.78598 83.8828 4.57528C83.8828 4.36695 83.9621 4.18821 84.1207 4.03906C84.2817 3.88755 84.4747 3.81179 84.6996 3.81179C84.9245 3.81179 85.1162 3.88755 85.2749 4.03906C85.4358 4.18821 85.5163 4.36695 85.5163 4.57528C85.5163 4.78598 85.4358 4.96709 85.2749 5.11861C85.1162 5.26776 84.9245 5.34233 84.6996 5.34233ZM89.5655 6.04545V7.18182H86.2807V6.04545H89.5655ZM87.0265 4.73864H88.5392V9.82386C88.5392 9.96354 88.5605 10.0724 88.6032 10.1506C88.6458 10.2263 88.705 10.2796 88.7807 10.3104C88.8588 10.3411 88.9488 10.3565 89.0506 10.3565C89.1216 10.3565 89.1926 10.3506 89.2637 10.3388C89.3347 10.3246 89.3891 10.3139 89.427 10.3068L89.665 11.4325C89.5892 11.4562 89.4827 11.4834 89.3453 11.5142C89.208 11.5473 89.0411 11.5675 88.8446 11.5746C88.4801 11.5888 88.1605 11.5402 87.8858 11.429C87.6136 11.3177 87.4017 11.1449 87.2502 10.9105C87.0987 10.6761 87.0241 10.3802 87.0265 10.0227V4.73864ZM91.4849 13.5455C91.2931 13.5455 91.1132 13.5301 90.9451 13.4993C90.7794 13.4709 90.6421 13.4342 90.5332 13.3892L90.8741 12.2599C91.0517 12.3144 91.2115 12.344 91.3535 12.3487C91.4979 12.3535 91.6222 12.3203 91.7264 12.2493C91.8329 12.1783 91.9193 12.0575 91.9856 11.8871L92.0744 11.6562L90.1177 6.04545H91.7086L92.8379 10.0511H92.8947L94.0346 6.04545H95.6362L93.5162 12.0895C93.4144 12.383 93.2759 12.6387 93.1007 12.8565C92.9279 13.0767 92.7089 13.246 92.4437 13.3643C92.1786 13.4851 91.859 13.5455 91.4849 13.5455ZM46.049 16.7734H44.4936C44.4652 16.5722 44.4072 16.3935 44.3196 16.2372C44.232 16.0786 44.1196 15.9437 43.9822 15.8324C43.8449 15.7211 43.6863 15.6359 43.5064 15.5767C43.3288 15.5175 43.1359 15.4879 42.9276 15.4879C42.5511 15.4879 42.2232 15.5814 41.9439 15.7685C41.6645 15.9531 41.4479 16.223 41.294 16.5781C41.1402 16.9309 41.0632 17.3594 41.0632 17.8636C41.0632 18.3821 41.1402 18.8177 41.294 19.1705C41.4503 19.5232 41.6681 19.7895 41.9474 19.9695C42.2268 20.1494 42.55 20.2393 42.9169 20.2393C43.1229 20.2393 43.3134 20.2121 43.4886 20.1577C43.6662 20.1032 43.8236 20.0239 43.9609 19.9197C44.0982 19.8132 44.2119 19.6842 44.3018 19.5327C44.3942 19.3812 44.4581 19.2083 44.4936 19.0142L46.049 19.0213C46.0088 19.3551 45.9081 19.6771 45.7472 19.9872C45.5885 20.295 45.3743 20.5708 45.1044 20.8146C44.8369 21.0561 44.5173 21.2479 44.1456 21.3899C43.7763 21.5296 43.3584 21.5994 42.892 21.5994C42.2434 21.5994 41.6634 21.4527 41.152 21.1591C40.643 20.8655 40.2405 20.4406 39.9446 19.8842C39.651 19.3279 39.5043 18.6544 39.5043 17.8636C39.5043 17.0705 39.6534 16.3958 39.9517 15.8395C40.25 15.2831 40.6548 14.8594 41.1662 14.5682C41.6776 14.2746 42.2528 14.1278 42.892 14.1278C43.3134 14.1278 43.7041 14.187 44.0639 14.3054C44.4261 14.4238 44.7469 14.5966 45.0263 14.8239C45.3056 15.0488 45.5329 15.3246 45.7081 15.6513C45.8857 15.978 45.9993 16.352 46.049 16.7734ZM48.636 18.3466V21.5H47.1232V14.2273H48.5934V17.0078H48.6573C48.7804 16.6858 48.9793 16.4337 49.2539 16.2514C49.5285 16.0668 49.873 15.9744 50.2873 15.9744C50.6661 15.9744 50.9963 16.0573 51.2781 16.223C51.5621 16.3864 51.7823 16.6219 51.9386 16.9297C52.0972 17.2351 52.1753 17.6009 52.1729 18.027V21.5H50.6602V18.2969C50.6625 17.9607 50.5773 17.6991 50.4045 17.5121C50.234 17.325 49.9949 17.2315 49.6871 17.2315C49.4812 17.2315 49.2989 17.2753 49.1403 17.3629C48.984 17.4505 48.8609 17.5784 48.771 17.7464C48.6834 17.9122 48.6384 18.1122 48.636 18.3466ZM55.8279 21.6065C55.2763 21.6065 54.7993 21.4893 54.3968 21.255C53.9967 21.0182 53.6878 20.6892 53.47 20.2678C53.2522 19.844 53.1433 19.3527 53.1433 18.794C53.1433 18.2306 53.2522 17.7382 53.47 17.3168C53.6878 16.893 53.9967 16.5639 54.3968 16.3295C54.7993 16.0928 55.2763 15.9744 55.8279 15.9744C56.3796 15.9744 56.8554 16.0928 57.2555 16.3295C57.658 16.5639 57.9681 16.893 58.1859 17.3168C58.4037 17.7382 58.5126 18.2306 58.5126 18.794C58.5126 19.3527 58.4037 19.844 58.1859 20.2678C57.9681 20.6892 57.658 21.0182 57.2555 21.255C56.8554 21.4893 56.3796 21.6065 55.8279 21.6065ZM55.835 20.4347C56.086 20.4347 56.2955 20.3636 56.4636 20.2216C56.6317 20.0772 56.7583 19.8807 56.8436 19.6321C56.9312 19.3835 56.975 19.1006 56.975 18.7834C56.975 18.4661 56.9312 18.1832 56.8436 17.9347C56.7583 17.6861 56.6317 17.4896 56.4636 17.3452C56.2955 17.2008 56.086 17.1286 55.835 17.1286C55.5817 17.1286 55.3687 17.2008 55.1958 17.3452C55.0254 17.4896 54.8964 17.6861 54.8088 17.9347C54.7235 18.1832 54.6809 18.4661 54.6809 18.7834C54.6809 19.1006 54.7235 19.3835 54.8088 19.6321C54.8964 19.8807 55.0254 20.0772 55.1958 20.2216C55.3687 20.3636 55.5817 20.4347 55.835 20.4347ZM59.4963 21.5V16.0455H61.0091V21.5H59.4963ZM60.2562 15.3423C60.0313 15.3423 59.8384 15.2678 59.6774 15.1186C59.5188 14.9671 59.4395 14.786 59.4395 14.5753C59.4395 14.367 59.5188 14.1882 59.6774 14.0391C59.8384 13.8875 60.0313 13.8118 60.2562 13.8118C60.4811 13.8118 60.6729 13.8875 60.8315 14.0391C60.9925 14.1882 61.073 14.367 61.073 14.5753C61.073 14.786 60.9925 14.9671 60.8315 15.1186C60.6729 15.2678 60.4811 15.3423 60.2562 15.3423ZM64.6854 21.6065C64.1267 21.6065 63.6461 21.4882 63.2436 21.2514C62.8435 21.0123 62.5357 20.6809 62.3203 20.2571C62.1072 19.8333 62.0007 19.3456 62.0007 18.794C62.0007 18.2353 62.1084 17.7453 62.3239 17.3239C62.5417 16.9001 62.8506 16.5698 63.2507 16.3331C63.6508 16.094 64.1267 15.9744 64.6783 15.9744C65.1541 15.9744 65.5708 16.0608 65.9283 16.2337C66.2857 16.4065 66.5687 16.6491 66.777 16.9616C66.9853 17.2741 67.1001 17.6411 67.1214 18.0625H65.6939C65.6536 17.7902 65.5471 17.5713 65.3743 17.4055C65.2038 17.2375 64.9801 17.1534 64.7031 17.1534C64.4688 17.1534 64.264 17.2173 64.0888 17.3452C63.916 17.4706 63.781 17.6541 63.6839 17.8956C63.5869 18.1371 63.5384 18.4295 63.5384 18.7727C63.5384 19.1207 63.5857 19.4167 63.6804 19.6605C63.7775 19.9044 63.9136 20.0902 64.0888 20.218C64.264 20.3459 64.4688 20.4098 64.7031 20.4098C64.8759 20.4098 65.031 20.3743 65.1683 20.3033C65.308 20.2322 65.4228 20.1293 65.5128 19.9943C65.6051 19.857 65.6655 19.6925 65.6939 19.5007H67.1214C67.0978 19.9174 66.9841 20.2843 66.7805 20.6016C66.5793 20.9164 66.3011 21.1626 65.946 21.3402C65.5909 21.5178 65.1707 21.6065 64.6854 21.6065ZM70.5758 21.6065C70.0147 21.6065 69.5318 21.4929 69.127 21.2656C68.7245 21.036 68.4144 20.7116 68.1966 20.2926C67.9788 19.8712 67.8699 19.3729 67.8699 18.7976C67.8699 18.2365 67.9788 17.7441 68.1966 17.3203C68.4144 16.8965 68.7209 16.5663 69.1163 16.3295C69.514 16.0928 69.9804 15.9744 70.5154 15.9744C70.8753 15.9744 71.2103 16.0324 71.5204 16.1484C71.8329 16.2621 72.1052 16.4337 72.3372 16.6634C72.5716 16.893 72.7538 17.1818 72.8841 17.5298C73.0143 17.8755 73.0794 18.2803 73.0794 18.7443V19.1598H68.4735V18.2223H71.6554C71.6554 18.0045 71.608 17.8116 71.5133 17.6435C71.4186 17.4754 71.2872 17.344 71.1191 17.2493C70.9534 17.1522 70.7605 17.1037 70.5403 17.1037C70.3107 17.1037 70.1071 17.157 69.9295 17.2635C69.7543 17.3677 69.617 17.5085 69.5176 17.6861C69.4181 17.8613 69.3672 18.0566 69.3649 18.272V19.1634C69.3649 19.4332 69.4146 19.6664 69.514 19.8629C69.6158 20.0594 69.7591 20.2109 69.9437 20.3175C70.1284 20.424 70.3474 20.4773 70.6007 20.4773C70.7688 20.4773 70.9226 20.4536 71.0623 20.4062C71.202 20.3589 71.3216 20.2879 71.421 20.1932C71.5204 20.0985 71.5962 19.9825 71.6483 19.8452L73.0474 19.9375C72.9764 20.2737 72.8308 20.5672 72.6106 20.8182C72.3928 21.0668 72.1111 21.2609 71.7654 21.4006C71.4222 21.5379 71.0256 21.6065 70.5758 21.6065ZM40.4134 31.5H39.2486L41.8658 24.2273H43.1335L45.7507 31.5H44.5859L42.5298 25.5483H42.473L40.4134 31.5ZM40.6087 28.652H44.3871V29.5753H40.6087V28.652ZM47.2147 31.5L45.6096 26.0455H46.7069L47.7757 30.0511H47.829L48.9015 26.0455H49.9988L51.0641 30.0334H51.1174L52.1792 26.0455H53.2765L51.6749 31.5H50.5918L49.4838 27.5618H49.4022L48.2942 31.5H47.2147ZM55.8714 31.6207C55.5258 31.6207 55.2133 31.5568 54.9339 31.429C54.6546 31.2988 54.4332 31.1106 54.2699 30.8643C54.1089 30.6181 54.0284 30.3163 54.0284 29.9588C54.0284 29.651 54.0876 29.3977 54.206 29.1989C54.3243 29 54.4841 28.8426 54.6854 28.7266C54.8866 28.6106 55.1115 28.523 55.3601 28.4638C55.6087 28.4046 55.862 28.3596 56.12 28.3288C56.4467 28.291 56.7119 28.2602 56.9155 28.2365C57.1191 28.2105 57.267 28.169 57.3594 28.1122C57.4517 28.0554 57.4979 27.9631 57.4979 27.8352V27.8104C57.4979 27.5002 57.4103 27.2599 57.2351 27.0895C57.0623 26.919 56.8042 26.8338 56.4609 26.8338C56.1035 26.8338 55.8217 26.9131 55.6158 27.0717C55.4122 27.228 55.2713 27.402 55.1932 27.5938L54.1953 27.3665C54.3137 27.035 54.4865 26.7675 54.7138 26.5639C54.9434 26.358 55.2074 26.2088 55.5057 26.1165C55.804 26.0218 56.1177 25.9744 56.4467 25.9744C56.6645 25.9744 56.8954 26.0005 57.1392 26.0526C57.3854 26.1023 57.6151 26.1946 57.8281 26.3295C58.0436 26.4645 58.2199 26.6574 58.3572 26.9084C58.4946 27.157 58.5632 27.4801 58.5632 27.8778V31.5H57.5263V30.7543H57.4837C57.415 30.8916 57.312 31.0265 57.1747 31.1591C57.0374 31.2917 56.861 31.4018 56.6456 31.4893C56.4302 31.5769 56.1721 31.6207 55.8714 31.6207ZM56.1023 30.7685C56.3958 30.7685 56.6468 30.7105 56.8551 30.5945C57.0658 30.4785 57.2256 30.3269 57.3345 30.1399C57.4458 29.9505 57.5014 29.7481 57.5014 29.5327V28.8295C57.4635 28.8674 57.3902 28.9029 57.2812 28.9361C57.1747 28.9669 57.0528 28.9941 56.9155 29.0178C56.7782 29.0391 56.6444 29.0592 56.5142 29.0781C56.384 29.0947 56.2751 29.1089 56.1875 29.1207C55.9815 29.1468 55.7933 29.1906 55.6229 29.2521C55.4548 29.3137 55.3198 29.4025 55.218 29.5185C55.1186 29.6321 55.0689 29.7836 55.0689 29.973C55.0689 30.2358 55.166 30.4347 55.3601 30.5696C55.5542 30.7022 55.8016 30.7685 56.1023 30.7685ZM59.9775 31.5V26.0455H61.0037V26.9119H61.0605C61.16 26.6184 61.3352 26.3875 61.5861 26.2195C61.8394 26.049 62.1259 25.9638 62.4455 25.9638C62.5118 25.9638 62.5899 25.9661 62.6799 25.9709C62.7722 25.9756 62.8444 25.9815 62.8965 25.9886V27.0043C62.8539 26.9924 62.7781 26.9794 62.6692 26.9652C62.5603 26.9486 62.4514 26.9403 62.3425 26.9403C62.0916 26.9403 61.8678 26.9936 61.6713 27.1001C61.4772 27.2043 61.3233 27.3499 61.2097 27.5369C61.0961 27.7216 61.0392 27.9323 61.0392 28.169V31.5H59.9775ZM65.6619 31.6065C65.2216 31.6065 64.8286 31.4941 64.483 31.2692C64.1397 31.0419 63.8698 30.7187 63.6733 30.2997C63.4792 29.8783 63.3821 29.3729 63.3821 28.7834C63.3821 28.1939 63.4804 27.6896 63.6768 27.2706C63.8757 26.8516 64.148 26.5308 64.4936 26.3082C64.8393 26.0857 65.2311 25.9744 65.669 25.9744C66.0076 25.9744 66.2798 26.0312 66.4858 26.1449C66.6941 26.2562 66.8551 26.3864 66.9688 26.5355C67.0848 26.6847 67.1747 26.8161 67.2386 26.9297H67.3026V24.2273H68.3643V31.5H67.3274V30.6513H67.2386C67.1747 30.7673 67.0824 30.8999 66.9616 31.049C66.8433 31.1982 66.6799 31.3284 66.4716 31.4396C66.2633 31.5509 65.9934 31.6065 65.6619 31.6065ZM65.8963 30.701C66.2017 30.701 66.4598 30.6205 66.6705 30.4595C66.8835 30.2962 67.0445 30.0701 67.1534 29.7812C67.2647 29.4924 67.3203 29.1562 67.3203 28.7727C67.3203 28.3939 67.2659 28.0625 67.157 27.7784C67.0481 27.4943 66.8883 27.273 66.6776 27.1143C66.4669 26.9557 66.2064 26.8764 65.8963 26.8764C65.5767 26.8764 65.3104 26.9593 65.0973 27.125C64.8842 27.2907 64.7232 27.5168 64.6143 27.8033C64.5078 28.0897 64.4545 28.4129 64.4545 28.7727C64.4545 29.1373 64.509 29.4652 64.6179 29.7564C64.7268 30.0476 64.8878 30.2784 65.1009 30.4489C65.3163 30.617 65.5814 30.701 65.8963 30.701ZM73.9672 27.3771L73.0048 27.5476C72.9645 27.4245 72.9006 27.3073 72.813 27.196C72.7278 27.0848 72.6118 26.9936 72.465 26.9226C72.3182 26.8516 72.1348 26.8161 71.9146 26.8161C71.6139 26.8161 71.363 26.8835 71.1618 27.0185C70.9605 27.151 70.8599 27.3227 70.8599 27.5334C70.8599 27.7157 70.9274 27.8625 71.0623 27.9737C71.1973 28.085 71.4151 28.1761 71.7157 28.2472L72.5822 28.446C73.0841 28.562 73.4582 28.7408 73.7044 28.9822C73.9506 29.2237 74.0737 29.5374 74.0737 29.9233C74.0737 30.25 73.979 30.5412 73.7896 30.7969C73.6026 31.0502 73.341 31.2491 73.0048 31.3935C72.671 31.5379 72.2839 31.6101 71.8436 31.6101C71.2328 31.6101 70.7344 31.4799 70.3485 31.2195C69.9627 30.9567 69.7259 30.5838 69.6383 30.1009L70.6646 29.9446C70.7285 30.2121 70.8599 30.4145 71.0588 30.5518C71.2576 30.6868 71.5169 30.7543 71.8365 30.7543C72.1845 30.7543 72.4627 30.6821 72.671 30.5376C72.8793 30.3909 72.9835 30.2121 72.9835 30.0014C72.9835 29.831 72.9196 29.6877 72.7917 29.5717C72.6663 29.4557 72.4733 29.3681 72.2129 29.3089L71.2896 29.1065C70.7806 28.9905 70.4042 28.8059 70.1603 28.5526C69.9189 28.2992 69.7981 27.9785 69.7981 27.5902C69.7981 27.2682 69.8881 26.9865 70.068 26.745C70.2479 26.5036 70.4965 26.3153 70.8137 26.1804C71.131 26.0431 71.4944 25.9744 71.9039 25.9744C72.4934 25.9744 72.9574 26.1023 73.296 26.358C73.6345 26.6113 73.8583 26.951 73.9672 27.3771Z" fill="black"/>
<path fill-rule="evenodd" clip-rule="evenodd" d="M8.51704 12.929C8.51704 12.7895 8.63013 12.6764 8.76964 12.6764H24.3674C24.5069 12.6764 24.62 12.7895 24.62 12.929V14.4209H27.1975C27.7835 14.4209 28.2265 14.9517 28.1217 15.5283L27.2433 20.3592C27.1621 20.8058 26.7731 21.1305 26.3191 21.1305H23.7607C22.6674 23.2965 20.6244 24.9013 18.1788 25.3977V27.7059H19.7891C20.382 27.7059 20.8627 28.1865 20.8627 28.7794V29.8529H23.5465C24.1394 29.8529 24.62 30.3336 24.62 30.9265V31.4632C24.62 31.7597 24.3797 32 24.0833 32H9.05381C8.75736 32 8.51704 31.7597 8.51704 31.4632V30.9265C8.51704 30.3336 8.99768 29.8529 9.59058 29.8529H12.2744V28.7794C12.2744 28.1865 12.755 27.7059 13.3479 27.7059H14.9582V25.3977C12.5127 24.9013 10.4697 23.2965 9.37637 21.1305H6.81796C6.36399 21.1305 5.97498 20.8058 5.89377 20.3592L5.01542 15.5283C4.91059 14.9517 5.35355 14.4209 5.93961 14.4209H8.51704V12.929ZM24.62 17.5073C24.62 18.4987 24.4409 19.4483 24.1131 20.3253H26.3191C26.384 20.3253 26.4396 20.2789 26.4512 20.2151L27.3295 15.3842C27.3445 15.3019 27.2812 15.226 27.1975 15.226H24.62V17.5073ZM8.51704 15.226H5.93961C5.85589 15.226 5.79261 15.3019 5.80759 15.3842L6.68593 20.2151C6.69753 20.2789 6.7531 20.3253 6.81796 20.3253H9.02397C8.69623 19.4483 8.51704 18.4987 8.51704 17.5073V15.226ZM18.1319 21.4213C18.3327 21.8241 18.7343 22.1118 19.1933 22.1118C19.6523 22.1118 20.0539 21.8528 20.2547 21.4213L22.3775 16.4153C22.6356 15.8399 22.3488 15.1782 21.7751 14.9192C21.2013 14.6603 20.5416 14.948 20.2834 15.5234L19.1933 18.0552L18.9351 17.4222C18.763 17.0482 18.4475 16.7893 18.0459 16.7317C17.6729 16.6742 17.2713 16.8468 17.0132 17.1345L16.5829 17.6524L16.1239 17.1345C15.8657 16.8468 15.4641 16.703 15.0912 16.7317C14.6896 16.7893 14.3454 17.0482 14.2019 17.4222L13.9437 18.0552L12.8537 15.5234C12.5955 14.948 11.9357 14.6603 11.362 14.9192C10.7883 15.1782 10.5014 15.8399 10.7596 16.4153L12.8537 21.4213C13.0545 21.8241 13.4561 22.1118 13.9151 22.1118C14.374 22.1118 14.8043 21.8528 14.9764 21.4213L15.6075 20.0403L15.7223 20.1842C15.9231 20.4431 16.2386 20.5869 16.5829 20.5869C16.8984 20.5869 17.214 20.4431 17.4435 20.1842L17.5582 20.0403L18.1319 21.4213Z" fill="black"/>
<path fill-rule="evenodd" clip-rule="evenodd" d="M12.8566 6.12769L11.5782 6.84222L10.8638 5.56365C10.7146 5.29661 10.3771 5.2011 10.1101 5.3503C9.843 5.49951 9.74751 5.83704 9.8968 6.10419L10.6112 7.38276L9.33285 8.0973C9.06573 8.2465 8.97024 8.58391 9.11953 8.85107C9.26872 9.11811 9.60619 9.21374 9.87319 9.06442L11.1516 8.34988L11.866 9.62845C12.0152 9.89549 12.3527 9.99112 12.6197 9.8418C12.8868 9.6926 12.9822 9.35507 12.833 9.08791L12.1185 7.80934L13.3969 7.09481C13.664 6.94561 13.7595 6.6082 13.6102 6.34104C13.4611 6.074 13.1236 5.97849 12.8566 6.12769Z" fill="black"/>
<path fill-rule="evenodd" clip-rule="evenodd" d="M18.0023 4.92405L17.1152 5.14857L16.8907 4.26131C16.8439 4.07601 16.6556 3.96378 16.4703 4.01065C16.285 4.0575 16.1727 4.24578 16.2197 4.43118L16.4441 5.31843L15.5569 5.54295C15.3716 5.5898 15.2593 5.77801 15.3063 5.9634C15.3531 6.14871 15.5413 6.26101 15.7267 6.21407L16.6138 5.98955L16.8383 6.8768C16.8851 7.06211 17.0734 7.17441 17.2587 7.12746C17.444 7.08061 17.5562 6.89231 17.5094 6.70694L17.2849 5.81968L18.1721 5.59517C18.3574 5.54831 18.4697 5.36011 18.4227 5.17471C18.3759 4.98941 18.1876 4.87718 18.0023 4.92405Z" fill="black"/>
<path fill-rule="evenodd" clip-rule="evenodd" d="M23.7354 8.02963L22.5026 7.68082L22.8515 6.44797C22.9244 6.1905 22.7747 5.92266 22.5173 5.84978C22.2597 5.77684 21.9919 5.92655 21.919 6.18417L21.57 7.41702L20.3372 7.06821C20.0797 6.99526 19.8119 7.1449 19.739 7.40252C19.6661 7.65999 19.8157 7.92791 20.0732 8.00071L21.306 8.34952L20.9571 9.58237C20.8842 9.83984 21.0338 10.1078 21.2913 10.1806C21.5488 10.2535 21.8166 10.1037 21.8896 9.84617L22.2386 8.61332L23.4714 8.96213C23.7289 9.03508 23.9967 8.88544 24.0696 8.62782C24.1425 8.37035 23.9928 8.1025 23.7354 8.02963Z" fill="black"/>
</svg>
