<svg width="80" height="36" viewBox="0 0 80 36" fill="none" xmlns="http://www.w3.org/2000/svg">
<rect width="79.7037" height="36" rx="2.5" fill="#ACFF35"/>
<path d="M30.8386 14.7418V18.7923C30.8386 19.5102 30.5068 19.8433 29.8183 19.8433H29.3078C28.5935 19.8433 28.2617 19.5102 28.2617 18.7923V7.46075C28.2617 6.74294 28.5935 6.40988 29.3078 6.40988H29.7671C30.4559 6.40988 30.7878 6.74294 30.7878 7.46075V10.9733H33.4663V7.30694C33.4663 5.0768 32.3947 4 30.1756 4H28.8486C26.6293 4 25.5319 5.10223 25.5319 7.33278V18.9203C25.5319 21.151 26.6293 22.2531 28.8486 22.2531H30.2009C32.4207 22.2531 33.5175 21.151 33.5175 18.9203V14.7418H30.8386Z" fill="black"/>
<path d="M11.0284 14.2031H7.81384V19.6127H11.2072V22.0993H5.08411V4.15389H11.1563V6.64038H7.81384V11.7166H11.0284V14.2031Z" fill="black"/>
<path d="M33.5867 30.4807L33.5942 30.4062L33.6017 30.3242V30.1454L33.5942 30.0635L33.5867 29.989L33.557 29.8399L33.5421 29.7729L33.5202 29.7058L33.4978 29.6388L33.4681 29.5792L33.4308 29.5121L33.3939 29.4525L33.3492 29.3855L33.3049 29.3259L33.2528 29.2738L33.2012 29.2141L33.1416 29.162L33.0824 29.1098L33.0232 29.0726L32.9636 29.0279L32.9045 28.9906L32.8378 28.9534L32.7708 28.9161L32.6967 28.8789L32.6226 28.8491L32.5486 28.8118L32.4666 28.7825L32.3334 28.7378L32.2589 28.7154L32.1923 28.6931L32.0442 28.6484L31.9696 28.6335L31.8881 28.6111L31.8141 28.5888L31.7326 28.5739L31.6511 28.5515L31.4876 28.5068L31.4135 28.4919L31.347 28.4695L31.2799 28.4547L31.2207 28.4323L31.1616 28.4174L31.0726 28.3877L30.9906 28.3578L30.9166 28.328L30.8574 28.2908L30.7904 28.2536L30.7387 28.2014L30.7088 28.1567L30.6721 28.0747L30.6645 27.9779V27.963L30.6721 27.8885L30.7014 27.8214L30.7461 27.7544L30.8127 27.6947L30.8649 27.665L30.9241 27.6351L30.9906 27.6203L31.0652 27.6053L31.1467 27.5904H31.3097L31.3763 27.5979L31.4508 27.6053L31.5249 27.6128L31.5989 27.6277L31.7475 27.6576L31.8215 27.6798L31.8956 27.7023L31.9772 27.7245L32.0368 27.7544L32.1033 27.7767L32.1625 27.8065L32.2296 27.8363L32.2887 27.8661L32.3553 27.8959L32.415 27.9332L32.4815 27.963L32.5411 28.0077L32.6003 28.0449L32.6669 28.0822L32.7265 28.1268L32.7708 28.0672L32.808 28.0077L32.8522 27.9481L32.897 27.8885L32.9412 27.8214L32.9785 27.7619L33.0232 27.7023L33.0675 27.6426L33.1047 27.583L33.149 27.5234L33.1937 27.4638L33.231 27.4042L33.2752 27.3372L33.3199 27.2775L33.3642 27.218L33.4014 27.1584L33.4456 27.0987L33.3274 27.0094L33.2678 26.9646L33.2086 26.9275L33.1416 26.8827L33.0824 26.8454L33.0158 26.8082L32.9487 26.771L32.8895 26.7411L32.8229 26.7039L32.7484 26.6741L32.6152 26.6145L32.5486 26.5921L32.4741 26.5624L32.4075 26.5474L32.3408 26.5251L32.2664 26.5027L32.1997 26.4879L32.1257 26.4729L32.0516 26.458L31.9846 26.4432L31.9105 26.4283L31.8289 26.4208L31.7549 26.4059L31.673 26.3984H31.5989L31.4359 26.3836H31.1169L31.0428 26.391L30.8202 26.4133L30.7536 26.4283L30.6795 26.4432L30.5458 26.4729L30.4866 26.4879L30.4196 26.5102L30.3455 26.54L30.2715 26.5624L30.2044 26.5921L30.1379 26.6294L30.0712 26.6592L30.0042 26.6964L29.9451 26.7337L29.8858 26.7784L29.8262 26.8231L29.7746 26.8603L29.715 26.9125L29.6632 26.9722L29.6111 27.0243L29.5594 27.0838L29.5146 27.1434L29.4703 27.2031L29.4332 27.2701L29.3963 27.3372L29.3367 27.4713L29.3074 27.5383L29.2925 27.6053L29.2701 27.6724L29.2403 27.8065L29.2328 27.881L29.2254 27.9481L29.218 28.0225V28.194L29.2254 28.2758L29.2328 28.3504L29.2403 28.4248L29.2552 28.4919L29.2701 28.5664L29.2925 28.626L29.3144 28.6931L29.3367 28.7527L29.3665 28.8044L29.4038 28.8714L29.4406 28.9311L29.4779 28.9832L29.5221 29.0353L29.5668 29.0875L29.6186 29.1396L29.6707 29.1917L29.7224 29.2365L29.782 29.2738L29.8411 29.3185L29.9078 29.3557L29.9673 29.3929L30.0415 29.4302L30.108 29.4674L30.2566 29.527L30.3307 29.5568L30.4122 29.5866L30.4792 29.609L30.6125 29.6537L30.6865 29.6686L30.7536 29.6909L30.8277 29.7133L30.9016 29.7282L30.9762 29.7506L31.0502 29.7655L31.1317 29.7878L31.2059 29.8027L31.2873 29.825L31.3618 29.8399L31.4359 29.8623L31.5025 29.8771L31.5696 29.8996L31.6287 29.9145L31.6804 29.9294L31.7694 29.9666L31.8439 29.9964L31.9105 30.0262L31.9696 30.056L32.0293 30.1007L32.081 30.1454L32.1183 30.1975L32.1481 30.272L32.1554 30.3614V30.3763L32.1481 30.4509L32.1257 30.5178L32.0958 30.5775L32.0516 30.6297L31.9921 30.6744L31.9403 30.7042L31.8807 30.7265L31.8141 30.7414L31.7475 30.7563L31.673 30.7712L31.5914 30.7786H31.4284L31.347 30.7712H31.2728L31.1984 30.7563L31.1169 30.7489L30.8942 30.7042L30.8277 30.6818L30.6795 30.6371L30.6125 30.6073L30.5458 30.585L30.4792 30.5552L30.4122 30.5254L30.3455 30.4956L30.2864 30.4583L30.2193 30.4285L30.1602 30.3912L30.0936 30.3466L30.034 30.3093L29.9673 30.2646L29.9078 30.2199L29.8411 30.1752L29.782 30.1305L29.7372 30.1901L29.6856 30.2422L29.6408 30.3019L29.5892 30.3614L29.5445 30.4136L29.5002 30.4732L29.4481 30.5328L29.4038 30.585L29.3516 30.6446L29.3074 30.6967L29.2552 30.7563L29.211 30.8159L29.1663 30.868L29.1145 30.9276L29.0698 30.9873L29.0181 31.0395L28.9734 31.099L29.0326 31.1511L29.0847 31.1958L29.1439 31.2406L29.2035 31.2853L29.3218 31.3747L29.3814 31.4119L29.4406 31.4491L29.5076 31.4864L29.5668 31.5236L29.6335 31.5609L29.7004 31.5907L29.7671 31.6275L29.8337 31.6573L29.9007 31.6871L29.9748 31.717L30.0415 31.7392L30.1155 31.7616L30.1825 31.7914L30.3307 31.8361L30.3973 31.8511L30.4718 31.8734L30.5458 31.8882L30.6198 31.9032L30.694 31.9181L30.7685 31.9329L30.8425 31.9404L30.9166 31.9553L30.9981 31.9628L31.1467 31.9777H31.2281L31.3023 31.9851H31.6138L31.6879 31.9777L31.7694 31.9703L31.8439 31.9628L31.9105 31.9553L31.9846 31.9479L32.0591 31.9329L32.1923 31.9032L32.2664 31.8882L32.3334 31.866L32.4075 31.8435L32.4815 31.8213L32.5556 31.7914L32.6301 31.7616L32.6967 31.7244L32.7633 31.6945L32.8304 31.6573L32.8895 31.6126L32.9487 31.5759L33.0083 31.5312L33.0601 31.4864L33.1196 31.4343L33.1638 31.3896L33.216 31.3374L33.2602 31.2853L33.2976 31.2257L33.3418 31.1661L33.4163 31.0469L33.4456 30.9799L33.4755 30.9202L33.5052 30.8531L33.5277 30.7786L33.5421 30.7115L33.5644 30.6371L33.5793 30.5625L33.5867 30.4807Z" fill="black"/>
<path d="M28.4668 31.8958V30.6668H25.5591V29.7431H28.1403V28.5888H25.5591V27.7023H28.4296V26.4729H24.1428V31.8958H28.4668Z" fill="black"/>
<path d="M23.0475 31.8958V26.4729H21.5273L21.4901 26.5326L21.4532 26.5995L21.4085 26.6587L21.3712 26.7258L21.3345 26.7854L21.2972 26.8525L21.253 26.9116L21.2157 26.9787L21.1785 27.0383L21.1416 27.0979L21.097 27.1645L21.0601 27.2241L21.0229 27.2911L20.9856 27.3508L20.9414 27.4173L20.904 27.4769L20.8673 27.5365L20.83 27.6032L20.7928 27.6627L20.7485 27.7298L20.7113 27.7894L20.674 27.856L20.6372 27.9157L20.5925 27.9826L20.5558 28.0418L20.5185 28.1014L20.4812 28.1685L20.4369 28.2281L20.3997 28.2952L20.3628 28.3544L20.3257 28.4214L20.2814 28.481L20.2441 28.5476L20.2069 28.6072L20.1701 28.5476L20.1329 28.481L20.0881 28.4214L20.0513 28.3544L20.014 28.2952L19.9772 28.2281L19.94 28.1685L19.8953 28.1014L19.8585 28.0418L19.8212 27.9826L19.7844 27.9157L19.7472 27.856L19.7025 27.7894L19.6656 27.7298L19.6284 27.6627L19.5917 27.6032L19.5543 27.5365L19.5096 27.4769L19.4728 27.4173L19.4356 27.3508L19.3984 27.2911L19.3541 27.2241L19.3168 27.1645L19.28 27.0979L19.2427 27.0383L19.2056 26.9787L19.1612 26.9116L19.124 26.8525L19.0872 26.7854L19.0499 26.7258L19.0126 26.6587L18.9684 26.5995L18.9312 26.5326L18.8944 26.4729H17.3736V31.8958H18.783V28.704L18.8272 28.7636L18.8646 28.8312L18.9088 28.8907L18.9461 28.9577L18.9908 29.0174L19.0276 29.0844L19.0723 29.1445L19.1091 29.2115L19.1538 29.2711L19.191 29.3382L19.2353 29.3977L19.2726 29.4653L19.3168 29.5249L19.3541 29.5919L19.3984 29.6515L19.4356 29.719L19.4803 29.7786L19.5245 29.8457L19.5618 29.9052L19.606 29.9727L19.6433 30.0323L19.688 30.0994L19.7248 30.1589L19.7695 30.2265L19.8063 30.2861L19.851 30.3531L19.8883 30.4127L19.9325 30.4798L19.9698 30.5399L20.014 30.6068L20.0513 30.6664L20.0956 30.7335L20.1329 30.7936L20.1775 30.8606H20.2069L20.2441 30.801L20.2884 30.7335L20.3257 30.6739L20.3704 30.6143L20.4072 30.5473L20.4518 30.4876L20.4886 30.4276L20.5259 30.3606L20.5706 30.301L20.6075 30.2414L20.6522 30.1814L20.689 30.1143L20.7336 30.0547L20.7709 29.9951L20.8077 29.9276L20.8524 29.868L20.8892 29.8083L20.9339 29.7414L20.9707 29.6817L21.0154 29.6217L21.0527 29.5546L21.0895 29.4951L21.1342 29.4355L21.171 29.368L21.2157 29.3083L21.253 29.2487L21.2972 29.1892L21.3345 29.1217L21.3712 29.0621L21.416 29.0024L21.4532 28.9355L21.4974 28.8758L21.5348 28.8162L21.5791 28.7487L21.6162 28.6891V31.8958H23.0475Z" fill="black"/>
<path fill-rule="evenodd" clip-rule="evenodd" d="M16.771 31.8958L16.7413 31.8287L16.7114 31.7616L16.6822 31.6945L16.6597 31.6201L16.6299 31.5534L16.6002 31.4864L16.5707 31.4194L16.5112 31.2853L16.4819 31.2107L16.4521 31.1437L16.4296 31.0767L16.4003 31.0096L16.3706 30.9426L16.3407 30.8755L16.311 30.801L16.2816 30.734L16.222 30.5999L16.2001 30.5328L16.1703 30.4657L16.1405 30.3912L16.1106 30.3242L16.0813 30.2572L16.0515 30.1901L16.0217 30.123L15.9923 30.056L15.97 29.9814L15.9402 29.9145L15.9108 29.8474L15.881 29.7803L15.8512 29.7133L15.8214 29.6462L15.792 29.5718L15.7623 29.5047L15.7399 29.4376L15.7106 29.3706L15.6509 29.2365L15.6212 29.162L15.5918 29.0949L15.5619 29.0279L15.5322 28.9608L15.5102 28.8938L15.4805 28.8267L15.4506 28.7601L15.4213 28.6856L15.3319 28.4844L15.3026 28.4174L15.2801 28.3504L15.2504 28.2758L15.221 28.2088L15.1912 28.1418L15.1615 28.0747L15.1316 28.0077L15.1022 27.9406L15.0725 27.8661L15.0501 27.7991L15.0208 27.732L14.9909 27.665L14.9612 27.5979L14.9319 27.5308L14.902 27.4564L14.8424 27.3223L14.8205 27.2552L14.7608 27.1211L14.7315 27.0466L14.7017 26.9796L14.6719 26.9125L14.6421 26.8454L14.6128 26.7784L14.5904 26.7114L14.5607 26.6369L14.5312 26.5698L14.5014 26.5027L14.4717 26.4357H13.0995L13.0702 26.5027L13.0404 26.5698L13.0106 26.6369L12.9882 26.7114L12.9588 26.7784L12.9291 26.8454L12.8993 26.9125L12.8699 26.9796L12.8401 27.0466L12.8103 27.1211L12.7804 27.1882L12.7586 27.2552L12.6989 27.3893L12.6696 27.4564L12.6397 27.5308L12.61 27.5979L12.5806 27.665L12.5508 27.732L12.5285 27.7991L12.4987 27.8661L12.4693 27.9406L12.4395 28.0077L12.4097 28.0747L12.3803 28.1418L12.3505 28.2088L12.3207 28.2758L12.2984 28.3504L12.269 28.4174L12.2392 28.4844L12.2094 28.5515L12.18 28.6186L12.1503 28.6856L12.1205 28.7601L12.0911 28.8267L12.0688 28.8938L12.0389 28.9608L12.0092 29.0279L11.9798 29.0949L11.95 29.162L11.9202 29.2365L11.8908 29.3036L11.861 29.3706L11.8387 29.4376L11.8089 29.5047L11.7795 29.5718L11.7497 29.6462L11.72 29.7133L11.6906 29.7803L11.6608 29.8474L11.631 29.9145L11.6086 29.9814L11.5793 30.056L11.5196 30.1901L11.4903 30.2572L11.4306 30.3912L11.4013 30.4657L11.3789 30.5328L11.3492 30.5999L11.3194 30.6668L11.29 30.734L11.2602 30.801L11.2304 30.8755L11.201 30.9426L11.1712 31.0096L11.1489 31.0767L11.1191 31.1437L11.0898 31.2107L11.0599 31.2853L11.0301 31.3523L11.0008 31.4194L10.971 31.4864L10.9412 31.5534L10.9188 31.6201L10.8894 31.6945L10.8597 31.7616L10.8298 31.8287L10.8005 31.8958H12.2984L12.3282 31.8287L12.3505 31.7616L12.3803 31.6945L12.4097 31.6201L12.4321 31.5534L12.4619 31.4864L12.4912 31.4194L12.5136 31.3523L12.5434 31.2853L12.5732 31.2182L12.5951 31.1511L12.6249 31.0767L12.6547 31.0096L12.677 30.9426L12.7064 30.8755H14.8349L14.8647 30.9426L14.8871 31.0096L14.9169 31.0767L14.9463 31.1511L14.9686 31.2182L14.9984 31.2853L15.0282 31.3523L15.0501 31.4194L15.1097 31.5534L15.1316 31.6201L15.1615 31.6945L15.1912 31.7616L15.2136 31.8287L15.243 31.8958H16.771ZM14.3454 29.5937L14.3678 29.6612L14.3975 29.7282H13.1442L13.1736 29.6612L13.1959 29.5937L13.2257 29.5192L13.2556 29.4521L13.2774 29.3846L13.3072 29.3176L13.337 29.243L13.3664 29.1755L13.3887 29.1085L13.4185 29.0415L13.4483 28.974L13.4702 28.8995L13.5001 28.8324L13.5298 28.7649L13.5522 28.6979L13.5816 28.6308L13.6114 28.5559L13.6412 28.4888L13.6631 28.4218L13.6929 28.3544L13.7228 28.2798L13.745 28.2123L13.7744 28.1453L13.8042 28.2123L13.8266 28.2798L13.8559 28.3544L13.8857 28.4218L13.9081 28.4888L13.9378 28.5559L13.9672 28.6308L13.9895 28.6979L14.0193 28.7649L14.0492 28.8324L14.071 28.8995L14.1009 28.974L14.1233 29.0415L14.1526 29.1085L14.1824 29.1755L14.2048 29.243L14.2346 29.3176L14.2639 29.3846L14.2863 29.4521L14.3161 29.5192L14.3454 29.5937Z" fill="black"/>
<path d="M10.1397 31.2479L10.1993 31.2032L10.251 31.1586V28.7378H7.80335V29.825H8.8863V30.503L8.82705 30.5403L8.77495 30.57L8.70839 30.5999L8.64881 30.6297L8.58208 30.6594L8.51551 30.6744L8.44147 30.6967L8.36693 30.7115L8.29289 30.7265L8.21885 30.734L8.05531 30.7489H7.88487L7.80335 30.7414L7.72931 30.734L7.58073 30.7042L7.43256 30.6594L7.36559 30.6297L7.23229 30.57L7.17271 30.5328L7.11363 30.4956L7.05446 30.4509L6.9948 30.4062L6.94319 30.3614L6.8984 30.3093L6.84671 30.2572L6.80201 30.2051L6.75771 30.1454L6.68326 30.0262L6.64645 29.9592L6.6167 29.892L6.58686 29.8176L6.56492 29.758L6.54257 29.6909L6.49786 29.4898L6.49039 29.4153L6.48299 29.3482L6.47601 29.2738V29.1023L6.48299 29.0279L6.49039 28.9534L6.50534 28.8714L6.52022 28.8044L6.53509 28.7303L6.55744 28.6558L6.58686 28.5888L6.60922 28.5217L6.63897 28.4547L6.67628 28.3951L6.71301 28.328L6.75024 28.2684L6.78713 28.2162L6.83184 28.1567L6.88353 28.1045L6.92823 28.0524L6.97992 28.0077L7.03211 27.963L7.0838 27.9183L7.14346 27.881L7.20254 27.8437L7.26213 27.8065L7.32877 27.7767L7.39542 27.7469L7.46198 27.7245L7.52904 27.7023L7.59569 27.6873L7.66973 27.6724L7.73679 27.665L7.81083 27.6576H7.96639L8.04833 27.665L8.12985 27.6724L8.20398 27.6798L8.27802 27.6947L8.35206 27.7097L8.41912 27.7245L8.55233 27.7692L8.61191 27.7916L8.67108 27.8214L8.73066 27.8512L8.79722 27.8885L8.91605 27.963L8.97522 28.0002L9.03439 28.0449L9.09397 28.0822L9.15314 28.1343L9.21272 28.179L9.25701 28.1194L9.30911 28.0672L9.35349 28.0077L9.40559 27.9481L9.4498 27.8885L9.49451 27.8363L9.54628 27.7767L9.5909 27.7171L9.64267 27.6576L9.68738 27.6053L9.73159 27.5457L9.78378 27.4861L9.82807 27.434L9.87277 27.3744L9.92446 27.3148L9.96917 27.2552L10.0209 27.2031L10.0656 27.1434L10.0064 27.0987L9.94682 27.0466L9.88765 27.0019L9.82807 26.9572L9.7689 26.9199L9.70973 26.8753L9.64267 26.838L9.58351 26.8007L9.51694 26.7635L9.45728 26.7263L9.39072 26.6964L9.32407 26.6592L9.25701 26.6294L9.19045 26.5995L9.1238 26.5698L9.05674 26.5474L8.99757 26.5251L8.93101 26.5102L8.86395 26.4879L8.73066 26.458L8.66368 26.4432L8.58956 26.4283L8.51551 26.4133L8.44845 26.4059L8.36693 26.391L8.29289 26.3836H8.21885L8.05531 26.3686H7.73679L7.44004 26.3984L7.36559 26.4133L7.29146 26.4208L7.21742 26.4357L7.15077 26.458L7.07632 26.4729L7.00976 26.4953L6.94319 26.5102L6.87605 26.54L6.80201 26.5624L6.74284 26.5847L6.66872 26.622L6.60174 26.6517L6.53509 26.6816L6.46853 26.7188L6.40147 26.756L6.33482 26.7933L6.27574 26.8306L6.21607 26.8678L6.15691 26.9125L6.09732 26.9497L6.03816 26.9944L5.98639 27.0391L5.92681 27.0913L5.87512 27.1359L5.77124 27.2402L5.72654 27.2924L5.67485 27.3445L5.63014 27.3968L5.58585 27.4564L5.54114 27.516L5.49693 27.5755L5.45962 27.6351L5.42248 27.6947L5.38558 27.7544L5.34835 27.814L5.31112 27.881L5.28179 27.9481L5.25196 28.0151L5.22221 28.0822L5.19279 28.1492L5.16296 28.2237L5.1406 28.2908L5.11825 28.3652L5.09639 28.4323L5.08144 28.5068L5.05908 28.5813L5.04421 28.6484L5.03681 28.7229L5.02194 28.7969L5.01437 28.8789L5.00739 28.9534V29.0279L5 29.1098V29.3557L5.00739 29.4302L5.01437 29.5047L5.02194 29.5792L5.02925 29.6462L5.04421 29.7208L5.05169 29.7878L5.06656 29.8623L5.08891 29.9294L5.10379 30.0039L5.12573 30.0709L5.1406 30.1379L5.17044 30.2051L5.19279 30.2646L5.22221 30.3316L5.25196 30.3987L5.28179 30.4657L5.31112 30.5328L5.34835 30.5924L5.38558 30.6594L5.42248 30.7191L5.45962 30.7786L5.50391 30.8383L5.54114 30.8979L5.58585 30.95L5.63014 31.0096L5.67485 31.0617L5.72654 31.1139L5.77872 31.1661L5.83041 31.2107L5.8826 31.2629L5.93428 31.3076L5.98639 31.3523L6.1048 31.4417L6.16439 31.4864L6.22355 31.5236L6.28313 31.5609L6.34978 31.5981L6.40886 31.635L6.47601 31.6723L6.54257 31.7021L6.60922 31.7318L6.67628 31.7616L6.75024 31.7914L6.81688 31.8138L6.88353 31.8435L6.95059 31.866L7.02463 31.8808L7.09128 31.9032L7.16573 31.9181L7.23229 31.9329L7.38046 31.9628L7.52904 31.9777L7.60308 31.9851L7.68461 31.9926L7.75865 32H8.07775L8.15919 31.9926L8.23372 31.9851L8.31525 31.9777L8.38929 31.9703L8.47081 31.9628L8.54493 31.9553L8.61939 31.9404L8.69343 31.9255L8.76008 31.9107L8.83462 31.8958L8.90118 31.8734L8.97522 31.8511L9.04186 31.8287L9.10884 31.8063L9.17557 31.7839L9.24213 31.7541L9.31667 31.7244L9.38324 31.6945L9.45728 31.6648L9.52392 31.6275L9.5909 31.5981L9.72419 31.5236L9.79125 31.4864L9.85042 31.4491L9.91 31.4119L9.96917 31.3672L10.0283 31.33L10.0879 31.2853L10.1397 31.2479Z" fill="black"/>
<path d="M24.0892 22.0993H21.3591V4.15383H24.0892V22.0993Z" fill="black"/>
<path fill-rule="evenodd" clip-rule="evenodd" d="M16.811 4.15383H12.525V22.0993H15.2548V15.5875H16.811C19.0307 15.5875 20.1276 14.4853 20.1276 12.2552V7.48661C20.1276 5.25606 19.0307 4.15383 16.811 4.15383ZM17.3978 12.1267C17.3978 12.8446 17.0665 13.1781 16.3776 13.1781H15.2548V6.56371H16.3776C17.0665 6.56371 17.3978 6.89686 17.3978 7.61459V12.1267Z" fill="black"/>
<path d="M51.416 6.6247H53.0082C52.8056 5.1592 51.5137 4.12793 49.8384 4.12793C47.8808 4.12793 46.3719 5.53915 46.3719 7.94183C46.3719 10.2866 47.7831 11.7413 49.8709 11.7413C51.7417 11.7413 53.0769 10.558 53.0769 8.60764V7.67407H49.9759V8.8537H51.568C51.5463 9.7728 50.9203 10.3554 49.8782 10.3554C48.7022 10.3554 47.9604 9.47608 47.9604 7.92736C47.9604 6.38588 48.7311 5.51382 49.8637 5.51382C50.6706 5.51382 51.217 5.92995 51.416 6.6247Z" fill="black"/>
<path d="M55.8098 11.7449C56.6312 11.7449 57.1631 11.3867 57.4345 10.8692H57.478V11.6399H58.9398V7.89118C58.9398 6.5668 57.8181 6.00955 56.5806 6.00955C55.249 6.00955 54.3733 6.64641 54.1598 7.65959L55.5855 7.77538C55.6904 7.4063 56.0197 7.13491 56.5733 7.13491C57.098 7.13491 57.3983 7.39906 57.3983 7.85499V7.8767C57.3983 8.23493 57.0184 8.28197 56.0523 8.37606C54.9522 8.47737 53.9644 8.84646 53.9644 10.0876C53.9644 11.1876 54.7496 11.7449 55.8098 11.7449ZM56.2513 10.681C55.7773 10.681 55.4371 10.4603 55.4371 10.0369C55.4371 9.60273 55.7953 9.38924 56.3381 9.31325C56.6746 9.26621 57.2247 9.1866 57.4092 9.06357V9.65339C57.4092 10.236 56.9279 10.681 56.2513 10.681Z" fill="black"/>
<path d="M60.1357 11.6399H61.6772V8.30369C61.6772 7.68854 62.068 7.27965 62.5819 7.27965C63.0884 7.27965 63.4286 7.62702 63.4286 8.17342V11.6399H64.923V8.24579C64.923 7.67045 65.2523 7.27965 65.8132 7.27965C66.3053 7.27965 66.6744 7.58722 66.6744 8.20599V11.6399H68.2122V7.90203C68.2122 6.69707 67.4958 6.00955 66.4609 6.00955C65.6467 6.00955 65.0135 6.42568 64.7855 7.06254H64.7276C64.5503 6.41844 63.9822 6.00955 63.2187 6.00955C62.4697 6.00955 61.9016 6.40759 61.67 7.06254H61.6049V6.08192H60.1357V11.6399Z" fill="black"/>
<path d="M71.9628 11.7485C73.3379 11.7485 74.2642 11.0791 74.4813 10.0478L73.0556 9.95372C72.9 10.3771 72.502 10.5978 71.9882 10.5978C71.2174 10.5978 70.7289 10.0876 70.7289 9.25897V9.25535H74.5139V8.83199C74.5139 6.94313 73.3704 6.00955 71.9013 6.00955C70.2658 6.00955 69.2055 7.17109 69.2055 8.88626C69.2055 10.6485 70.2513 11.7485 71.9628 11.7485ZM70.7289 8.30007C70.7615 7.66683 71.2427 7.16024 71.9266 7.16024C72.5961 7.16024 73.0592 7.63788 73.0629 8.30007H70.7289Z" fill="black"/>
<path d="M48.9265 21.9418C50.4933 21.9418 51.5174 20.7948 51.5174 19.076C51.5174 17.3463 50.4933 16.1993 48.9265 16.1993C47.3597 16.1993 46.3357 17.3463 46.3357 19.076C46.3357 20.7948 47.3597 21.9418 48.9265 21.9418ZM48.9301 21.0336C47.9061 21.0336 47.4285 20.1398 47.4285 19.0724C47.4285 18.0085 47.9061 17.1039 48.9301 17.1039C49.9469 17.1039 50.4246 18.0085 50.4246 19.0724C50.4246 20.1398 49.9469 21.0336 48.9301 21.0336Z" fill="black"/>
<path d="M55.3702 16.2716H54.1724V15.7723C54.1724 15.2802 54.3751 15.0124 54.9034 15.0124C55.1277 15.0124 55.2869 15.0631 55.3883 15.0956L55.6416 14.2199C55.4896 14.162 55.1748 14.0716 54.7369 14.0716C53.8576 14.0716 53.0869 14.5854 53.0869 15.6275V16.2716H52.2293V17.1401H53.0869V21.8297H54.1724V17.1401H55.3702V16.2716Z" fill="black"/>
<path d="M61.7776 16.2716H60.6378V14.94H59.5559V16.2716H58.7417V17.1401H59.5559V20.4221C59.5523 21.4316 60.323 21.9201 61.177 21.902C61.5207 21.8984 61.7523 21.8333 61.879 21.7862L61.6836 20.8925C61.6112 20.9069 61.4773 20.9395 61.3036 20.9395C60.9526 20.9395 60.6378 20.8237 60.6378 20.1977V17.1401H61.7776V16.2716Z" fill="black"/>
<path d="M64.1758 18.5296C64.1758 17.643 64.7367 17.1365 65.5074 17.1365C66.2528 17.1365 66.6979 17.6105 66.6979 18.4246V21.8297H67.7798V18.2944C67.7798 16.9085 67.02 16.1993 65.8765 16.1993C65.0117 16.1993 64.4906 16.5756 64.2301 17.1763H64.1613V14.419H63.0939V21.8297H64.1758V18.5296Z" fill="black"/>
<path d="M71.6191 21.9418C72.8313 21.9418 73.6889 21.3448 73.9349 20.4402L72.9109 20.2556C72.7155 20.7803 72.2451 21.0481 71.6299 21.0481C70.7036 21.0481 70.0812 20.4474 70.0523 19.3763H74.0037V18.9928C74.0037 16.9845 72.8023 16.1993 71.5431 16.1993C69.9944 16.1993 68.9739 17.3789 68.9739 19.0868C68.9739 20.8129 69.9799 21.9418 71.6191 21.9418ZM70.0559 18.5658C70.0993 17.7769 70.671 17.093 71.5503 17.093C72.3898 17.093 72.9398 17.7154 72.9434 18.5658H70.0559Z" fill="black"/>
<path d="M48.1702 32.0194H49.6973L51.1049 27.1742H51.1628L52.574 32.0194H54.101L56.2214 24.6087H54.5099L53.2832 29.7687H53.2181L51.8684 24.6087H50.4029L49.0495 29.7578H48.988L47.7614 24.6087H46.0498L48.1702 32.0194Z" fill="black"/>
<path d="M58.967 32.1279C60.342 32.1279 61.2683 31.4585 61.4854 30.4272L60.0598 30.3331C59.9042 30.7565 59.5061 30.9772 58.9923 30.9772C58.2216 30.9772 57.7331 30.467 57.7331 29.6384V29.6348H61.518V29.2114C61.518 27.3226 60.3746 26.389 58.9055 26.389C57.2699 26.389 56.2097 27.5505 56.2097 29.2657C56.2097 31.0279 57.2554 32.1279 58.967 32.1279ZM57.7331 28.6795C57.7656 28.0463 58.2469 27.5397 58.9308 27.5397C59.6002 27.5397 60.0634 28.0173 60.067 28.6795H57.7331Z" fill="black"/>
<path d="M65.0569 32.1279C66.4319 32.1279 67.3583 31.4585 67.5754 30.4272L66.1497 30.3331C65.9941 30.7565 65.5961 30.9772 65.0822 30.9772C64.3115 30.9772 63.823 30.467 63.823 29.6384V29.6348H67.608V29.2114C67.608 27.3226 66.4645 26.389 64.9954 26.389C63.3598 26.389 62.2996 27.5505 62.2996 29.2657C62.2996 31.0279 63.3454 32.1279 65.0569 32.1279ZM63.823 28.6795C63.8556 28.0463 64.3368 27.5397 65.0207 27.5397C65.6901 27.5397 66.1533 28.0173 66.1569 28.6795H63.823Z" fill="black"/>
<path d="M68.6139 32.0194H70.1554V30.2535L70.5715 29.7795L72.0877 32.0194H73.8933L71.7258 28.8677L73.7884 26.4613H72.0189L70.2386 28.5709H70.1554V24.6087H68.6139V32.0194Z" fill="black"/>
<rect x="39.5996" y="4" width="0.787037" height="28" rx="0.393519" fill="black"/>
</svg>
