<svg width="373" height="288" viewBox="0 0 373 288" fill="none" xmlns="http://www.w3.org/2000/svg">
<g clip-path="url(#clip0_1109_84332)">
<path opacity="0.2" fill-rule="evenodd" clip-rule="evenodd" d="M373 20.7954C373 14.8333 368.167 10 362.205 10H10.7955C4.8333 10 0 14.8333 0 20.7954V377.045C0 383.007 4.83328 387.84 10.7954 387.84H362.205C368.167 387.84 373 383.007 373 377.045V20.7954Z" fill="#00C7F2"/>
<path d="M357.773 25H15V372.613H357.773V25Z" fill="#11171D"/>
<rect width="343.043" height="263" transform="translate(15 25)" fill="#11171D"/>
<path d="M44.4038 44.6025C44.4038 42.7982 45.8665 41.3354 47.6709 41.3354H157.118C158.922 41.3354 160.385 42.7982 160.385 44.6025V47.8696C160.385 49.674 158.922 51.1367 157.118 51.1367H47.6709C45.8665 51.1367 44.4038 49.674 44.4038 47.8696V44.6025Z" fill="white" fill-opacity="0.1"/>
<path d="M35.0754 42.969L31.3354 46.5481H32.9735L31.6379 49.7062L35.3778 46.1271H33.7397L35.0754 42.969Z" fill="#00C7F2" stroke="#00C7F2" stroke-width="1.01058" stroke-linejoin="round"/>
<path d="M35.0754 74.0062L31.3354 77.5854H32.9735L31.6379 80.7434L35.3778 77.1643H33.7397L35.0754 74.0062Z" fill="#00C7F2" stroke="#00C7F2" stroke-width="1.01058" stroke-linejoin="round"/>
<path d="M35.0754 136.081L31.3354 139.66H32.9735L31.6379 142.818L35.3778 139.239H33.7397L35.0754 136.081Z" fill="#00C7F2" stroke="#00C7F2" stroke-width="1.01058" stroke-linejoin="round"/>
<path d="M35.0754 198.155L31.3354 201.734H32.9735L31.6379 204.892L35.3778 201.313H33.7397L35.0754 198.155Z" fill="#00C7F2" stroke="#00C7F2" stroke-width="1.01058" stroke-linejoin="round"/>
<path d="M35.0754 229.193L31.3354 232.772H32.9735L31.6379 235.93L35.3778 232.351H33.7397L35.0754 229.193Z" fill="#00C7F2" stroke="#00C7F2" stroke-width="1.01058" stroke-linejoin="round"/>
<path d="M35.0754 260.23L31.3354 263.809H32.9735L31.6379 266.967L35.3778 263.388H33.7397L35.0754 260.23Z" fill="#00C7F2" stroke="#00C7F2" stroke-width="1.01058" stroke-linejoin="round"/>
<path d="M44.4038 75.6398C44.4038 73.8354 45.8665 72.3727 47.6709 72.3727H153.851C155.655 72.3727 157.118 73.8354 157.118 75.6398V78.9068C157.118 80.7112 155.655 82.1739 153.851 82.1739H47.6709C45.8665 82.1739 44.4038 80.7112 44.4038 78.9068V75.6398Z" fill="white" fill-opacity="0.1"/>
<path d="M44.4038 106.677C44.4038 104.873 45.8665 103.41 47.6709 103.41H140.783C142.587 103.41 144.05 104.873 144.05 106.677V109.944C144.05 111.748 142.587 113.211 140.783 113.211H47.6709C45.8665 113.211 44.4038 111.748 44.4038 109.944V106.677Z" fill="white" fill-opacity="0.1"/>
<path d="M44.4038 137.714C44.4038 135.91 45.8665 134.447 47.6709 134.447H127.714C129.519 134.447 130.981 135.91 130.981 137.714V140.981C130.981 142.786 129.519 144.248 127.714 144.248H47.6709C45.8665 144.248 44.4038 142.786 44.4038 140.981V137.714Z" fill="white" fill-opacity="0.1"/>
<path d="M44.4038 168.752C44.4038 166.947 45.8665 165.484 47.6709 165.484H158.752C160.556 165.484 162.019 166.947 162.019 168.752V172.019C162.019 173.823 160.556 175.286 158.752 175.286H47.6709C45.8665 175.286 44.4038 173.823 44.4038 172.019V168.752Z" fill="white" fill-opacity="0.1"/>
<path d="M44.4038 199.789C44.4038 197.984 45.8665 196.522 47.6709 196.522H170.186C171.991 196.522 173.453 197.984 173.453 199.789V203.056C173.453 204.86 171.991 206.323 170.186 206.323H47.6709C45.8665 206.323 44.4038 204.86 44.4038 203.056V199.789Z" fill="white" fill-opacity="0.1"/>
<path d="M44.4038 230.826C44.4038 229.022 45.8665 227.559 47.6709 227.559H162.019C163.823 227.559 165.286 229.022 165.286 230.826V234.093C165.286 235.898 163.823 237.36 162.019 237.36H47.6709C45.8665 237.36 44.4038 235.898 44.4038 234.093V230.826Z" fill="white" fill-opacity="0.1"/>
<path d="M44.4038 261.863C44.4038 260.059 45.8665 258.596 47.6709 258.596H144.05C145.854 258.596 147.317 260.059 147.317 261.863V265.13C147.317 266.935 145.854 268.397 144.05 268.397H47.6709C45.8665 268.397 44.4038 266.935 44.4038 265.13V261.863Z" fill="white" fill-opacity="0.1"/>
<g clip-path="url(#clip1_1109_84332)">
<rect x="189.205" y="101.93" width="44.181" height="16.3633" rx="8.18166" fill="white" fill-opacity="0.2"/>
<rect x="189.205" y="101.93" width="33.2725" height="16.3633" rx="8.18166" fill="white" fill-opacity="0.5"/>
<path d="M202.31 110.041C202.31 110.836 202.155 111.507 201.846 112.053C201.537 112.597 201.12 113.01 200.594 113.291C200.069 113.57 199.483 113.709 198.837 113.709C198.186 113.709 197.598 113.569 197.073 113.287C196.55 113.004 196.134 112.59 195.825 112.046C195.518 111.5 195.364 110.832 195.364 110.041C195.364 109.246 195.518 108.577 195.825 108.033C196.134 107.487 196.55 107.074 197.073 106.795C197.598 106.514 198.186 106.374 198.837 106.374C199.483 106.374 200.069 106.514 200.594 106.795C201.12 107.074 201.537 107.487 201.846 108.033C202.155 108.577 202.31 109.246 202.31 110.041ZM200.315 110.041C200.315 109.614 200.258 109.253 200.144 108.961C200.033 108.665 199.867 108.442 199.646 108.291C199.427 108.138 199.158 108.061 198.837 108.061C198.516 108.061 198.245 108.138 198.025 108.291C197.806 108.442 197.64 108.665 197.526 108.961C197.415 109.253 197.359 109.614 197.359 110.041C197.359 110.469 197.415 110.831 197.526 111.126C197.64 111.419 197.806 111.642 198.025 111.795C198.245 111.946 198.516 112.022 198.837 112.022C199.158 112.022 199.427 111.946 199.646 111.795C199.867 111.642 200.033 111.419 200.144 111.126C200.258 110.831 200.315 110.469 200.315 110.041ZM203.616 113.612V106.471H208.636V108.033H205.554V109.26H208.329V110.822H205.554V113.612H203.616ZM209.758 113.612V106.471H214.779V108.033H211.697V109.26H214.472V110.822H211.697V113.612H209.758Z" fill="#111111"/>
</g>
<g clip-path="url(#clip2_1109_84332)">
<rect x="189.205" y="195.201" width="44.181" height="16.3633" rx="8.18166" fill="white" fill-opacity="0.2"/>
<rect x="189.205" y="195.201" width="33.2725" height="16.3633" rx="8.18166" fill="white" fill-opacity="0.5"/>
<path d="M202.31 203.312C202.31 204.107 202.155 204.778 201.846 205.324C201.537 205.868 201.12 206.281 200.594 206.562C200.069 206.841 199.483 206.98 198.837 206.98C198.186 206.98 197.598 206.84 197.073 206.558C196.55 206.275 196.134 205.861 195.825 205.317C195.518 204.771 195.364 204.103 195.364 203.312C195.364 202.517 195.518 201.848 195.825 201.304C196.134 200.758 196.55 200.345 197.073 200.066C197.598 199.785 198.186 199.645 198.837 199.645C199.483 199.645 200.069 199.785 200.594 200.066C201.12 200.345 201.537 200.758 201.846 201.304C202.155 201.848 202.31 202.517 202.31 203.312ZM200.315 203.312C200.315 202.885 200.258 202.524 200.144 202.232C200.033 201.936 199.867 201.713 199.646 201.562C199.427 201.409 199.158 201.332 198.837 201.332C198.516 201.332 198.245 201.409 198.025 201.562C197.806 201.713 197.64 201.936 197.526 202.232C197.415 202.524 197.359 202.885 197.359 203.312C197.359 203.74 197.415 204.102 197.526 204.397C197.64 204.69 197.806 204.913 198.025 205.066C198.245 205.217 198.516 205.293 198.837 205.293C199.158 205.293 199.427 205.217 199.646 205.066C199.867 204.913 200.033 204.69 200.144 204.397C200.258 204.102 200.315 203.74 200.315 203.312ZM203.616 206.883V199.742H208.636V201.304H205.554V202.531H208.329V204.093H205.554V206.883H203.616ZM209.758 206.883V199.742H214.779V201.304H211.697V202.531H214.472V204.093H211.697V206.883H209.758Z" fill="#111111"/>
</g>
<g clip-path="url(#clip3_1109_84332)">
<rect x="189.205" y="257.382" width="44.181" height="16.3633" rx="8.18166" fill="white" fill-opacity="0.2"/>
<rect x="189.205" y="257.382" width="33.2725" height="16.3633" rx="8.18166" fill="white" fill-opacity="0.5"/>
<path d="M202.31 265.493C202.31 266.288 202.155 266.959 201.846 267.505C201.537 268.049 201.12 268.461 200.594 268.742C200.069 269.021 199.483 269.161 198.837 269.161C198.186 269.161 197.598 269.02 197.073 268.739C196.55 268.455 196.134 268.042 195.825 267.498C195.518 266.952 195.364 266.283 195.364 265.493C195.364 264.698 195.518 264.029 195.825 263.485C196.134 262.939 196.55 262.526 197.073 262.247C197.598 261.966 198.186 261.825 198.837 261.825C199.483 261.825 200.069 261.966 200.594 262.247C201.12 262.526 201.537 262.939 201.846 263.485C202.155 264.029 202.31 264.698 202.31 265.493ZM200.315 265.493C200.315 265.065 200.258 264.705 200.144 264.412C200.033 264.117 199.867 263.894 199.646 263.743C199.427 263.589 199.158 263.513 198.837 263.513C198.516 263.513 198.245 263.589 198.025 263.743C197.806 263.894 197.64 264.117 197.526 264.412C197.415 264.705 197.359 265.065 197.359 265.493C197.359 265.921 197.415 266.282 197.526 266.577C197.64 266.87 197.806 267.093 198.025 267.247C198.245 267.398 198.516 267.473 198.837 267.473C199.158 267.473 199.427 267.398 199.646 267.247C199.867 267.093 200.033 266.87 200.144 266.577C200.258 266.282 200.315 265.921 200.315 265.493ZM203.616 269.063V261.923H208.636V263.485H205.554V264.712H208.329V266.274H205.554V269.063H203.616ZM209.758 269.063V261.923H214.779V263.485H211.697V264.712H214.472V266.274H211.697V269.063H209.758Z" fill="#111111"/>
</g>
<g clip-path="url(#clip4_1109_84332)">
<rect x="189.205" y="164.111" width="44.181" height="16.3633" rx="8.18166" fill="white" fill-opacity="0.2"/>
<rect x="205.932" y="164.111" width="27.4543" height="16.3633" rx="8.18166" fill="url(#paint0_linear_1109_84332)"/>
<path d="M219.036 172.222C219.036 173.017 218.882 173.688 218.572 174.234C218.263 174.778 217.846 175.19 217.321 175.471C216.795 175.75 216.21 175.89 215.564 175.89C214.913 175.89 214.325 175.749 213.799 175.468C213.276 175.184 212.86 174.771 212.551 174.227C212.244 173.681 212.091 173.012 212.091 172.222C212.091 171.427 212.244 170.758 212.551 170.214C212.86 169.668 213.276 169.255 213.799 168.976C214.325 168.695 214.913 168.554 215.564 168.554C216.21 168.554 216.795 168.695 217.321 168.976C217.846 169.255 218.263 169.668 218.572 170.214C218.882 170.758 219.036 171.427 219.036 172.222ZM217.042 172.222C217.042 171.794 216.985 171.434 216.871 171.141C216.759 170.846 216.593 170.623 216.372 170.472C216.154 170.318 215.884 170.242 215.564 170.242C215.243 170.242 214.972 170.318 214.751 170.472C214.533 170.623 214.367 170.846 214.253 171.141C214.141 171.434 214.085 171.794 214.085 172.222C214.085 172.65 214.141 173.011 214.253 173.306C214.367 173.599 214.533 173.822 214.751 173.976C214.972 174.127 215.243 174.202 215.564 174.202C215.884 174.202 216.154 174.127 216.372 173.976C216.593 173.822 216.759 173.599 216.871 173.306C216.985 173.011 217.042 172.65 217.042 172.222ZM226.52 168.652V175.792H224.902L222.322 172.041H222.281V175.792H220.342V168.652H221.988L224.526 172.389H224.582V168.652H226.52Z" fill="#111111"/>
</g>
<rect x="188.954" y="44.6583" width="132.543" height="6.54533" rx="3.27267" fill="white" fill-opacity="0.2"/>
<rect x="188.954" y="44.6583" width="73.9633" height="6.54533" rx="3.27267" fill="url(#paint1_linear_1109_84332)"/>
<path fill-rule="evenodd" clip-rule="evenodd" d="M258.057 54.8853C261.898 54.8853 265.011 51.7717 265.011 47.9309C265.011 44.09 261.898 40.9764 258.057 40.9764C254.216 40.9764 251.103 44.09 251.103 47.9309C251.103 51.7717 254.216 54.8853 258.057 54.8853Z" fill="white"/>
<path d="M332.471 51.4751C331.969 51.4751 331.522 51.3867 331.132 51.2098C330.744 51.0309 330.439 50.7848 330.215 50.4716C329.993 50.1584 329.88 49.7983 329.876 49.3913H331.602C331.608 49.6172 331.696 49.7972 331.864 49.9315C332.035 50.0657 332.237 50.1328 332.471 50.1328C332.652 50.1328 332.812 50.0945 332.951 50.0177C333.089 49.9389 333.198 49.8281 333.277 49.6854C333.356 49.5426 333.394 49.3764 333.392 49.1868C333.394 48.995 333.356 48.8289 333.277 48.6882C333.198 48.5455 333.089 48.4357 332.951 48.359C332.812 48.2802 332.652 48.2408 332.471 48.2408C332.284 48.2408 332.11 48.2866 331.95 48.3782C331.793 48.4677 331.677 48.5923 331.602 48.7521L330.042 48.4453L330.298 44.8403H334.696V46.2593H331.755L331.628 47.7039H331.666C331.768 47.5057 331.945 47.3417 332.197 47.2117C332.448 47.0796 332.74 47.0135 333.072 47.0135C333.462 47.0135 333.809 47.1041 334.114 47.2852C334.421 47.4663 334.663 47.7167 334.84 48.0363C335.019 48.3537 335.107 48.7202 335.105 49.1357C335.107 49.5916 334.998 49.9964 334.779 50.3501C334.562 50.7017 334.256 50.9776 333.862 51.1779C333.467 51.376 333.004 51.4751 332.471 51.4751ZM336.625 50.3629V48.9823L339.259 44.8403H340.512V46.6812H339.796L338.377 48.9311V48.9823H342.263V50.3629H336.625ZM339.808 51.3856V49.941L339.847 49.3402V44.8403H341.509V51.3856H339.808Z" fill="white" fill-opacity="0.8"/>
<path fill-rule="evenodd" clip-rule="evenodd" d="M331.501 67.567C325.175 67.567 320.047 72.6953 320.047 79.0213C320.047 85.3474 325.175 90.4757 331.501 90.4757C337.827 90.4757 342.956 85.3474 342.956 79.0213C342.956 72.6953 337.827 67.567 331.501 67.567ZM329.865 74.1123C329.865 73.2086 330.597 72.476 331.501 72.476C332.405 72.476 333.138 73.2086 333.138 74.1123V77.385H336.41C337.314 77.385 338.047 78.1176 338.047 79.0213C338.047 79.925 337.314 80.6576 336.41 80.6576H333.138V83.9303C333.138 84.834 332.405 85.5666 331.501 85.5666C330.597 85.5666 329.865 84.834 329.865 83.9303V80.6576H326.592C325.688 80.6576 324.956 79.925 324.956 79.0213C324.956 78.1176 325.688 77.385 326.592 77.385H329.865V74.1123Z" fill="white" fill-opacity="0.6"/>
<path d="M255.245 71.6499V85.9307H251.8V74.8715H251.716L248.523 76.8239V73.8395L252.044 71.6499H255.245ZM264.308 86.2793C263.062 86.2793 261.988 85.9841 261.086 85.3937C260.184 84.7987 259.489 83.9457 259.001 82.8346C258.513 81.719 258.271 80.3778 258.276 78.8112C258.281 77.2446 258.525 75.9151 259.008 74.8227C259.496 73.7256 260.189 72.8911 261.086 72.3194C261.988 71.7429 263.062 71.4547 264.308 71.4547C265.554 71.4547 266.627 71.7429 267.529 72.3194C268.436 72.8911 269.133 73.7256 269.621 74.8227C270.109 75.9197 270.351 77.2493 270.346 78.8112C270.346 80.3825 270.102 81.7259 269.614 82.8416C269.126 83.9573 268.431 84.8103 267.529 85.4007C266.632 85.9864 265.558 86.2793 264.308 86.2793ZM264.308 83.4552C265.052 83.4552 265.654 83.0764 266.114 82.3186C266.574 81.5563 266.802 80.3871 266.797 78.8112C266.797 77.7792 266.693 76.9285 266.483 76.2591C266.274 75.585 265.984 75.083 265.612 74.7529C265.24 74.4229 264.805 74.2578 264.308 74.2578C263.569 74.2578 262.971 74.6321 262.516 75.3805C262.06 76.1243 261.83 77.2679 261.825 78.8112C261.821 79.8572 261.921 80.7242 262.125 81.4122C262.334 82.1002 262.627 82.6138 263.004 82.9532C263.38 83.2879 263.815 83.4552 264.308 83.4552ZM278.229 86.2793C276.984 86.2793 275.91 85.9841 275.008 85.3937C274.106 84.7987 273.411 83.9457 272.923 82.8346C272.435 81.719 272.193 80.3778 272.198 78.8112C272.202 77.2446 272.446 75.9151 272.93 74.8227C273.418 73.7256 274.111 72.8911 275.008 72.3194C275.91 71.7429 276.984 71.4547 278.229 71.4547C279.475 71.4547 280.549 71.7429 281.451 72.3194C282.357 72.8911 283.055 73.7256 283.543 74.8227C284.031 75.9197 284.273 77.2493 284.268 78.8112C284.268 80.3825 284.024 81.7259 283.536 82.8416C283.048 83.9573 282.353 84.8103 281.451 85.4007C280.554 85.9864 279.48 86.2793 278.229 86.2793ZM278.229 83.4552C278.973 83.4552 279.575 83.0764 280.035 82.3186C280.496 81.5563 280.723 80.3871 280.719 78.8112C280.719 77.7792 280.614 76.9285 280.405 76.2591C280.196 75.585 279.905 75.083 279.533 74.7529C279.161 74.4229 278.727 74.2578 278.229 74.2578C277.49 74.2578 276.893 74.6321 276.437 75.3805C275.982 76.1243 275.752 77.2679 275.747 78.8112C275.742 79.8572 275.842 80.7242 276.047 81.4122C276.256 82.1002 276.549 82.6138 276.925 82.9532C277.302 83.2879 277.737 83.4552 278.229 83.4552Z" fill="white"/>
<path fill-rule="evenodd" clip-rule="evenodd" d="M200.408 67.567C194.082 67.567 188.954 72.6953 188.954 79.0213C188.954 85.3474 194.082 90.4757 200.408 90.4757C206.734 90.4757 211.863 85.3474 211.863 79.0213C211.863 72.6953 206.734 67.567 200.408 67.567ZM206.954 79.0213C206.954 78.1176 206.221 77.385 205.317 77.385H195.499C194.596 77.385 193.863 78.1176 193.863 79.0213C193.863 79.925 194.596 80.6576 195.499 80.6576H205.317C206.221 80.6576 206.954 79.925 206.954 79.0213Z" fill="white" fill-opacity="0.6"/>
<path fill-rule="evenodd" clip-rule="evenodd" d="M331.501 129.748C325.175 129.748 320.047 134.876 320.047 141.202C320.047 147.528 325.175 152.656 331.501 152.656C337.827 152.656 342.956 147.528 342.956 141.202C342.956 134.876 337.827 129.748 331.501 129.748ZM329.865 136.293C329.865 135.389 330.597 134.657 331.501 134.657C332.405 134.657 333.138 135.389 333.138 136.293V139.566H336.41C337.314 139.566 338.047 140.298 338.047 141.202C338.047 142.106 337.314 142.838 336.41 142.838H333.138V146.111C333.138 147.015 332.405 147.747 331.501 147.747C330.597 147.747 329.865 147.015 329.865 146.111V142.838H326.592C325.688 142.838 324.956 142.106 324.956 141.202C324.956 140.298 325.688 139.566 326.592 139.566H329.865V136.293Z" fill="white" fill-opacity="0.6"/>
<path d="M254.729 148.111V145.629L259.938 141.068C260.329 140.715 260.661 140.392 260.935 140.099C261.21 139.802 261.419 139.504 261.563 139.207C261.707 138.905 261.779 138.577 261.779 138.223C261.779 137.828 261.693 137.491 261.521 137.212C261.349 136.929 261.112 136.71 260.81 136.557C260.508 136.404 260.161 136.327 259.771 136.327C259.376 136.327 259.029 136.408 258.732 136.571C258.434 136.729 258.202 136.959 258.035 137.261C257.872 137.563 257.791 137.931 257.791 138.363H254.52C254.52 137.391 254.739 136.552 255.176 135.846C255.613 135.139 256.226 134.595 257.017 134.214C257.812 133.828 258.734 133.635 259.785 133.635C260.868 133.635 261.809 133.817 262.609 134.179C263.409 134.542 264.027 135.048 264.464 135.699C264.905 136.345 265.126 137.096 265.126 137.952C265.126 138.495 265.017 139.035 264.798 139.569C264.58 140.104 264.187 140.694 263.62 141.34C263.058 141.987 262.258 142.761 261.221 143.662L259.513 145.238V145.329H265.301V148.111H254.729ZM272.718 148.306C271.677 148.306 270.752 148.118 269.943 147.742C269.134 147.365 268.495 146.847 268.025 146.187C267.56 145.527 267.319 144.769 267.3 143.913H270.647C270.675 144.439 270.889 144.862 271.289 145.183C271.688 145.499 272.165 145.657 272.718 145.657C273.15 145.657 273.534 145.561 273.869 145.371C274.203 145.18 274.466 144.913 274.657 144.569C274.847 144.22 274.94 143.82 274.935 143.37C274.94 142.909 274.845 142.507 274.65 142.163C274.459 141.819 274.194 141.552 273.855 141.361C273.52 141.166 273.134 141.068 272.697 141.068C272.283 141.064 271.891 141.154 271.519 141.34C271.151 141.526 270.873 141.78 270.682 142.1L267.635 141.529L268.255 133.83H277.418V136.613H271.093L270.766 139.981H270.849C271.086 139.586 271.468 139.26 271.993 139.004C272.523 138.744 273.125 138.614 273.799 138.614C274.654 138.614 275.417 138.814 276.086 139.214C276.76 139.609 277.29 140.157 277.676 140.859C278.066 141.561 278.262 142.365 278.262 143.272C278.262 144.253 278.029 145.122 277.564 145.88C277.104 146.638 276.458 147.233 275.626 147.665C274.798 148.093 273.829 148.306 272.718 148.306Z" fill="white"/>
<path fill-rule="evenodd" clip-rule="evenodd" d="M200.408 129.748C194.082 129.748 188.954 134.876 188.954 141.202C188.954 147.528 194.082 152.656 200.408 152.656C206.734 152.656 211.863 147.528 211.863 141.202C211.863 134.876 206.734 129.748 200.408 129.748ZM206.954 141.202C206.954 140.298 206.221 139.566 205.317 139.566H195.499C194.596 139.566 193.863 140.298 193.863 141.202C193.863 142.106 194.596 142.838 195.499 142.838H205.317C206.221 142.838 206.954 142.106 206.954 141.202Z" fill="white" fill-opacity="0.6"/>
<path fill-rule="evenodd" clip-rule="evenodd" d="M331.501 223.019C325.175 223.019 320.047 228.147 320.047 234.473C320.047 240.799 325.175 245.927 331.501 245.927C337.827 245.927 342.956 240.799 342.956 234.473C342.956 228.147 337.827 223.019 331.501 223.019ZM329.865 229.564C329.865 228.66 330.597 227.928 331.501 227.928C332.405 227.928 333.138 228.66 333.138 229.564V232.837H336.41C337.314 232.837 338.047 233.569 338.047 234.473C338.047 235.377 337.314 236.109 336.41 236.109H333.138V239.382C333.138 240.286 332.405 241.018 331.501 241.018C330.597 241.018 329.865 240.286 329.865 239.382V236.109H326.592C325.688 236.109 324.956 235.377 324.956 234.473C324.956 233.569 325.688 232.837 326.592 232.837H329.865V229.564Z" fill="white" fill-opacity="0.6"/>
<path d="M253.539 239.011V236.32L259.389 227.101H261.781V230.755H260.393L256.97 236.18V236.292H265.442V239.011H253.539ZM260.435 241.382V238.188L260.505 237.01V227.101H263.733V241.382H260.435ZM273.157 241.731C271.912 241.731 270.838 241.436 269.936 240.845C269.034 240.25 268.339 239.397 267.851 238.286C267.363 237.17 267.121 235.829 267.126 234.263C267.13 232.696 267.374 231.367 267.858 230.274C268.346 229.177 269.039 228.343 269.936 227.771C270.838 227.194 271.912 226.906 273.157 226.906C274.403 226.906 275.477 227.194 276.379 227.771C277.285 228.343 277.983 229.177 278.471 230.274C278.959 231.371 279.201 232.701 279.196 234.263C279.196 235.834 278.952 237.177 278.464 238.293C277.976 239.409 277.281 240.262 276.379 240.852C275.482 241.438 274.408 241.731 273.157 241.731ZM273.157 238.907C273.901 238.907 274.503 238.528 274.963 237.77C275.424 237.008 275.651 235.839 275.647 234.263C275.647 233.231 275.542 232.38 275.333 231.711C275.124 231.036 274.833 230.534 274.461 230.204C274.089 229.874 273.655 229.709 273.157 229.709C272.418 229.709 271.821 230.083 271.365 230.832C270.91 231.576 270.68 232.719 270.675 234.263C270.67 235.309 270.77 236.176 270.975 236.864C271.184 237.552 271.477 238.065 271.853 238.405C272.23 238.739 272.665 238.907 273.157 238.907Z" fill="white"/>
<path fill-rule="evenodd" clip-rule="evenodd" d="M200.408 223.019C194.082 223.019 188.954 228.147 188.954 234.473C188.954 240.799 194.082 245.927 200.408 245.927C206.734 245.927 211.863 240.799 211.863 234.473C211.863 228.147 206.734 223.019 200.408 223.019ZM206.954 234.473C206.954 233.569 206.221 232.837 205.317 232.837H195.499C194.596 232.837 193.863 233.569 193.863 234.473C193.863 235.377 194.596 236.109 195.499 236.109H205.317C206.221 236.109 206.954 235.377 206.954 234.473Z" fill="white" fill-opacity="0.6"/>
</g>
<defs>
<linearGradient id="paint0_linear_1109_84332" x1="233.386" y1="164.111" x2="218.993" y2="188.259" gradientUnits="userSpaceOnUse">
<stop stop-color="#0BF2F6"/>
<stop offset="1" stop-color="#13CFFF"/>
</linearGradient>
<linearGradient id="paint1_linear_1109_84332" x1="262.917" y1="44.6583" x2="261.768" y2="57.6473" gradientUnits="userSpaceOnUse">
<stop stop-color="#0BF2F6"/>
<stop offset="1" stop-color="#13CFFF"/>
</linearGradient>
<clipPath id="clip0_1109_84332">
<rect width="373" height="288" fill="white"/>
</clipPath>
<clipPath id="clip1_1109_84332">
<rect x="189.205" y="101.93" width="44.181" height="16.3633" rx="8.18166" fill="white"/>
</clipPath>
<clipPath id="clip2_1109_84332">
<rect x="189.205" y="195.201" width="44.181" height="16.3633" rx="8.18166" fill="white"/>
</clipPath>
<clipPath id="clip3_1109_84332">
<rect x="189.205" y="257.382" width="44.181" height="16.3633" rx="8.18166" fill="white"/>
</clipPath>
<clipPath id="clip4_1109_84332">
<rect x="189.205" y="164.111" width="44.181" height="16.3633" rx="8.18166" fill="white"/>
</clipPath>
</defs>
</svg>
