<svg width="163" height="100" viewBox="0 0 163 100" fill="none" xmlns="http://www.w3.org/2000/svg">
<path d="M146.413 31.3193C155.061 31.3193 162.072 24.3082 162.072 15.6596C162.072 7.01106 155.061 0 146.413 0C137.764 0 130.753 7.01106 130.753 15.6596C130.753 24.3082 137.764 31.3193 146.413 31.3193Z" fill="#0BF2F6"/>
<path d="M144.778 35.1542C153.426 35.1542 160.437 28.1432 160.437 19.4946C160.437 10.846 153.426 3.83496 144.778 3.83496C136.129 3.83496 129.118 10.846 129.118 19.4946C129.118 28.1432 136.129 35.1542 144.778 35.1542Z" fill="#0BF1F6"/>
<path d="M143.144 38.9897C151.793 38.9897 158.804 31.9786 158.804 23.33C158.804 14.6815 151.793 7.67041 143.144 7.67041C134.495 7.67041 127.484 14.6815 127.484 23.33C127.484 31.9786 134.495 38.9897 143.144 38.9897Z" fill="#0BF0F7"/>
<path d="M141.511 42.8246C150.16 42.8246 157.171 35.8136 157.171 27.165C157.171 18.5164 150.16 11.5054 141.511 11.5054C132.863 11.5054 125.852 18.5164 125.852 27.165C125.852 35.8136 132.863 42.8246 141.511 42.8246Z" fill="#0CEFF7"/>
<path d="M139.879 46.6598C148.528 46.6598 155.539 39.6488 155.539 31.0002C155.539 22.3516 148.528 15.3406 139.879 15.3406C131.231 15.3406 124.22 22.3516 124.22 31.0002C124.22 39.6488 131.231 46.6598 139.879 46.6598Z" fill="#0CEEF7"/>
<path d="M138.243 50.4948C146.891 50.4948 153.902 43.4837 153.902 34.8352C153.902 26.1866 146.891 19.1755 138.243 19.1755C129.594 19.1755 122.583 26.1866 122.583 34.8352C122.583 43.4837 129.594 50.4948 138.243 50.4948Z" fill="#0CEDF7"/>
<path d="M136.611 54.3307C145.259 54.3307 152.27 47.3197 152.27 38.6711C152.27 30.0225 145.259 23.0115 136.611 23.0115C127.962 23.0115 120.951 30.0225 120.951 38.6711C120.951 47.3197 127.962 54.3307 136.611 54.3307Z" fill="#0CECF8"/>
<path d="M134.979 58.1657C143.628 58.1657 150.639 51.1546 150.639 42.5061C150.639 33.8575 143.628 26.8464 134.979 26.8464C126.33 26.8464 119.319 33.8575 119.319 42.5061C119.319 51.1546 126.33 58.1657 134.979 58.1657Z" fill="#0DEBF8"/>
<path d="M133.345 61.9965C141.994 61.9965 149.005 54.9855 149.005 46.3369C149.005 37.6883 141.994 30.6772 133.345 30.6772C124.697 30.6772 117.686 37.6883 117.686 46.3369C117.686 54.9855 124.697 61.9965 133.345 61.9965Z" fill="#0DEAF8"/>
<path d="M131.71 65.8315C140.359 65.8315 147.37 58.8204 147.37 50.1718C147.37 41.5233 140.359 34.5122 131.71 34.5122C123.062 34.5122 116.051 41.5233 116.051 50.1718C116.051 58.8204 123.062 65.8315 131.71 65.8315Z" fill="#0DE9F8"/>
<path d="M130.077 69.6669C138.725 69.6669 145.736 62.6559 145.736 54.0073C145.736 45.3587 138.725 38.3477 130.077 38.3477C121.428 38.3477 114.417 45.3587 114.417 54.0073C114.417 62.6559 121.428 69.6669 130.077 69.6669Z" fill="#0DE8F9"/>
<path d="M128.446 73.5019C137.094 73.5019 144.105 66.4908 144.105 57.8423C144.105 49.1937 137.094 42.1826 128.446 42.1826C119.797 42.1826 112.786 49.1937 112.786 57.8423C112.786 66.4908 119.797 73.5019 128.446 73.5019Z" fill="#0DE7F9"/>
<path d="M126.812 77.3373C135.461 77.3373 142.472 70.3263 142.472 61.6777C142.472 53.0291 135.461 46.0181 126.812 46.0181C118.163 46.0181 111.152 53.0291 111.152 61.6777C111.152 70.3263 118.163 77.3373 126.812 77.3373Z" fill="#0EE6F9"/>
<path d="M125.177 81.1723C133.826 81.1723 140.837 74.1612 140.837 65.5127C140.837 56.8641 133.826 49.853 125.177 49.853C116.529 49.853 109.518 56.8641 109.518 65.5127C109.518 74.1612 116.529 81.1723 125.177 81.1723Z" fill="#0EE5F9"/>
<path d="M123.545 85.0075C132.194 85.0075 139.205 77.9964 139.205 69.3479C139.205 60.6993 132.194 53.6882 123.545 53.6882C114.897 53.6882 107.886 60.6993 107.886 69.3479C107.886 77.9964 114.897 85.0075 123.545 85.0075Z" fill="#0EE4FA"/>
<path d="M121.912 88.8425C130.56 88.8425 137.571 81.8314 137.571 73.1828C137.571 64.5343 130.56 57.5232 121.912 57.5232C113.263 57.5232 106.252 64.5343 106.252 73.1828C106.252 81.8314 113.263 88.8425 121.912 88.8425Z" fill="#0EE3FA"/>
<path d="M120.279 92.674C128.927 92.674 135.938 85.6629 135.938 77.0144C135.938 68.3658 128.927 61.3547 120.279 61.3547C111.63 61.3547 104.619 68.3658 104.619 77.0144C104.619 85.6629 111.63 92.674 120.279 92.674Z" fill="#0FE2FA"/>
<path d="M118.642 96.5092C127.291 96.5092 134.302 89.4981 134.302 80.8496C134.302 72.201 127.291 65.1899 118.642 65.1899C109.993 65.1899 102.982 72.201 102.982 80.8496C102.982 89.4981 109.993 96.5092 118.642 96.5092Z" fill="#0FE1FA"/>
<path d="M117.011 99.841C125.66 99.841 132.671 92.8299 132.671 84.1814C132.671 75.5328 125.66 68.5217 117.011 68.5217C108.363 68.5217 101.352 75.5328 101.352 84.1814C101.352 92.8299 108.363 99.841 117.011 99.841Z" fill="#0FE1FB"/>
<path d="M115.383 96.0014C124.032 96.0014 131.043 88.9903 131.043 80.3418C131.043 71.6932 124.032 64.6821 115.383 64.6821C106.735 64.6821 99.7236 71.6932 99.7236 80.3418C99.7236 88.9903 106.735 96.0014 115.383 96.0014Z" fill="#0FE0FB"/>
<path d="M113.756 92.1659C122.405 92.1659 129.416 85.1549 129.416 76.5063C129.416 67.8577 122.405 60.8467 113.756 60.8467C105.108 60.8467 98.0967 67.8577 98.0967 76.5063C98.0967 85.1549 105.108 92.1659 113.756 92.1659Z" fill="#0FDFFB"/>
<path d="M112.13 88.331C120.779 88.331 127.79 81.3199 127.79 72.6714C127.79 64.0228 120.779 57.0117 112.13 57.0117C103.482 57.0117 96.4707 64.0228 96.4707 72.6714C96.4707 81.3199 103.482 88.331 112.13 88.331Z" fill="#10DEFB"/>
<path d="M110.503 84.4916C119.152 84.4916 126.163 77.4806 126.163 68.832C126.163 60.1834 119.152 53.1724 110.503 53.1724C101.855 53.1724 94.8438 60.1834 94.8438 68.832C94.8438 77.4806 101.855 84.4916 110.503 84.4916Z" fill="#10DDFB"/>
<path d="M108.874 80.6562C117.523 80.6562 124.534 73.6451 124.534 64.9965C124.534 56.348 117.523 49.3369 108.874 49.3369C100.226 49.3369 93.2148 56.348 93.2148 64.9965C93.2148 73.6451 100.226 80.6562 108.874 80.6562Z" fill="#10DCFC"/>
<path d="M107.247 76.8171C115.895 76.8171 122.906 69.806 122.906 61.1574C122.906 52.5089 115.895 45.4978 107.247 45.4978C98.598 45.4978 91.5869 52.5089 91.5869 61.1574C91.5869 69.806 98.598 76.8171 107.247 76.8171Z" fill="#10DBFC"/>
<path d="M105.619 72.9819C114.267 72.9819 121.278 65.9708 121.278 57.3222C121.278 48.6737 114.267 41.6626 105.619 41.6626C96.97 41.6626 89.959 48.6737 89.959 57.3222C89.959 65.9708 96.97 72.9819 105.619 72.9819Z" fill="#11DAFC"/>
<path d="M103.991 69.1428C112.639 69.1428 119.65 62.1317 119.65 53.4831C119.65 44.8345 112.639 37.8235 103.991 37.8235C95.3421 37.8235 88.3311 44.8345 88.3311 53.4831C88.3311 62.1317 95.3421 69.1428 103.991 69.1428Z" fill="#11D9FC"/>
<path d="M102.367 65.3068C111.015 65.3068 118.026 58.2958 118.026 49.6472C118.026 40.9986 111.015 33.9875 102.367 33.9875C93.7181 33.9875 86.707 40.9986 86.707 49.6472C86.707 58.2958 93.7181 65.3068 102.367 65.3068Z" fill="#11D8FD"/>
<path d="M100.738 61.4677C109.386 61.4677 116.397 54.4566 116.397 45.8081C116.397 37.1595 109.386 30.1484 100.738 30.1484C92.0892 30.1484 85.0781 37.1595 85.0781 45.8081C85.0781 54.4566 92.0892 61.4677 100.738 61.4677Z" fill="#11D7FD"/>
<path d="M99.1108 57.6327C107.759 57.6327 114.77 50.6217 114.77 41.9731C114.77 33.3245 107.759 26.3135 99.1108 26.3135C90.4622 26.3135 83.4512 33.3245 83.4512 41.9731C83.4512 50.6217 90.4622 57.6327 99.1108 57.6327Z" fill="#11D6FD"/>
<path d="M96.7094 59.3322C105.358 59.3322 112.369 52.3211 112.369 43.6726C112.369 35.024 105.358 28.0129 96.7094 28.0129C88.0609 28.0129 81.0498 35.024 81.0498 43.6726C81.0498 52.3211 88.0609 59.3322 96.7094 59.3322Z" fill="#12D5FD"/>
<path d="M94.102 62.5795C102.751 62.5795 109.762 55.5685 109.762 46.9199C109.762 38.2713 102.751 31.2603 94.102 31.2603C85.4534 31.2603 78.4424 38.2713 78.4424 46.9199C78.4424 55.5685 85.4534 62.5795 94.102 62.5795Z" fill="#12D4FE"/>
<path d="M91.4848 65.8276C100.133 65.8276 107.144 58.8165 107.144 50.1679C107.144 41.5194 100.133 34.5083 91.4848 34.5083C82.8362 34.5083 75.8252 41.5194 75.8252 50.1679C75.8252 58.8165 82.8362 65.8276 91.4848 65.8276Z" fill="#12D3FE"/>
<path d="M88.8725 69.0751C97.5211 69.0751 104.532 62.0641 104.532 53.4155C104.532 44.7669 97.5211 37.7559 88.8725 37.7559C80.224 37.7559 73.2129 44.7669 73.2129 53.4155C73.2129 62.0641 80.224 69.0751 88.8725 69.0751Z" fill="#12D2FE"/>
<path d="M86.2602 72.3232C94.9088 72.3232 101.92 65.3121 101.92 56.6635C101.92 48.015 94.9088 41.0039 86.2602 41.0039C77.6116 41.0039 70.6006 48.015 70.6006 56.6635C70.6006 65.3121 77.6116 72.3232 86.2602 72.3232Z" fill="#13D1FE"/>
<path d="M83.6479 75.571C92.2965 75.571 99.3076 68.5599 99.3076 59.9113C99.3076 51.2628 92.2965 44.2517 83.6479 44.2517C74.9993 44.2517 67.9883 51.2628 67.9883 59.9113C67.9883 68.5599 74.9993 75.571 83.6479 75.571Z" fill="#13D0FF"/>
<path d="M81.0346 78.8183C89.6832 78.8183 96.6943 71.8072 96.6943 63.1587C96.6943 54.5101 89.6832 47.499 81.0346 47.499C72.3861 47.499 65.375 54.5101 65.375 63.1587C65.375 71.8072 72.3861 78.8183 81.0346 78.8183Z" fill="#13CFFF"/>
<path d="M80.5727 78.2687C89.2213 78.2687 96.2324 71.2577 96.2324 62.6091C96.2324 53.9605 89.2213 46.9495 80.5727 46.9495C71.9241 46.9495 64.9131 53.9605 64.9131 62.6091C64.9131 71.2577 71.9241 78.2687 80.5727 78.2687Z" fill="#14CEFF"/>
<path d="M80.1069 77.7192C88.7555 77.7192 95.7665 70.7081 95.7665 62.0595C95.7665 53.411 88.7555 46.3999 80.1069 46.3999C71.4583 46.3999 64.4473 53.411 64.4473 62.0595C64.4473 70.7081 71.4583 77.7192 80.1069 77.7192Z" fill="#14CDFF"/>
<path d="M79.6401 77.1696C88.2887 77.1696 95.2997 70.1586 95.2997 61.51C95.2997 52.8614 88.2887 45.8503 79.6401 45.8503C70.9915 45.8503 63.9805 52.8614 63.9805 61.51C63.9805 70.1586 70.9915 77.1696 79.6401 77.1696Z" fill="#15CCFF"/>
<path d="M79.1792 76.6196C87.8277 76.6196 94.8388 69.6085 94.8388 60.9599C94.8388 52.3113 87.8277 45.3003 79.1792 45.3003C70.5306 45.3003 63.5195 52.3113 63.5195 60.9599C63.5195 69.6085 70.5306 76.6196 79.1792 76.6196Z" fill="#15CBFF"/>
<path d="M78.7124 76.07C87.3609 76.07 94.372 69.0589 94.372 60.4104C94.372 51.7618 87.3609 44.7507 78.7124 44.7507C70.0638 44.7507 63.0527 51.7618 63.0527 60.4104C63.0527 69.0589 70.0638 76.07 78.7124 76.07Z" fill="#16CAFF"/>
<path d="M78.2475 75.5202C86.8961 75.5202 93.9072 68.5091 93.9072 59.8606C93.9072 51.212 86.8961 44.2009 78.2475 44.2009C69.5989 44.2009 62.5879 51.212 62.5879 59.8606C62.5879 68.5091 69.5989 75.5202 78.2475 75.5202Z" fill="#17C9FF"/>
<path d="M77.7866 74.9706C86.4352 74.9706 93.4462 67.9596 93.4462 59.311C93.4462 50.6624 86.4352 43.6514 77.7866 43.6514C69.138 43.6514 62.127 50.6624 62.127 59.311C62.127 67.9596 69.138 74.9706 77.7866 74.9706Z" fill="#17C8FF"/>
<path d="M77.3198 74.4206C85.9684 74.4206 92.9794 67.4095 92.9794 58.761C92.9794 50.1124 85.9684 43.1013 77.3198 43.1013C68.6712 43.1013 61.6602 50.1124 61.6602 58.761C61.6602 67.4095 68.6712 74.4206 77.3198 74.4206Z" fill="#18C7FF"/>
<path d="M76.8549 73.8671C85.5035 73.8671 92.5146 66.8561 92.5146 58.2075C92.5146 49.5589 85.5035 42.5479 76.8549 42.5479C68.2064 42.5479 61.1953 49.5589 61.1953 58.2075C61.1953 66.8561 68.2064 73.8671 76.8549 73.8671Z" fill="#19C6FF"/>
<path d="M76.394 73.3176C85.0426 73.3176 92.0536 66.3065 92.0536 57.6579C92.0536 49.0094 85.0426 41.9983 76.394 41.9983C67.7454 41.9983 60.7344 49.0094 60.7344 57.6579C60.7344 66.3065 67.7454 73.3176 76.394 73.3176Z" fill="#19C5FF"/>
<path d="M75.9272 72.7675C84.5758 72.7675 91.5868 65.7565 91.5868 57.1079C91.5868 48.4593 84.5758 41.4482 75.9272 41.4482C67.2786 41.4482 60.2676 48.4593 60.2676 57.1079C60.2676 65.7565 67.2786 72.7675 75.9272 72.7675Z" fill="#1AC4FF"/>
<path d="M75.4604 72.2182C84.109 72.2182 91.1201 65.2071 91.1201 56.5586C91.1201 47.91 84.109 40.8989 75.4604 40.8989C66.8118 40.8989 59.8008 47.91 59.8008 56.5586C59.8008 65.2071 66.8118 72.2182 75.4604 72.2182Z" fill="#1AC3FF"/>
<path d="M74.9965 71.6684C83.6451 71.6684 90.6562 64.6573 90.6562 56.0088C90.6562 47.3602 83.6451 40.3491 74.9965 40.3491C66.348 40.3491 59.3369 47.3602 59.3369 56.0088C59.3369 64.6573 66.348 71.6684 74.9965 71.6684Z" fill="#1BC2FF"/>
<path d="M74.5346 71.1188C83.1832 71.1188 90.1943 64.1078 90.1943 55.4592C90.1943 46.8106 83.1832 39.7996 74.5346 39.7996C65.8861 39.7996 58.875 46.8106 58.875 55.4592C58.875 64.1078 65.8861 71.1188 74.5346 71.1188Z" fill="#1CC1FF"/>
<path d="M74.0669 70.5695C82.7154 70.5695 89.7265 63.5585 89.7265 54.9099C89.7265 46.2613 82.7154 39.2502 74.0669 39.2502C65.4183 39.2502 58.4072 46.2613 58.4072 54.9099C58.4072 63.5585 65.4183 70.5695 74.0669 70.5695Z" fill="#1CC0FF"/>
<path d="M73.604 70.0195C82.2526 70.0195 89.2636 63.0084 89.2636 54.3598C89.2636 45.7113 82.2526 38.7002 73.604 38.7002C64.9554 38.7002 57.9443 45.7113 57.9443 54.3598C57.9443 63.0084 64.9554 70.0195 73.604 70.0195Z" fill="#1DBFFF"/>
<path d="M73.1411 69.4694C81.7897 69.4694 88.8007 62.4584 88.8007 53.8098C88.8007 45.1612 81.7897 38.1501 73.1411 38.1501C64.4925 38.1501 57.4814 45.1612 57.4814 53.8098C57.4814 62.4584 64.4925 69.4694 73.1411 69.4694Z" fill="#1DBEFF"/>
<path d="M72.6762 68.9199C81.3248 68.9199 88.3359 61.9088 88.3359 53.2602C88.3359 44.6116 81.3248 37.6006 72.6762 37.6006C64.0277 37.6006 57.0166 44.6116 57.0166 53.2602C57.0166 61.9088 64.0277 68.9199 72.6762 68.9199Z" fill="#1EBDFF"/>
<path d="M72.2104 68.3708C80.859 68.3708 87.8701 61.3597 87.8701 52.7111C87.8701 44.0626 80.859 37.0515 72.2104 37.0515C63.5618 37.0515 56.5508 44.0626 56.5508 52.7111C56.5508 61.3597 63.5618 68.3708 72.2104 68.3708Z" fill="#1FBCFF"/>
<path d="M71.7466 67.8207C80.3951 67.8207 87.4062 60.8097 87.4062 52.1611C87.4062 43.5125 80.3951 36.5015 71.7466 36.5015C63.098 36.5015 56.0869 43.5125 56.0869 52.1611C56.0869 60.8097 63.098 67.8207 71.7466 67.8207Z" fill="#1FBBFF"/>
<path d="M71.2837 67.2712C79.9322 67.2712 86.9433 60.2601 86.9433 51.6115C86.9433 42.963 79.9322 35.9519 71.2837 35.9519C62.6351 35.9519 55.624 42.963 55.624 51.6115C55.624 60.2601 62.6351 67.2712 71.2837 67.2712Z" fill="#20BAFF"/>
<path d="M70.8159 66.7211C79.4645 66.7211 86.4755 59.7101 86.4755 51.0615C86.4755 42.4129 79.4645 35.4019 70.8159 35.4019C62.1673 35.4019 55.1562 42.4129 55.1562 51.0615C55.1562 59.7101 62.1673 66.7211 70.8159 66.7211Z" fill="#20B9FF"/>
<path d="M70.3559 66.1718C79.0045 66.1718 86.0156 59.1608 86.0156 50.5122C86.0156 41.8636 79.0045 34.8525 70.3559 34.8525C61.7073 34.8525 54.6963 41.8636 54.6963 50.5122C54.6963 59.1608 61.7073 66.1718 70.3559 66.1718Z" fill="#21B8FF"/>
<path d="M69.8901 65.6218C78.5387 65.6218 85.5497 58.6107 85.5497 49.9621C85.5497 41.3135 78.5387 34.3025 69.8901 34.3025C61.2415 34.3025 54.2305 41.3135 54.2305 49.9621C54.2305 58.6107 61.2415 65.6218 69.8901 65.6218Z" fill="#22B7FF"/>
<path d="M69.4233 65.0722C78.0719 65.0722 85.0829 58.0611 85.0829 49.4126C85.0829 40.764 78.0719 33.7529 69.4233 33.7529C60.7747 33.7529 53.7637 40.764 53.7637 49.4126C53.7637 58.0611 60.7747 65.0722 69.4233 65.0722Z" fill="#22B6FF"/>
<path d="M68.9585 64.5222C77.607 64.5222 84.6181 57.5111 84.6181 48.8625C84.6181 40.2139 77.607 33.2029 68.9585 33.2029C60.3099 33.2029 53.2988 40.2139 53.2988 48.8625C53.2988 57.5111 60.3099 64.5222 68.9585 64.5222Z" fill="#23B5FF"/>
<path d="M68.4956 63.9731C77.1442 63.9731 84.1552 56.962 84.1552 48.3134C84.1552 39.6649 77.1442 32.6538 68.4956 32.6538C59.847 32.6538 52.8359 39.6649 52.8359 48.3134C52.8359 56.962 59.847 63.9731 68.4956 63.9731Z" fill="#24B4FF"/>
<path d="M68.0307 63.4235C76.6793 63.4235 83.6904 56.4125 83.6904 47.7639C83.6904 39.1153 76.6793 32.1042 68.0307 32.1042C59.3822 32.1042 52.3711 39.1153 52.3711 47.7639C52.3711 56.4125 59.3822 63.4235 68.0307 63.4235Z" fill="#24B3FF"/>
<path d="M67.5639 62.8735C76.2125 62.8735 83.2236 55.8624 83.2236 47.2138C83.2236 38.5653 76.2125 31.5542 67.5639 31.5542C58.9154 31.5542 51.9043 38.5653 51.9043 47.2138C51.9043 55.8624 58.9154 62.8735 67.5639 62.8735Z" fill="#25B2FF"/>
<path d="M67.103 62.3239C75.7516 62.3239 82.7626 55.3129 82.7626 46.6643C82.7626 38.0157 75.7516 31.0046 67.103 31.0046C58.4544 31.0046 51.4434 38.0157 51.4434 46.6643C51.4434 55.3129 58.4544 62.3239 67.103 62.3239Z" fill="#25B1FF"/>
<path d="M66.6381 61.7743C75.2867 61.7743 82.2978 54.7633 82.2978 46.1147C82.2978 37.4661 75.2867 30.4551 66.6381 30.4551C57.9896 30.4551 50.9785 37.4661 50.9785 46.1147C50.9785 54.7633 57.9896 61.7743 66.6381 61.7743Z" fill="#26B0FF"/>
<path d="M66.1714 61.2245C74.8199 61.2245 81.831 54.2135 81.831 45.5649C81.831 36.9163 74.8199 29.9053 66.1714 29.9053C57.5228 29.9053 50.5117 36.9163 50.5117 45.5649C50.5117 54.2135 57.5228 61.2245 66.1714 61.2245Z" fill="#27AFFF"/>
<path d="M65.7104 60.6747C74.359 60.6747 81.3701 53.6637 81.3701 45.0151C81.3701 36.3665 74.359 29.3555 65.7104 29.3555C57.0618 29.3555 50.0508 36.3665 50.0508 45.0151C50.0508 53.6637 57.0618 60.6747 65.7104 60.6747Z" fill="#27AEFF"/>
<path d="M65.2436 60.1249C73.8922 60.1249 80.9033 53.1139 80.9033 44.4653C80.9033 35.8167 73.8922 28.8057 65.2436 28.8057C56.595 28.8057 49.584 35.8167 49.584 44.4653C49.584 53.1139 56.595 60.1249 65.2436 60.1249Z" fill="#28ADFF"/>
<path d="M64.7778 59.5759C73.4264 59.5759 80.4374 52.5648 80.4374 43.9162C80.4374 35.2677 73.4264 28.2566 64.7778 28.2566C56.1292 28.2566 49.1182 35.2677 49.1182 43.9162C49.1182 52.5648 56.1292 59.5759 64.7778 59.5759Z" fill="#28ACFF"/>
<path d="M64.3178 59.0258C72.9664 59.0258 79.9775 52.0148 79.9775 43.3662C79.9775 34.7176 72.9664 27.7065 64.3178 27.7065C55.6693 27.7065 48.6582 34.7176 48.6582 43.3662C48.6582 52.0148 55.6693 59.0258 64.3178 59.0258Z" fill="#29ABFF"/>
<path d="M63.851 58.4763C72.4996 58.4763 79.5107 51.4652 79.5107 42.8166C79.5107 34.168 72.4996 27.157 63.851 27.157C55.2025 27.157 48.1914 34.168 48.1914 42.8166C48.1914 51.4652 55.2025 58.4763 63.851 58.4763Z" fill="#2AAAFF"/>
<path d="M63.3872 57.9262C72.0357 57.9262 79.0468 50.9151 79.0468 42.2666C79.0468 33.618 72.0357 26.6069 63.3872 26.6069C54.7386 26.6069 47.7275 33.618 47.7275 42.2666C47.7275 50.9151 54.7386 57.9262 63.3872 57.9262Z" fill="#2AA9FF"/>
<path d="M62.9536 57.5825C71.6022 57.5825 78.6132 50.5714 78.6132 41.9228C78.6132 33.2742 71.6022 26.2632 62.9536 26.2632C54.305 26.2632 47.2939 33.2742 47.2939 41.9228C47.2939 50.5714 54.305 57.5825 62.9536 57.5825Z" fill="#2BA8FF"/>
<path d="M62.6714 58.2451C71.3199 58.2451 78.331 51.234 78.331 42.5854C78.331 33.9368 71.3199 26.9258 62.6714 26.9258C54.0228 26.9258 47.0117 33.9368 47.0117 42.5854C47.0117 51.234 54.0228 58.2451 62.6714 58.2451Z" fill="#2CA7FF"/>
<path d="M62.3901 58.9084C71.0387 58.9084 78.0497 51.8973 78.0497 43.2487C78.0497 34.6002 71.0387 27.5891 62.3901 27.5891C53.7415 27.5891 46.7305 34.6002 46.7305 43.2487C46.7305 51.8973 53.7415 58.9084 62.3901 58.9084Z" fill="#2CA6FF"/>
<path d="M62.1118 59.571C70.7604 59.571 77.7714 52.5599 77.7714 43.9113C77.7714 35.2628 70.7604 28.2517 62.1118 28.2517C53.4632 28.2517 46.4521 35.2628 46.4521 43.9113C46.4521 52.5599 53.4632 59.571 62.1118 59.571Z" fill="#2DA5FF"/>
<path d="M61.8325 60.2343C70.4811 60.2343 77.4921 53.2233 77.4921 44.5747C77.4921 35.9261 70.4811 28.915 61.8325 28.915C53.1839 28.915 46.1729 35.9261 46.1729 44.5747C46.1729 53.2233 53.1839 60.2343 61.8325 60.2343Z" fill="#2DA4FF"/>
<path d="M61.5522 60.8969C70.2008 60.8969 77.2118 53.8858 77.2118 45.2373C77.2118 36.5887 70.2008 29.5776 61.5522 29.5776C52.9036 29.5776 45.8926 36.5887 45.8926 45.2373C45.8926 53.8858 52.9036 60.8969 61.5522 60.8969Z" fill="#2EA3FF"/>
<path d="M61.271 61.5602C69.9195 61.5602 76.9306 54.5492 76.9306 45.9006C76.9306 37.252 69.9195 30.241 61.271 30.241C52.6224 30.241 45.6113 37.252 45.6113 45.9006C45.6113 54.5492 52.6224 61.5602 61.271 61.5602Z" fill="#2FA2FF"/>
<path d="M60.9887 62.2228C69.6373 62.2228 76.6484 55.2118 76.6484 46.5632C76.6484 37.9146 69.6373 30.9036 60.9887 30.9036C52.3402 30.9036 45.3291 37.9146 45.3291 46.5632C45.3291 55.2118 52.3402 62.2228 60.9887 62.2228Z" fill="#2FA1FF"/>
<path d="M60.7094 62.8862C69.358 62.8862 76.3691 55.8751 76.3691 47.2265C76.3691 38.578 69.358 31.5669 60.7094 31.5669C52.0609 31.5669 45.0498 38.578 45.0498 47.2265C45.0498 55.8751 52.0609 62.8862 60.7094 62.8862Z" fill="#30A0FF"/>
<path d="M60.4272 63.5492C69.0758 63.5492 76.0868 56.5382 76.0868 47.8896C76.0868 39.241 69.0758 32.23 60.4272 32.23C51.7786 32.23 44.7676 39.241 44.7676 47.8896C44.7676 56.5382 51.7786 63.5492 60.4272 63.5492Z" fill="#309FFF"/>
<path d="M60.146 64.2121C68.7945 64.2121 75.8056 57.201 75.8056 48.5525C75.8056 39.9039 68.7945 32.8928 60.146 32.8928C51.4974 32.8928 44.4863 39.9039 44.4863 48.5525C44.4863 57.201 51.4974 64.2121 60.146 64.2121Z" fill="#319EFF"/>
<path d="M59.8686 64.8749C68.5172 64.8749 75.5283 57.8639 75.5283 49.2153C75.5283 40.5667 68.5172 33.5557 59.8686 33.5557C51.22 33.5557 44.209 40.5667 44.209 49.2153C44.209 57.8639 51.22 64.8749 59.8686 64.8749Z" fill="#329DFF"/>
<path d="M59.5864 65.538C68.235 65.538 75.246 58.527 75.246 49.8784C75.246 41.2298 68.235 34.2188 59.5864 34.2188C50.9378 34.2188 43.9268 41.2298 43.9268 49.8784C43.9268 58.527 50.9378 65.538 59.5864 65.538Z" fill="#329CFF"/>
<path d="M59.3071 66.2011C67.9557 66.2011 74.9667 59.19 74.9667 50.5415C74.9667 41.8929 67.9557 34.8818 59.3071 34.8818C50.6585 34.8818 43.6475 41.8929 43.6475 50.5415C43.6475 59.19 50.6585 66.2011 59.3071 66.2011Z" fill="#339BFF"/>
<path d="M59.0249 66.8639C67.6734 66.8639 74.6845 59.8529 74.6845 51.2043C74.6845 42.5557 67.6734 35.5447 59.0249 35.5447C50.3763 35.5447 43.3652 42.5557 43.3652 51.2043C43.3652 59.8529 50.3763 66.8639 59.0249 66.8639Z" fill="#349AFF"/>
<path d="M58.7436 67.5268C67.3922 67.5268 74.4033 60.5157 74.4033 51.8672C74.4033 43.2186 67.3922 36.2075 58.7436 36.2075C50.095 36.2075 43.084 43.2186 43.084 51.8672C43.084 60.5157 50.095 67.5268 58.7436 67.5268Z" fill="#3499FF"/>
<path d="M58.4633 68.1855C67.1119 68.1855 74.123 61.1744 74.123 52.5258C74.123 43.8773 67.1119 36.8662 58.4633 36.8662C49.8148 36.8662 42.8037 43.8773 42.8037 52.5258C42.8037 61.1744 49.8148 68.1855 58.4633 68.1855Z" fill="#3598FF"/>
<path d="M58.188 68.8486C66.8365 68.8486 73.8476 61.8375 73.8476 53.1889C73.8476 44.5404 66.8365 37.5293 58.188 37.5293C49.5394 37.5293 42.5283 44.5404 42.5283 53.1889C42.5283 61.8375 49.5394 68.8486 58.188 68.8486Z" fill="#3597FF"/>
<path d="M57.9057 69.5119C66.5543 69.5119 73.5654 62.5008 73.5654 53.8523C73.5654 45.2037 66.5543 38.1926 57.9057 38.1926C49.2572 38.1926 42.2461 45.2037 42.2461 53.8523C42.2461 62.5008 49.2572 69.5119 57.9057 69.5119Z" fill="#3696FF"/>
<path d="M57.6245 70.1745C66.2731 70.1745 73.2841 63.1634 73.2841 54.5149C73.2841 45.8663 66.2731 38.8552 57.6245 38.8552C48.9759 38.8552 41.9648 45.8663 41.9648 54.5149C41.9648 63.1634 48.9759 70.1745 57.6245 70.1745Z" fill="#3795FF"/>
<path d="M57.3423 70.8373C65.9908 70.8373 73.0019 63.8263 73.0019 55.1777C73.0019 46.5291 65.9908 39.5181 57.3423 39.5181C48.6937 39.5181 41.6826 46.5291 41.6826 55.1777C41.6826 63.8263 48.6937 70.8373 57.3423 70.8373Z" fill="#3794FF"/>
<path d="M57.062 71.5007C65.7106 71.5007 72.7216 64.4896 72.7216 55.841C72.7216 47.1925 65.7106 40.1814 57.062 40.1814C48.4134 40.1814 41.4023 47.1925 41.4023 55.841C41.4023 64.4896 48.4134 71.5007 57.062 71.5007Z" fill="#3893FF"/>
<path d="M56.7807 72.1638C65.4293 72.1638 72.4404 65.1527 72.4404 56.5041C72.4404 47.8555 65.4293 40.8445 56.7807 40.8445C48.1322 40.8445 41.1211 47.8555 41.1211 56.5041C41.1211 65.1527 48.1322 72.1638 56.7807 72.1638Z" fill="#3892FF"/>
<path d="M56.4985 72.8266C65.1471 72.8266 72.1581 65.8155 72.1581 57.167C72.1581 48.5184 65.1471 41.5073 56.4985 41.5073C47.8499 41.5073 40.8389 48.5184 40.8389 57.167C40.8389 65.8155 47.8499 72.8266 56.4985 72.8266Z" fill="#3991FF"/>
<path d="M56.2221 73.4897C64.8707 73.4897 71.8818 66.4786 71.8818 57.83C71.8818 49.1815 64.8707 42.1704 56.2221 42.1704C47.5736 42.1704 40.5625 49.1815 40.5625 57.83C40.5625 66.4786 47.5736 73.4897 56.2221 73.4897Z" fill="#3A90FF"/>
<path d="M55.9399 74.1525C64.5885 74.1525 71.5995 67.1415 71.5995 58.4929C71.5995 49.8443 64.5885 42.8333 55.9399 42.8333C47.2913 42.8333 40.2803 49.8443 40.2803 58.4929C40.2803 67.1415 47.2913 74.1525 55.9399 74.1525Z" fill="#3A8FFF"/>
<path d="M55.6596 74.8156C64.3082 74.8156 71.3193 67.8045 71.3193 59.156C71.3193 50.5074 64.3082 43.4963 55.6596 43.4963C47.0111 43.4963 40 50.5074 40 59.156C40 67.8045 47.0111 74.8156 55.6596 74.8156Z" fill="#3B8EFF"/>
<path d="M55.3803 75.4785C64.0289 75.4785 71.04 68.4674 71.04 59.8188C71.04 51.1702 64.0289 44.1592 55.3803 44.1592C46.7318 44.1592 39.7207 51.1702 39.7207 59.8188C39.7207 68.4674 46.7318 75.4785 55.3803 75.4785Z" fill="#3B8DFF"/>
<path d="M55.1001 76.1415C63.7486 76.1415 70.7597 69.1305 70.7597 60.4819C70.7597 51.8333 63.7486 44.8223 55.1001 44.8223C46.4515 44.8223 39.4404 51.8333 39.4404 60.4819C39.4404 69.1305 46.4515 76.1415 55.1001 76.1415Z" fill="#3C8CFF"/>
<path d="M54.8178 76.8044C63.4664 76.8044 70.4775 69.7933 70.4775 61.1447C70.4775 52.4962 63.4664 45.4851 54.8178 45.4851C46.1693 45.4851 39.1582 52.4962 39.1582 61.1447C39.1582 69.7933 46.1693 76.8044 54.8178 76.8044Z" fill="#3D8BFF"/>
<path d="M54.5366 77.4675C63.1852 77.4675 70.1962 70.4564 70.1962 61.8078C70.1962 53.1592 63.1852 46.1482 54.5366 46.1482C45.888 46.1482 38.877 53.1592 38.877 61.8078C38.877 70.4564 45.888 77.4675 54.5366 77.4675Z" fill="#3D8AFF"/>
<path d="M54.2592 78.1303C62.9078 78.1303 69.9189 71.1193 69.9189 62.4707C69.9189 53.8221 62.9078 46.811 54.2592 46.811C45.6107 46.811 38.5996 53.8221 38.5996 62.4707C38.5996 71.1193 45.6107 78.1303 54.2592 78.1303Z" fill="#3E89FF"/>
<path d="M53.978 78.7934C62.6266 78.7934 69.6376 71.7823 69.6376 63.1338C69.6376 54.4852 62.6266 47.4741 53.978 47.4741C45.3294 47.4741 38.3184 54.4852 38.3184 63.1338C38.3184 71.7823 45.3294 78.7934 53.978 78.7934Z" fill="#3F88FF"/>
<path d="M53.6977 79.4562C62.3463 79.4562 69.3573 72.4452 69.3573 63.7966C69.3573 55.148 62.3463 48.137 53.6977 48.137C45.0491 48.137 38.0381 55.148 38.0381 63.7966C38.0381 72.4452 45.0491 79.4562 53.6977 79.4562Z" fill="#3F87FF"/>
<path d="M53.4155 80.1188C62.0641 80.1188 69.0751 73.1078 69.0751 64.4592C69.0751 55.8106 62.0641 48.7996 53.4155 48.7996C44.7669 48.7996 37.7559 55.8106 37.7559 64.4592C37.7559 73.1078 44.7669 80.1188 53.4155 80.1188Z" fill="#4086FF"/>
<path d="M53.1342 80.7822C61.7828 80.7822 68.7939 73.7711 68.7939 65.1225C68.7939 56.4739 61.7828 49.4629 53.1342 49.4629C44.4857 49.4629 37.4746 56.4739 37.4746 65.1225C37.4746 73.7711 44.4857 80.7822 53.1342 80.7822Z" fill="#4085FF"/>
<path d="M52.852 81.4452C61.5006 81.4452 68.5117 74.4342 68.5117 65.7856C68.5117 57.137 61.5006 50.126 52.852 50.126C44.2034 50.126 37.1924 57.137 37.1924 65.7856C37.1924 74.4342 44.2034 81.4452 52.852 81.4452Z" fill="#4184FF"/>
<path d="M52.5717 82.1083C61.2203 82.1083 68.2314 75.0973 68.2314 66.4487C68.2314 57.8001 61.2203 50.7891 52.5717 50.7891C43.9232 50.7891 36.9121 57.8001 36.9121 66.4487C36.9121 75.0973 43.9232 82.1083 52.5717 82.1083Z" fill="#4283FF"/>
<path d="M52.2954 82.7673C60.944 82.7673 67.955 75.7562 67.955 67.1076C67.955 58.4591 60.944 51.448 52.2954 51.448C43.6468 51.448 36.6357 58.4591 36.6357 67.1076C36.6357 75.7562 43.6468 82.7673 52.2954 82.7673Z" fill="#4282FF"/>
<path d="M52.0132 83.4296C60.6617 83.4296 67.6728 76.4186 67.6728 67.77C67.6728 59.1214 60.6617 52.1104 52.0132 52.1104C43.3646 52.1104 36.3535 59.1214 36.3535 67.77C36.3535 76.4186 43.3646 83.4296 52.0132 83.4296Z" fill="#4381FF"/>
<path d="M51.7319 84.0927C60.3805 84.0927 67.3915 77.0816 67.3915 68.4331C67.3915 59.7845 60.3805 52.7734 51.7319 52.7734C43.0833 52.7734 36.0723 59.7845 36.0723 68.4331C36.0723 77.0816 43.0833 84.0927 51.7319 84.0927Z" fill="#4380FF"/>
<path d="M51.4536 84.756C60.1022 84.756 67.1132 77.745 67.1132 69.0964C67.1132 60.4478 60.1022 53.4368 51.4536 53.4368C42.805 53.4368 35.7939 60.4478 35.7939 69.0964C35.7939 77.745 42.805 84.756 51.4536 84.756Z" fill="#447FFF"/>
<path d="M51.1714 85.4191C59.8199 85.4191 66.831 78.4081 66.831 69.7595C66.831 61.1109 59.8199 54.0999 51.1714 54.0999C42.5228 54.0999 35.5117 61.1109 35.5117 69.7595C35.5117 78.4081 42.5228 85.4191 51.1714 85.4191Z" fill="#457EFF"/>
<path d="M50.8901 86.082C59.5387 86.082 66.5497 79.0709 66.5497 70.4223C66.5497 61.7738 59.5387 54.7627 50.8901 54.7627C42.2415 54.7627 35.2305 61.7738 35.2305 70.4223C35.2305 79.0709 42.2415 86.082 50.8901 86.082Z" fill="#457DFF"/>
<path d="M50.6128 86.7446C59.2613 86.7446 66.2724 79.7335 66.2724 71.0849C66.2724 62.4364 59.2613 55.4253 50.6128 55.4253C41.9642 55.4253 34.9531 62.4364 34.9531 71.0849C34.9531 79.7335 41.9642 86.7446 50.6128 86.7446Z" fill="#467CFF"/>
<path d="M50.3305 87.4079C58.9791 87.4079 65.9902 80.3968 65.9902 71.7483C65.9902 63.0997 58.9791 56.0886 50.3305 56.0886C41.682 56.0886 34.6709 63.0997 34.6709 71.7483C34.6709 80.3968 41.682 87.4079 50.3305 87.4079Z" fill="#477BFF"/>
<path d="M50.0512 88.0705C58.6998 88.0705 65.7109 81.0594 65.7109 72.4109C65.7109 63.7623 58.6998 56.7512 50.0512 56.7512C41.4027 56.7512 34.3916 63.7623 34.3916 72.4109C34.3916 81.0594 41.4027 88.0705 50.0512 88.0705Z" fill="#477AFF"/>
<path d="M49.769 88.7338C58.4176 88.7338 65.4286 81.7228 65.4286 73.0742C65.4286 64.4256 58.4176 57.4146 49.769 57.4146C41.1204 57.4146 34.1094 64.4256 34.1094 73.0742C34.1094 81.7228 41.1204 88.7338 49.769 88.7338Z" fill="#4879FF"/>
<path d="M49.4878 89.3964C58.1363 89.3964 65.1474 82.3854 65.1474 73.7368C65.1474 65.0882 58.1363 58.0771 49.4878 58.0771C40.8392 58.0771 33.8281 65.0882 33.8281 73.7368C33.8281 82.3854 40.8392 89.3964 49.4878 89.3964Z" fill="#4878FF"/>
<path d="M49.2075 90.0597C57.8561 90.0597 64.8671 83.0487 64.8671 74.4001C64.8671 65.7515 57.8561 58.7405 49.2075 58.7405C40.5589 58.7405 33.5479 65.7515 33.5479 74.4001C33.5479 83.0487 40.5589 90.0597 49.2075 90.0597Z" fill="#4977FF"/>
<path d="M48.9253 90.7223C57.5738 90.7223 64.5849 83.7113 64.5849 75.0627C64.5849 66.4141 57.5738 59.4031 48.9253 59.4031C40.2767 59.4031 33.2656 66.4141 33.2656 75.0627C33.2656 83.7113 40.2767 90.7223 48.9253 90.7223Z" fill="#4A76FF"/>
<path d="M48.6499 91.3857C57.2984 91.3857 64.3095 84.3746 64.3095 75.726C64.3095 67.0775 57.2984 60.0664 48.6499 60.0664C40.0013 60.0664 32.9902 67.0775 32.9902 75.726C32.9902 84.3746 40.0013 91.3857 48.6499 91.3857Z" fill="#4A75FF"/>
<path d="M48.3686 92.0488C57.0172 92.0488 64.0283 85.0377 64.0283 76.3891C64.0283 67.7406 57.0172 60.7295 48.3686 60.7295C39.72 60.7295 32.709 67.7406 32.709 76.3891C32.709 85.0377 39.72 92.0488 48.3686 92.0488Z" fill="#4B74FF"/>
<path d="M48.0864 92.7116C56.735 92.7116 63.746 85.7006 63.746 77.052C63.746 68.4034 56.735 61.3923 48.0864 61.3923C39.4378 61.3923 32.4268 68.4034 32.4268 77.052C32.4268 85.7006 39.4378 92.7116 48.0864 92.7116Z" fill="#4B73FF"/>
<path d="M47.8061 93.3744C56.4547 93.3744 63.4658 86.3634 63.4658 77.7148C63.4658 69.0662 56.4547 62.0552 47.8061 62.0552C39.1575 62.0552 32.1465 69.0662 32.1465 77.7148C32.1465 86.3634 39.1575 93.3744 47.8061 93.3744Z" fill="#4C72FF"/>
<path d="M47.5249 94.0375C56.1734 94.0375 63.1845 87.0265 63.1845 78.3779C63.1845 69.7293 56.1734 62.7183 47.5249 62.7183C38.8763 62.7183 31.8652 69.7293 31.8652 78.3779C31.8652 87.0265 38.8763 94.0375 47.5249 94.0375Z" fill="#4D71FF"/>
<path d="M47.2426 94.7006C55.8912 94.7006 62.9023 87.6896 62.9023 79.041C62.9023 70.3924 55.8912 63.3813 47.2426 63.3813C38.5941 63.3813 31.583 70.3924 31.583 79.041C31.583 87.6896 38.5941 94.7006 47.2426 94.7006Z" fill="#4D70FF"/>
<path d="M46.9633 95.3635C55.6119 95.3635 62.623 88.3524 62.623 79.7038C62.623 71.0552 55.6119 64.0442 46.9633 64.0442C38.3148 64.0442 31.3037 71.0552 31.3037 79.7038C31.3037 88.3524 38.3148 95.3635 46.9633 95.3635Z" fill="#4E6FFF"/>
<path d="M46.684 96.0263C55.3326 96.0263 62.3437 89.0152 62.3437 80.3667C62.3437 71.7181 55.3326 64.707 46.684 64.707C38.0355 64.707 31.0244 71.7181 31.0244 80.3667C31.0244 89.0152 38.0355 96.0263 46.684 96.0263Z" fill="#4F6EFF"/>
<path d="M46.4038 96.685C55.0524 96.685 62.0634 89.6739 62.0634 81.0254C62.0634 72.3768 55.0524 65.3657 46.4038 65.3657C37.7552 65.3657 30.7441 72.3768 30.7441 81.0254C30.7441 89.6739 37.7552 96.685 46.4038 96.685Z" fill="#4F6DFF"/>
<path d="M46.1225 97.3481C54.7711 97.3481 61.7822 90.337 61.7822 81.6884C61.7822 73.0399 54.7711 66.0288 46.1225 66.0288C37.4739 66.0288 30.4629 73.0399 30.4629 81.6884C30.4629 90.337 37.4739 97.3481 46.1225 97.3481Z" fill="#506CFF"/>
<path d="M45.8413 98.0114C54.4899 98.0114 61.5009 91.0003 61.5009 82.3518C61.5009 73.7032 54.4899 66.6921 45.8413 66.6921C37.1927 66.6921 30.1816 73.7032 30.1816 82.3518C30.1816 91.0003 37.1927 98.0114 45.8413 98.0114Z" fill="#506BFF"/>
<path d="M45.561 98.674C54.2096 98.674 61.2206 91.6629 61.2206 83.0144C61.2206 74.3658 54.2096 67.3547 45.561 67.3547C36.9124 67.3547 29.9014 74.3658 29.9014 83.0144C29.9014 91.6629 36.9124 98.674 45.561 98.674Z" fill="#516AFF"/>
<path d="M45.2788 99.3373C53.9274 99.3373 60.9384 92.3263 60.9384 83.6777C60.9384 75.0291 53.9274 68.0181 45.2788 68.0181C36.6302 68.0181 29.6191 75.0291 29.6191 83.6777C29.6191 92.3263 36.6302 99.3373 45.2788 99.3373Z" fill="#5269FF"/>
<path d="M45.0024 99.9999C53.651 99.9999 60.662 92.9889 60.662 84.3403C60.662 75.6917 53.651 68.6807 45.0024 68.6807C36.3538 68.6807 29.3428 75.6917 29.3428 84.3403C29.3428 92.9889 36.3538 99.9999 45.0024 99.9999Z" fill="#5268FF"/>
<path d="M44.7173 99.5178C53.3658 99.5178 60.3769 92.5067 60.3769 83.8581C60.3769 75.2095 53.3658 68.1985 44.7173 68.1985C36.0687 68.1985 29.0576 75.2095 29.0576 83.8581C29.0576 92.5067 36.0687 99.5178 44.7173 99.5178Z" fill="#5367FF"/>
<path d="M44.437 98.8547C53.0856 98.8547 60.0966 91.8436 60.0966 83.195C60.0966 74.5465 53.0856 67.5354 44.437 67.5354C35.7884 67.5354 28.7773 74.5465 28.7773 83.195C28.7773 91.8436 35.7884 98.8547 44.437 98.8547Z" fill="#5366FF"/>
<path d="M44.1548 98.1918C52.8033 98.1918 59.8144 91.1808 59.8144 82.5322C59.8144 73.8836 52.8033 66.8726 44.1548 66.8726C35.5062 66.8726 28.4951 73.8836 28.4951 82.5322C28.4951 91.1808 35.5062 98.1918 44.1548 98.1918Z" fill="#5465FF"/>
<path d="M43.8755 97.5287C52.524 97.5287 59.5351 90.5177 59.5351 81.8691C59.5351 73.2205 52.524 66.2095 43.8755 66.2095C35.2269 66.2095 28.2158 73.2205 28.2158 81.8691C28.2158 90.5177 35.2269 97.5287 43.8755 97.5287Z" fill="#5564FF"/>
<path d="M43.5874 96.8698C52.2359 96.8698 59.247 89.8587 59.247 81.2102C59.247 72.5616 52.2359 65.5505 43.5874 65.5505C34.9388 65.5505 27.9277 72.5616 27.9277 81.2102C27.9277 89.8587 34.9388 96.8698 43.5874 96.8698Z" fill="#5563FF"/>
<path d="M43.3081 96.207C51.9566 96.207 58.9677 89.1959 58.9677 80.5473C58.9677 71.8988 51.9566 64.8877 43.3081 64.8877C34.6595 64.8877 27.6484 71.8988 27.6484 80.5473C27.6484 89.1959 34.6595 96.207 43.3081 96.207Z" fill="#5662FF"/>
<path d="M43.0268 95.5439C51.6754 95.5439 58.6865 88.5328 58.6865 79.8842C58.6865 71.2357 51.6754 64.2246 43.0268 64.2246C34.3782 64.2246 27.3672 71.2357 27.3672 79.8842C27.3672 88.5328 34.3782 95.5439 43.0268 95.5439Z" fill="#5661FF"/>
<path d="M42.7446 94.8808C51.3932 94.8808 58.4042 87.8697 58.4042 79.2212C58.4042 70.5726 51.3932 63.5615 42.7446 63.5615C34.096 63.5615 27.085 70.5726 27.085 79.2212C27.085 87.8697 34.096 94.8808 42.7446 94.8808Z" fill="#5760FF"/>
<path d="M42.4604 94.218C51.109 94.218 58.1201 87.2069 58.1201 78.5583C58.1201 69.9097 51.109 62.8987 42.4604 62.8987C33.8118 62.8987 26.8008 69.9097 26.8008 78.5583C26.8008 87.2069 33.8118 94.218 42.4604 94.218Z" fill="#585FFF"/>
<path d="M42.1801 93.559C50.8287 93.559 57.8398 86.548 57.8398 77.8994C57.8398 69.2508 50.8287 62.2397 42.1801 62.2397C33.5316 62.2397 26.5205 69.2508 26.5205 77.8994C26.5205 86.548 33.5316 93.559 42.1801 93.559Z" fill="#585EFF"/>
<path d="M41.8979 92.8959C50.5465 92.8959 57.5576 85.8849 57.5576 77.2363C57.5576 68.5877 50.5465 61.5767 41.8979 61.5767C33.2493 61.5767 26.2383 68.5877 26.2383 77.2363C26.2383 85.8849 33.2493 92.8959 41.8979 92.8959Z" fill="#595DFF"/>
<path d="M41.6167 92.2336C50.2652 92.2336 57.2763 85.2225 57.2763 76.5739C57.2763 67.9254 50.2652 60.9143 41.6167 60.9143C32.9681 60.9143 25.957 67.9254 25.957 76.5739C25.957 85.2225 32.9681 92.2336 41.6167 92.2336Z" fill="#5A5CFF"/>
<path d="M41.3344 91.5705C49.983 91.5705 56.9941 84.5594 56.9941 75.9109C56.9941 67.2623 49.983 60.2512 41.3344 60.2512C32.6859 60.2512 25.6748 67.2623 25.6748 75.9109C25.6748 84.5594 32.6859 91.5705 41.3344 91.5705Z" fill="#5A5BFF"/>
<path d="M41.0503 90.9116C49.6988 90.9116 56.7099 83.9005 56.7099 75.2519C56.7099 66.6033 49.6988 59.5923 41.0503 59.5923C32.4017 59.5923 25.3906 66.6033 25.3906 75.2519C25.3906 83.9005 32.4017 90.9116 41.0503 90.9116Z" fill="#5B5AFF"/>
<path d="M40.77 90.2485C49.4186 90.2485 56.4296 83.2374 56.4296 74.5888C56.4296 65.9403 49.4186 58.9292 40.77 58.9292C32.1214 58.9292 25.1104 65.9403 25.1104 74.5888C25.1104 83.2374 32.1214 90.2485 40.77 90.2485Z" fill="#5B59FF"/>
<path d="M40.4878 89.5854C49.1363 89.5854 56.1474 82.5743 56.1474 73.9257C56.1474 65.2772 49.1363 58.2661 40.4878 58.2661C31.8392 58.2661 24.8281 65.2772 24.8281 73.9257C24.8281 82.5743 31.8392 89.5854 40.4878 89.5854Z" fill="#5C58FF"/>
<path d="M40.2065 88.9225C48.8551 88.9225 55.8661 81.9115 55.8661 73.2629C55.8661 64.6143 48.8551 57.6033 40.2065 57.6033C31.5579 57.6033 24.5469 64.6143 24.5469 73.2629C24.5469 81.9115 31.5579 88.9225 40.2065 88.9225Z" fill="#5D57FF"/>
<path d="M39.9214 88.2597C48.5699 88.2597 55.581 81.2486 55.581 72.6001C55.581 63.9515 48.5699 56.9404 39.9214 56.9404C31.2728 56.9404 24.2617 63.9515 24.2617 72.6001C24.2617 81.2486 31.2728 88.2597 39.9214 88.2597Z" fill="#5D56FF"/>
<path d="M39.6401 87.6005C48.2887 87.6005 55.2997 80.5895 55.2997 71.9409C55.2997 63.2923 48.2887 56.2812 39.6401 56.2812C30.9915 56.2812 23.9805 63.2923 23.9805 71.9409C23.9805 80.5895 30.9915 87.6005 39.6401 87.6005Z" fill="#5E55FF"/>
<path d="M39.3598 86.9382C48.0084 86.9382 55.0195 79.9271 55.0195 71.2785C55.0195 62.63 48.0084 55.6189 39.3598 55.6189C30.7113 55.6189 23.7002 62.63 23.7002 71.2785C23.7002 79.9271 30.7113 86.9382 39.3598 86.9382Z" fill="#5E54FF"/>
<path d="M39.0776 86.2751C47.7262 86.2751 54.7372 79.264 54.7372 70.6154C54.7372 61.9669 47.7262 54.9558 39.0776 54.9558C30.429 54.9558 23.418 61.9669 23.418 70.6154C23.418 79.264 30.429 86.2751 39.0776 86.2751Z" fill="#5F53FF"/>
<path d="M38.7924 85.6117C47.441 85.6117 54.4521 78.6007 54.4521 69.9521C54.4521 61.3035 47.441 54.2925 38.7924 54.2925C30.1439 54.2925 23.1328 61.3035 23.1328 69.9521C23.1328 78.6007 30.1439 85.6117 38.7924 85.6117Z" fill="#6052FF"/>
<path d="M38.5112 84.9487C47.1598 84.9487 54.1708 77.9376 54.1708 69.289C54.1708 60.6405 47.1598 53.6294 38.5112 53.6294C29.8626 53.6294 22.8516 60.6405 22.8516 69.289C22.8516 77.9376 29.8626 84.9487 38.5112 84.9487Z" fill="#6051FF"/>
<path d="M38.229 84.2897C46.8775 84.2897 53.8886 77.2787 53.8886 68.6301C53.8886 59.9815 46.8775 52.9705 38.229 52.9705C29.5804 52.9705 22.5693 59.9815 22.5693 68.6301C22.5693 77.2787 29.5804 84.2897 38.229 84.2897Z" fill="#6150FF"/>
<path d="M37.9497 83.6271C46.5983 83.6271 53.6093 76.6161 53.6093 67.9675C53.6093 59.3189 46.5983 52.3079 37.9497 52.3079C29.3011 52.3079 22.29 59.3189 22.29 67.9675C22.29 76.6161 29.3011 83.6271 37.9497 83.6271Z" fill="#624FFF"/>
<path d="M37.6674 82.9643C46.316 82.9643 53.3271 75.9532 53.3271 67.3047C53.3271 58.6561 46.316 51.645 37.6674 51.645C29.0189 51.645 22.0078 58.6561 22.0078 67.3047C22.0078 75.9532 29.0189 82.9643 37.6674 82.9643Z" fill="#624EFF"/>
<path d="M37.3823 82.3012C46.0309 82.3012 53.0419 75.2901 53.0419 66.6416C53.0419 57.993 46.0309 50.9819 37.3823 50.9819C28.7337 50.9819 21.7227 57.993 21.7227 66.6416C21.7227 75.2901 28.7337 82.3012 37.3823 82.3012Z" fill="#634DFF"/>
<path d="M37.101 81.6384C45.7496 81.6384 52.7607 74.6273 52.7607 65.9787C52.7607 57.3302 45.7496 50.3191 37.101 50.3191C28.4525 50.3191 21.4414 57.3302 21.4414 65.9787C21.4414 74.6273 28.4525 81.6384 37.101 81.6384Z" fill="#634CFF"/>
<path d="M36.8188 80.9794C45.4674 80.9794 52.4784 73.9684 52.4784 65.3198C52.4784 56.6712 45.4674 49.6602 36.8188 49.6602C28.1702 49.6602 21.1592 56.6712 21.1592 65.3198C21.1592 73.9684 28.1702 80.9794 36.8188 80.9794Z" fill="#644BFF"/>
<path d="M36.5395 80.3163C45.1881 80.3163 52.1992 73.3053 52.1992 64.6567C52.1992 56.0081 45.1881 48.9971 36.5395 48.9971C27.8909 48.9971 20.8799 56.0081 20.8799 64.6567C20.8799 73.3053 27.8909 80.3163 36.5395 80.3163Z" fill="#654AFF"/>
<path d="M36.2544 79.6533C44.9029 79.6533 51.914 72.6422 51.914 63.9936C51.914 55.345 44.9029 48.334 36.2544 48.334C27.6058 48.334 20.5947 55.345 20.5947 63.9936C20.5947 72.6422 27.6058 79.6533 36.2544 79.6533Z" fill="#6549FF"/>
<path d="M35.9721 78.9909C44.6207 78.9909 51.6318 71.9798 51.6318 63.3313C51.6318 54.6827 44.6207 47.6716 35.9721 47.6716C27.3236 47.6716 20.3125 54.6827 20.3125 63.3313C20.3125 71.9798 27.3236 78.9909 35.9721 78.9909Z" fill="#6648FF"/>
<path d="M35.6909 78.3276C44.3395 78.3276 51.3505 71.3165 51.3505 62.6679C51.3505 54.0194 44.3395 47.0083 35.6909 47.0083C27.0423 47.0083 20.0312 54.0194 20.0312 62.6679C20.0312 71.3165 27.0423 78.3276 35.6909 78.3276Z" fill="#6647FF"/>
<path d="M35.4087 77.6689C44.0572 77.6689 51.0683 70.6578 51.0683 62.0092C51.0683 53.3607 44.0572 46.3496 35.4087 46.3496C26.7601 46.3496 19.749 53.3607 19.749 62.0092C19.749 70.6578 26.7601 77.6689 35.4087 77.6689Z" fill="#6746FF"/>
<path d="M35.1245 77.0058C43.7731 77.0058 50.7841 69.9947 50.7841 61.3462C50.7841 52.6976 43.7731 45.6865 35.1245 45.6865C26.4759 45.6865 19.4648 52.6976 19.4648 61.3462C19.4648 69.9947 26.4759 77.0058 35.1245 77.0058Z" fill="#6845FF"/>
<path d="M34.8442 76.343C43.4928 76.343 50.5038 69.3319 50.5038 60.6833C50.5038 52.0347 43.4928 45.0237 34.8442 45.0237C26.1956 45.0237 19.1846 52.0347 19.1846 60.6833C19.1846 69.3319 26.1956 76.343 34.8442 76.343Z" fill="#6844FF"/>
<path d="M34.562 75.6799C43.2106 75.6799 50.2216 68.6688 50.2216 60.0202C50.2216 51.3716 43.2106 44.3606 34.562 44.3606C25.9134 44.3606 18.9023 51.3716 18.9023 60.0202C18.9023 68.6688 25.9134 75.6799 34.562 75.6799Z" fill="#6943FF"/>
<path d="M34.2807 75.0209C42.9293 75.0209 49.9404 68.0099 49.9404 59.3613C49.9404 50.7127 42.9293 43.7017 34.2807 43.7017C25.6321 43.7017 18.6211 50.7127 18.6211 59.3613C18.6211 68.0099 25.6321 75.0209 34.2807 75.0209Z" fill="#6A42FF"/>
<path d="M33.9956 74.3578C42.6441 74.3578 49.6552 67.3468 49.6552 58.6982C49.6552 50.0496 42.6441 43.0386 33.9956 43.0386C25.347 43.0386 18.3359 50.0496 18.3359 58.6982C18.3359 67.3468 25.347 74.3578 33.9956 74.3578Z" fill="#6A41FF"/>
<path d="M33.7173 73.6955C42.3658 73.6955 49.3769 66.6844 49.3769 58.0359C49.3769 49.3873 42.3658 42.3762 33.7173 42.3762C25.0687 42.3762 18.0576 49.3873 18.0576 58.0359C18.0576 66.6844 25.0687 73.6955 33.7173 73.6955Z" fill="#6B40FF"/>
<path d="M33.435 73.0322C42.0836 73.0322 49.0947 66.0211 49.0947 57.3725C49.0947 48.7239 42.0836 41.7129 33.435 41.7129C24.7864 41.7129 17.7754 48.7239 17.7754 57.3725C17.7754 66.0211 24.7864 73.0322 33.435 73.0322Z" fill="#6B3FFF"/>
<path d="M33.1538 72.3691C41.8024 72.3691 48.8134 65.358 48.8134 56.7094C48.8134 48.0609 41.8024 41.0498 33.1538 41.0498C24.5052 41.0498 17.4941 48.0609 17.4941 56.7094C17.4941 65.358 24.5052 72.3691 33.1538 72.3691Z" fill="#6C3EFF"/>
<path d="M32.8715 71.7104C41.5201 71.7104 48.5312 64.6993 48.5312 56.0507C48.5312 47.4022 41.5201 40.3911 32.8715 40.3911C24.223 40.3911 17.2119 47.4022 17.2119 56.0507C17.2119 64.6993 24.223 71.7104 32.8715 71.7104Z" fill="#6D3DFF"/>
<path d="M32.5854 71.0475C41.234 71.0475 48.2451 64.0365 48.2451 55.3879C48.2451 46.7393 41.234 39.7283 32.5854 39.7283C23.9368 39.7283 16.9258 46.7393 16.9258 55.3879C16.9258 64.0365 23.9368 71.0475 32.5854 71.0475Z" fill="#6D3CFF"/>
<path d="M32.3071 70.3842C40.9557 70.3842 47.9667 63.3732 47.9667 54.7246C47.9667 46.076 40.9557 39.0649 32.3071 39.0649C23.6585 39.0649 16.6475 46.076 16.6475 54.7246C16.6475 63.3732 23.6585 70.3842 32.3071 70.3842Z" fill="#6E3BFF"/>
<path d="M32.0249 69.7216C40.6734 69.7216 47.6845 62.7106 47.6845 54.062C47.6845 45.4134 40.6734 38.4023 32.0249 38.4023C23.3763 38.4023 16.3652 45.4134 16.3652 54.062C16.3652 62.7106 23.3763 69.7216 32.0249 69.7216Z" fill="#6E3AFF"/>
<path d="M31.7436 69.0583C40.3922 69.0583 47.4033 62.0472 47.4033 53.3986C47.4033 44.7501 40.3922 37.739 31.7436 37.739C23.095 37.739 16.084 44.7501 16.084 53.3986C16.084 62.0472 23.095 69.0583 31.7436 69.0583Z" fill="#6F39FF"/>
<path d="M31.4585 68.4001C40.107 68.4001 47.1181 61.389 47.1181 52.7404C47.1181 44.0919 40.107 37.0808 31.4585 37.0808C22.8099 37.0808 15.7988 44.0919 15.7988 52.7404C15.7988 61.389 22.8099 68.4001 31.4585 68.4001Z" fill="#7038FF"/>
<path d="M31.1772 67.7367C39.8258 67.7367 46.8368 60.7257 46.8368 52.0771C46.8368 43.4285 39.8258 36.4175 31.1772 36.4175C22.5286 36.4175 15.5176 43.4285 15.5176 52.0771C15.5176 60.7257 22.5286 67.7367 31.1772 67.7367Z" fill="#7037FF"/>
<path d="M30.8969 67.0737C39.5455 67.0737 46.5566 60.0626 46.5566 51.414C46.5566 42.7655 39.5455 35.7544 30.8969 35.7544C22.2484 35.7544 15.2373 42.7655 15.2373 51.414C15.2373 60.0626 22.2484 67.0737 30.8969 67.0737Z" fill="#7136FF"/>
<path d="M30.6147 66.4106C39.2633 66.4106 46.2743 59.3995 46.2743 50.7509C46.2743 42.1024 39.2633 35.0913 30.6147 35.0913C21.9661 35.0913 14.9551 42.1024 14.9551 50.7509C14.9551 59.3995 21.9661 66.4106 30.6147 66.4106Z" fill="#7135FF"/>
<path d="M30.3296 65.748C38.9781 65.748 45.9892 58.7369 45.9892 50.0883C45.9892 41.4398 38.9781 34.4287 30.3296 34.4287C21.681 34.4287 14.6699 41.4398 14.6699 50.0883C14.6699 58.7369 21.681 65.748 30.3296 65.748Z" fill="#7234FF"/>
<path d="M30.0483 65.0888C38.6969 65.0888 45.7079 58.0777 45.7079 49.4292C45.7079 40.7806 38.6969 33.7695 30.0483 33.7695C21.3997 33.7695 14.3887 40.7806 14.3887 49.4292C14.3887 58.0777 21.3997 65.0888 30.0483 65.0888Z" fill="#7333FF"/>
<path d="M29.7661 64.4262C38.4147 64.4262 45.4257 57.4151 45.4257 48.7666C45.4257 40.118 38.4147 33.1069 29.7661 33.1069C21.1175 33.1069 14.1064 40.118 14.1064 48.7666C14.1064 57.4151 21.1175 64.4262 29.7661 64.4262Z" fill="#7332FF"/>
<path d="M29.4868 63.7629C38.1354 63.7629 45.1464 56.7518 45.1464 48.1032C45.1464 39.4547 38.1354 32.4436 29.4868 32.4436C20.8382 32.4436 13.8271 39.4547 13.8271 48.1032C13.8271 56.7518 20.8382 63.7629 29.4868 63.7629Z" fill="#7431FF"/>
<path d="M29.2046 63.1003C37.8531 63.1003 44.8642 56.0892 44.8642 47.4406C44.8642 38.7921 37.8531 31.781 29.2046 31.781C20.556 31.781 13.5449 38.7921 13.5449 47.4406C13.5449 56.0892 20.556 63.1003 29.2046 63.1003Z" fill="#7530FF"/>
<path d="M28.9194 62.4369C37.568 62.4369 44.579 55.4259 44.579 46.7773C44.579 38.1287 37.568 31.1177 28.9194 31.1177C20.2708 31.1177 13.2598 38.1287 13.2598 46.7773C13.2598 55.4259 20.2708 62.4369 28.9194 62.4369Z" fill="#752FFF"/>
<path d="M28.6382 61.7783C37.2867 61.7783 44.2978 54.7672 44.2978 46.1186C44.2978 37.47 37.2867 30.459 28.6382 30.459C19.9896 30.459 12.9785 37.47 12.9785 46.1186C12.9785 54.7672 19.9896 61.7783 28.6382 61.7783Z" fill="#762EFF"/>
<path d="M28.3559 61.1149C37.0045 61.1149 44.0156 54.1039 44.0156 45.4553C44.0156 36.8067 37.0045 29.7957 28.3559 29.7957C19.7073 29.7957 12.6963 36.8067 12.6963 45.4553C12.6963 54.1039 19.7073 61.1149 28.3559 61.1149Z" fill="#762DFF"/>
<path d="M28.0766 60.4526C36.7252 60.4526 43.7363 53.4415 43.7363 44.7929C43.7363 36.1444 36.7252 29.1333 28.0766 29.1333C19.4281 29.1333 12.417 36.1444 12.417 44.7929C12.417 53.4415 19.4281 60.4526 28.0766 60.4526Z" fill="#772CFF"/>
<path d="M27.7915 59.7895C36.4401 59.7895 43.4511 52.7784 43.4511 44.1298C43.4511 35.4813 36.4401 28.4702 27.7915 28.4702C19.1429 28.4702 12.1318 35.4813 12.1318 44.1298C12.1318 52.7784 19.1429 59.7895 27.7915 59.7895Z" fill="#782BFF"/>
<path d="M27.5092 59.1308C36.1578 59.1308 43.1689 52.1197 43.1689 43.4712C43.1689 34.8226 36.1578 27.8115 27.5092 27.8115C18.8607 27.8115 11.8496 34.8226 11.8496 43.4712C11.8496 52.1197 18.8607 59.1308 27.5092 59.1308Z" fill="#782AFF"/>
<path d="M27.228 58.468C35.8766 58.468 42.8876 51.4569 42.8876 42.8083C42.8876 34.1597 35.8766 27.1487 27.228 27.1487C18.5794 27.1487 11.5684 34.1597 11.5684 42.8083C11.5684 51.4569 18.5794 58.468 27.228 58.468Z" fill="#7929FF"/>
<path d="M26.9458 57.8049C35.5943 57.8049 42.6054 50.7938 42.6054 42.1452C42.6054 33.4967 35.5943 26.4856 26.9458 26.4856C18.2972 26.4856 11.2861 33.4967 11.2861 42.1452C11.2861 50.7938 18.2972 57.8049 26.9458 57.8049Z" fill="#7928FF"/>
<path d="M26.6616 57.1415C35.3102 57.1415 42.3212 50.1305 42.3212 41.4819C42.3212 32.8333 35.3102 25.8223 26.6616 25.8223C18.013 25.8223 11.002 32.8333 11.002 41.4819C11.002 50.1305 18.013 57.1415 26.6616 57.1415Z" fill="#7A27FF"/>
<path d="M26.3813 56.4787C35.0299 56.4787 42.0409 49.4676 42.0409 40.8191C42.0409 32.1705 35.0299 25.1594 26.3813 25.1594C17.7327 25.1594 10.7217 32.1705 10.7217 40.8191C10.7217 49.4676 17.7327 56.4787 26.3813 56.4787Z" fill="#7B26FF"/>
<path d="M26.0991 55.8195C34.7477 55.8195 41.7587 48.8085 41.7587 40.1599C41.7587 31.5113 34.7477 24.5002 26.0991 24.5002C17.4505 24.5002 10.4395 31.5113 10.4395 40.1599C10.4395 48.8085 17.4505 55.8195 26.0991 55.8195Z" fill="#7B25FF"/>
<path d="M25.8178 55.1572C34.4664 55.1572 41.4775 48.1461 41.4775 39.4975C41.4775 30.8489 34.4664 23.8379 25.8178 23.8379C17.1693 23.8379 10.1582 30.8489 10.1582 39.4975C10.1582 48.1461 17.1693 55.1572 25.8178 55.1572Z" fill="#7C24FF"/>
<path d="M25.5327 54.4941C34.1813 54.4941 41.1923 47.483 41.1923 38.8344C41.1923 30.1859 34.1813 23.1748 25.5327 23.1748C16.8841 23.1748 9.87305 30.1859 9.87305 38.8344C9.87305 47.483 16.8841 54.4941 25.5327 54.4941Z" fill="#7D23FF"/>
<path d="M25.2514 53.831C33.9 53.831 40.9111 46.8199 40.9111 38.1714C40.9111 29.5228 33.9 22.5117 25.2514 22.5117C16.6029 22.5117 9.5918 29.5228 9.5918 38.1714C9.5918 46.8199 16.6029 53.831 25.2514 53.831Z" fill="#7D22FF"/>
<path d="M24.9712 53.1677C33.6197 53.1677 40.6308 46.1566 40.6308 37.508C40.6308 28.8594 33.6197 21.8484 24.9712 21.8484C16.3226 21.8484 9.31152 28.8594 9.31152 37.508C9.31152 46.1566 16.3226 53.1677 24.9712 53.1677Z" fill="#7E21FF"/>
<path d="M24.6889 52.5092C33.3375 52.5092 40.3486 45.4982 40.3486 36.8496C40.3486 28.201 33.3375 21.1899 24.6889 21.1899C16.0404 21.1899 9.0293 28.201 9.0293 36.8496C9.0293 45.4982 16.0404 52.5092 24.6889 52.5092Z" fill="#7E20FF"/>
<path d="M24.4077 51.8461C33.0563 51.8461 40.0673 44.8351 40.0673 36.1865C40.0673 27.5379 33.0563 20.5269 24.4077 20.5269C15.7591 20.5269 8.74805 27.5379 8.74805 36.1865C8.74805 44.8351 15.7591 51.8461 24.4077 51.8461Z" fill="#7F1FFF"/>
<path d="M24.1225 51.1833C32.7711 51.1833 39.7822 44.1722 39.7822 35.5237C39.7822 26.8751 32.7711 19.864 24.1225 19.864C15.4739 19.864 8.46289 26.8751 8.46289 35.5237C8.46289 44.1722 15.4739 51.1833 24.1225 51.1833Z" fill="#801EFF"/>
<path d="M23.8413 50.5207C32.4899 50.5207 39.5009 43.5096 39.5009 34.8611C39.5009 26.2125 32.4899 19.2014 23.8413 19.2014C15.1927 19.2014 8.18164 26.2125 8.18164 34.8611C8.18164 43.5096 15.1927 50.5207 23.8413 50.5207Z" fill="#801DFF"/>
<path d="M23.561 49.8574C32.2096 49.8574 39.2206 42.8463 39.2206 34.1977C39.2206 25.5491 32.2096 18.5381 23.561 18.5381C14.9124 18.5381 7.90137 25.5491 7.90137 34.1977C7.90137 42.8463 14.9124 49.8574 23.561 49.8574Z" fill="#811CFF"/>
<path d="M23.2788 49.1987C31.9274 49.1987 38.9384 42.1876 38.9384 33.539C38.9384 24.8905 31.9274 17.8794 23.2788 17.8794C14.6302 17.8794 7.61914 24.8905 7.61914 33.539C7.61914 42.1876 14.6302 49.1987 23.2788 49.1987Z" fill="#811BFF"/>
<path d="M22.9936 48.5356C31.6422 48.5356 38.6533 41.5245 38.6533 32.8759C38.6533 24.2274 31.6422 17.2163 22.9936 17.2163C14.345 17.2163 7.33398 24.2274 7.33398 32.8759C7.33398 41.5245 14.345 48.5356 22.9936 48.5356Z" fill="#821AFF"/>
<path d="M22.7124 47.8727C31.3609 47.8727 38.372 40.8617 38.372 32.2131C38.372 23.5645 31.3609 16.5535 22.7124 16.5535C14.0638 16.5535 7.05273 23.5645 7.05273 32.2131C7.05273 40.8617 14.0638 47.8727 22.7124 47.8727Z" fill="#8319FF"/>
<path d="M22.4301 47.2099C31.0787 47.2099 38.0898 40.1988 38.0898 31.5503C38.0898 22.9017 31.0787 15.8906 22.4301 15.8906C13.7816 15.8906 6.77051 22.9017 6.77051 31.5503C6.77051 40.1988 13.7816 47.2099 22.4301 47.2099Z" fill="#8318FF"/>
<path d="M22.1508 46.5507C30.7994 46.5507 37.8105 39.5397 37.8105 30.8911C37.8105 22.2425 30.7994 15.2314 22.1508 15.2314C13.5023 15.2314 6.49121 22.2425 6.49121 30.8911C6.49121 39.5397 13.5023 46.5507 22.1508 46.5507Z" fill="#8417FF"/>
<path d="M21.8637 45.8879C30.5123 45.8879 37.5234 38.8768 37.5234 30.2282C37.5234 21.5797 30.5123 14.5686 21.8637 14.5686C13.2152 14.5686 6.2041 21.5797 6.2041 30.2282C6.2041 38.8768 13.2152 45.8879 21.8637 45.8879Z" fill="#8516FF"/>
<path d="M21.5854 45.2253C30.234 45.2253 37.2451 38.2142 37.2451 29.5656C37.2451 20.9171 30.234 13.906 21.5854 13.906C12.9368 13.906 5.92578 20.9171 5.92578 29.5656C5.92578 38.2142 12.9368 45.2253 21.5854 45.2253Z" fill="#8515FF"/>
<path d="M21.3032 44.5619C29.9518 44.5619 36.9628 37.5509 36.9628 28.9023C36.9628 20.2537 29.9518 13.2427 21.3032 13.2427C12.6546 13.2427 5.64355 20.2537 5.64355 28.9023C5.64355 37.5509 12.6546 44.5619 21.3032 44.5619Z" fill="#8614FF"/>
<path d="M21.0239 43.8989C29.6725 43.8989 36.6835 36.8878 36.6835 28.2392C36.6835 19.5906 29.6725 12.5796 21.0239 12.5796C12.3753 12.5796 5.36426 19.5906 5.36426 28.2392C5.36426 36.8878 12.3753 43.8989 21.0239 43.8989Z" fill="#8613FF"/>
<path d="M20.7417 43.2399C29.3902 43.2399 36.4013 36.2289 36.4013 27.5803C36.4013 18.9317 29.3902 11.9207 20.7417 11.9207C12.0931 11.9207 5.08203 18.9317 5.08203 27.5803C5.08203 36.2289 12.0931 43.2399 20.7417 43.2399Z" fill="#8712FF"/>
<path d="M20.4565 42.5773C29.1051 42.5773 36.1161 35.5663 36.1161 26.9177C36.1161 18.2691 29.1051 11.2581 20.4565 11.2581C11.8079 11.2581 4.79688 18.2691 4.79688 26.9177C4.79688 35.5663 11.8079 42.5773 20.4565 42.5773Z" fill="#8811FF"/>
<path d="M20.1753 41.9145C28.8238 41.9145 35.8349 34.9034 35.8349 26.2548C35.8349 17.6063 28.8238 10.5952 20.1753 10.5952C11.5267 10.5952 4.51562 17.6063 4.51562 26.2548C4.51562 34.9034 11.5267 41.9145 20.1753 41.9145Z" fill="#8810FF"/>
<path d="M19.893 41.2514C28.5416 41.2514 35.5527 34.2403 35.5527 25.5918C35.5527 16.9432 28.5416 9.93213 19.893 9.93213C11.2445 9.93213 4.2334 16.9432 4.2334 25.5918C4.2334 34.2403 11.2445 41.2514 19.893 41.2514Z" fill="#890FFF"/>
<path d="M19.6137 40.5881C28.2623 40.5881 35.2734 33.577 35.2734 24.9284C35.2734 16.2799 28.2623 9.2688 19.6137 9.2688C10.9652 9.2688 3.9541 16.2799 3.9541 24.9284C3.9541 33.577 10.9652 40.5881 19.6137 40.5881Z" fill="#890EFF"/>
<path d="M19.3266 39.9296C27.9752 39.9296 34.9863 32.9186 34.9863 24.27C34.9863 15.6214 27.9752 8.61035 19.3266 8.61035C10.678 8.61035 3.66699 15.6214 3.66699 24.27C3.66699 32.9186 10.678 39.9296 19.3266 39.9296Z" fill="#8A0DFF"/>
<path d="M19.0464 39.2665C27.6949 39.2665 34.706 32.2555 34.706 23.6069C34.706 14.9583 27.6949 7.94727 19.0464 7.94727C10.3978 7.94727 3.38672 14.9583 3.38672 23.6069C3.38672 32.2555 10.3978 39.2665 19.0464 39.2665Z" fill="#8B0CFF"/>
<path d="M18.7651 38.6034C27.4137 38.6034 34.4247 31.5924 34.4247 22.9438C34.4247 14.2952 27.4137 7.28418 18.7651 7.28418C10.1165 7.28418 3.10547 14.2952 3.10547 22.9438C3.10547 31.5924 10.1165 38.6034 18.7651 38.6034Z" fill="#8B0BFF"/>
<path d="M18.4829 37.9411C27.1315 37.9411 34.1425 30.93 34.1425 22.2815C34.1425 13.6329 27.1315 6.62183 18.4829 6.62183C9.8343 6.62183 2.82324 13.6329 2.82324 22.2815C2.82324 30.93 9.8343 37.9411 18.4829 37.9411Z" fill="#8C0AFF"/>
<path d="M18.1987 37.2778C26.8473 37.2778 33.8583 30.2667 33.8583 21.6181C33.8583 12.9696 26.8473 5.9585 18.1987 5.9585C9.55012 5.9585 2.53906 12.9696 2.53906 21.6181C2.53906 30.2667 9.55012 37.2778 18.1987 37.2778Z" fill="#8C09FF"/>
<path d="M17.9184 36.6186C26.567 36.6186 33.5781 29.6075 33.5781 20.959C33.5781 12.3104 26.567 5.29932 17.9184 5.29932C9.26985 5.29932 2.25879 12.3104 2.25879 20.959C2.25879 29.6075 9.26985 36.6186 17.9184 36.6186Z" fill="#8D08FF"/>
<path d="M17.6362 35.956C26.2848 35.956 33.2958 28.9449 33.2958 20.2964C33.2958 11.6478 26.2848 4.63672 17.6362 4.63672C8.98762 4.63672 1.97656 11.6478 1.97656 20.2964C1.97656 28.9449 8.98762 35.956 17.6362 35.956Z" fill="#8E07FF"/>
<path d="M17.3549 35.2927C26.0035 35.2927 33.0146 28.2816 33.0146 19.633C33.0146 10.9844 26.0035 3.97339 17.3549 3.97339C8.70637 3.97339 1.69531 10.9844 1.69531 19.633C1.69531 28.2816 8.70637 35.2927 17.3549 35.2927Z" fill="#8E06FF"/>
<path d="M17.0698 34.6301C25.7184 34.6301 32.7294 27.619 32.7294 18.9704C32.7294 10.3218 25.7184 3.31079 17.0698 3.31079C8.42121 3.31079 1.41016 10.3218 1.41016 18.9704C1.41016 27.619 8.42121 34.6301 17.0698 34.6301Z" fill="#8F05FF"/>
<path d="M16.7885 33.9672C25.4371 33.9672 32.4482 26.9562 32.4482 18.3076C32.4482 9.65901 25.4371 2.64795 16.7885 2.64795C8.13996 2.64795 1.12891 9.65901 1.12891 18.3076C1.12891 26.9562 8.13996 33.9672 16.7885 33.9672Z" fill="#9004FF"/>
<path d="M16.5083 33.308C25.1568 33.308 32.1679 26.297 32.1679 17.6484C32.1679 8.99983 25.1568 1.98877 16.5083 1.98877C7.85969 1.98877 0.848633 8.99983 0.848633 17.6484C0.848633 26.297 7.85969 33.308 16.5083 33.308Z" fill="#9003FF"/>
<path d="M16.226 32.6447C24.8746 32.6447 31.8857 25.6337 31.8857 16.9851C31.8857 8.3365 24.8746 1.32544 16.226 1.32544C7.57746 1.32544 0.566406 8.3365 0.566406 16.9851C0.566406 25.6337 7.57746 32.6447 16.226 32.6447Z" fill="#9102FF"/>
<path d="M15.9448 31.9824C24.5934 31.9824 31.6044 24.9713 31.6044 16.3227C31.6044 7.67414 24.5934 0.663086 15.9448 0.663086C7.29621 0.663086 0.285156 7.67414 0.285156 16.3227C0.285156 24.9713 7.29621 31.9824 15.9448 31.9824Z" fill="#9101FF"/>
<path d="M15.6596 31.3193C24.3082 31.3193 31.3193 24.3082 31.3193 15.6596C31.3193 7.01106 24.3082 0 15.6596 0C7.01106 0 0 7.01106 0 15.6596C0 24.3082 7.01106 31.3193 15.6596 31.3193Z" fill="#9200FF"/>
</svg>
